<?xml version="1.0" standalone="no"?>
<!DOCTYPE svg PUBLIC "-//W3C//DTD SVG 1.1//EN" "http://www.w3.org/Graphics/SVG/1.1/DTD/svg11.dtd" >
<svg xmlns="http://www.w3.org/2000/svg" xmlns:xlink="http://www.w3.org/1999/xlink" version="1.1">
<metadata></metadata>
<defs>
<font id="snakemedium" horiz-adv-x="627" >
<font-face units-per-em="2048" ascent="1536" descent="-512" />
<missing-glyph horiz-adv-x="435" />
<glyph horiz-adv-x="0" />
<glyph unicode="&#xd;" horiz-adv-x="680" />
<glyph unicode=" "  horiz-adv-x="435" />
<glyph unicode="&#x09;" horiz-adv-x="435" />
<glyph unicode="&#xa0;" horiz-adv-x="435" />
<glyph unicode="!" horiz-adv-x="583" d="M54 -46q8 15 20 28q8 0 18 6.5t13 6.5q16 -3 36 -23q3 -13 -5 -24.5t-8 -19.5q-20 -26 -41 -30q-44 8 -33 56zM79 507q0 5 2.5 11.5t2.5 8.5v82q3 10 3 36q0 3 4 15.5t4 20.5v79q5 26 0 46q0 5 -2.5 14t-2.5 15v28q0 5 -1.5 15t-1.5 15.5t4 20.5t1 23l-8 23 q-3 15 -2.5 48.5t0.5 51.5q0 5 -2.5 14t-0.5 14q3 8 23 23q3 0 3 3q41 0 49 -29q3 -8 2.5 -34.5t2.5 -36.5q0 -5 5 -16.5t5 -14.5q3 -10 3 -67v-37t-3 -29q0 -5 -5 -18t-5 -18t6.5 -11.5t6.5 -11.5q3 -10 1.5 -34.5t-4.5 -34.5q0 -8 -5 -18t-5 -13l7 -51q0 -5 -3.5 -21.5 t-3.5 -27.5q-3 -18 -3 -71.5t-8 -63.5q10 -33 6 -108q0 -33 -3 -46q-5 -26 -5 -38q0 -8 5 -21t5 -20q8 -74 -20 -75q-5 3 -10.5 13.5t-15.5 24t-13 16.5q0 8 -3.5 28.5t-3.5 28.5q0 3 2.5 13t-0.5 15q0 8 -4 16.5t-4 11.5q-3 28 -2.5 80.5t0.5 80.5q0 5 -1.5 15.5t-1.5 15.5 z" />
<glyph unicode="&#x22;" horiz-adv-x="501" d="M46 696q23 59 26 87q3 5 6.5 10.5t5.5 10.5q0 15 8 37t10 32q5 5 13 21.5t16 24.5v18q3 3 6.5 9t5.5 9q0 3 16 33q0 10 2 16q0 3 4 5t4 5q3 3 9 11.5t11 13.5v13q8 13 23.5 27t30.5 9q13 -8 1.5 -47.5t-11.5 -49.5q-10 -15 -15 -36q-5 -5 -13 -22t-16 -24v-16 q-10 -15 -26.5 -54.5t-29.5 -55.5q0 -5 -1 -14t-1 -11q-3 -3 -8 -9.5t-5 -8.5q0 -15 -10.5 -34.5t-7.5 -34.5q-5 -3 -14 -22t-25 -19q-15 15 -15 66zM236 637q-10 23 0 77q0 5 5 14t5 12q3 5 4 15t1 13q13 13 15 31l16 30q0 3 5 7t5 6q5 15 24 41t24 49q3 5 8 10t5 8 q-3 10 8 20q5 5 8 10q-3 13 12 34q3 3 3 5v5q5 8 31 28q15 15 30 8q11 -5 11 -49q0 -5 -5 -13q-5 -3 -6 -5q-3 -5 -2 -13q-13 -10 -26 -37t-18 -34q0 -3 -2.5 -6.5t0.5 -6.5q-3 -5 -8 -10t-5 -8v-5q-3 -5 -3 -8q-26 -36 -28 -51q-10 -10 -13 -15q0 -3 -1 -8t-1 -7.5 t-10.5 -14t-15.5 -19.5q-5 -23 -15 -38q-5 -41 -5 -57q-5 -18 -21 -25q-28 -5 -35 7z" />
<glyph unicode="#" horiz-adv-x="1331" d="M46 323v17q3 5 15 18l23 16h24q3 0 9 5t11 7.5t11.5 2.5h8.5q5 3 11.5 9t12.5 6q36 -8 58 11q23 5 26 5q5 5 33 15q3 0 17 8t27 5q5 3 10 8t10 7h16.5t17.5 3q8 0 19 7.5t19 5.5q5 3 16.5 10.5t16.5 9.5q3 5 3 15.5v12.5q0 8 5 18q0 5 -1.5 14t-1.5 12l8 23q5 13 5 41 q0 3 5 11.5t5 14t-6 11.5t-6 12q0 15 2 20q0 23 13 38q0 72 5 90q13 3 33 13q26 -8 34 -33q5 -33 -3 -93.5t-8 -81.5q0 -49 -5 -71q-23 -44 -5 -64q8 3 23.5 4t22.5 1q5 3 13 8t10 5q13 5 40 2.5t40 -0.5q5 3 11.5 8t11.5 8q28 0 30 2q3 8 8 22t5 16.5t1.5 15.5t4 18 t7.5 12.5t5 10.5q-3 23 6 52.5t9 47.5q8 8 14.5 27t11.5 26q0 18 21 54v23q0 5 6 11.5t6 9.5q-3 15 6.5 30.5t9.5 30.5q18 23 33 26q8 -3 11.5 -13t8.5 -15q-5 -8 -2.5 -27t2.5 -25q0 -10 -7 -17q-3 -13 -13 -39q0 -20 -9 -44.5t-11 -32.5q0 -5 -6.5 -11.5t-6.5 -11.5 q3 -20 -11 -46q-5 -54 -17 -89v-36q20 -3 50.5 6t41.5 9q5 3 11.5 8t8.5 7q5 3 14 0.5t12 -2.5q5 0 15 5h23q5 0 11.5 5t11.5 5q108 0 133 18h67q49 0 59 -7q3 -8 -21 -24l-7.5 -7.5t-10.5 -7.5h-20t-21 -2q-5 0 -10 -5.5t-10 -5.5t-23 -1t-26 -4q-3 0 -10.5 -3.5 t-12.5 -6.5t-17.5 -1.5t-20.5 -1.5q-3 0 -10.5 -5t-12.5 -7q-33 0 -56 -16q-10 -3 -28.5 0t-28.5 -2q-5 0 -11.5 -6.5t-8.5 -6.5h-23q-5 0 -11.5 -5t-9.5 -8q-3 0 -13 -1t-12 -1q-5 -3 -11.5 -8t-9.5 -8h-25q-10 -5 -10.5 -39.5t-0.5 -52.5q-3 -5 -6.5 -10t-6.5 -10 q0 -54 -15 -72q3 -20 -2 -62q3 -5 28 -5q46 0 56 8q36 8 82 8h20h16q36 0 51 2q5 3 10 5q20 10 31 0q0 8 53.5 6.5t61.5 -1.5q5 5 16 6l15 -6h15q23 3 28 -7q0 -15 -20.5 -23t-22.5 -11q-28 -3 -82 -2q-3 -3 -10.5 -8l-10.5 -7q-13 3 -33 0t-25 -3h-21q-5 0 -14 -6.5 t-14 -6.5q-8 3 -23 0.5t-21 -2.5h-20q-3 -3 -9 -5.5t-11.5 -5t-22 -2.5h-24.5q-5 0 -11.5 -2.5t-8.5 -2.5h-23q-5 0 -11.5 -4t-11.5 -4h-19t-22 -3q-5 -5 -4 -21.5t-1 -29.5q0 -3 -5 -8t-8 -10q-3 -8 -3 -94v-113q0 -5 6.5 -10t9.5 -10q0 -41 -18 -41q-3 0 -26 15 q0 8 -6.5 19.5t-6.5 16.5q3 15 -8.5 40.5t-11.5 38.5v110q0 3 -1.5 12t-1.5 14q0 10 5.5 29t5.5 22q-3 13 -40 8t-45 -3q-3 0 -9 -5t-11 -5q-8 0 -14.5 5t-11.5 5q-5 3 -14 -5t-12 -10h-48q-18 -5 -18 -21q-3 -8 -4 -43.5t-6 -43.5q-5 -10 -23 -11.5t-29 6.5q-3 3 -4 10.5 t-1 10.5q-5 15 -5 20q0 8 4 24.5t1 26.5q-8 18 -20 21q-5 0 -29.5 -5t-29.5 2q-15 -8 -61.5 -11.5t-58.5 -13.5q-72 5 -75 7q-8 5 -7 31q10 13 30 26l11 10q5 3 17.5 1.5t20.5 0.5q5 3 11.5 8t11.5 5q54 0 72 13q20 5 42 2.5t41 1.5t27 16q3 8 2 21q3 8 7 22t4 19v59 q3 5 9 18t6 19t-2 19q-10 3 -23 -3.5t-24 -1.5q-5 0 -8.5 -5t-8.5 -5h-26q-5 -3 -13 -8t-10 -5q-3 -3 -10.5 -3h-12.5t-10.5 -5t-10.5 -7.5t-18 -2.5l-7 -5q-8 -5 -10 -5q-8 -5 -27.5 -5t-29.5 -3q-5 -3 -10 -5.5l-10 -5t-11.5 -2.5h-9.5q-5 0 -14 -5t-11 -5q-13 -5 -44 0 q-18 13 -23 21zM474 215q5 -13 25 -8q8 3 13 3q3 0 24.5 -2.5t34.5 -0.5q5 0 14 1.5t14 1.5q3 0 8 -1.5t10 -1.5q69 0 77 13q5 5 5 20.5v20.5q3 8 8 17t5 14v66q0 46 5 59q0 3 7.5 10.5t5.5 15.5q-3 5 -21 5h-39.5t-32.5 -3q-3 0 -10 -5t-13 -5h-43q-5 -3 -13 -9t-13 -9 q-15 0 -20 -2.5t-6.5 -14t-3.5 -16.5q-8 -15 -8 -18v-20.5t-3 -22.5l-10 -21q-3 -3 -4 -8t-1 -7l-8 -16v-19t-2 -16q0 -5 -2.5 -10.5t-2.5 -10.5z" />
<glyph unicode="$" horiz-adv-x="1013" d="M51 31q36 46 57 66q8 5 20.5 16.5t19.5 17.5l41 7l31 23q13 0 31 9t31 4l7 -15q-3 -5 -11.5 -13t-11.5 -13q-3 0 -6.5 -1t-6.5 -1q-8 -3 -17 -13q-10 0 -25.5 -8t-18.5 -8l-41 -41q0 -3 -6.5 -5t-6.5 -7q0 -8 13 -8t29.5 2.5t21.5 2.5q3 0 9.5 5t11.5 5q8 3 18 3h15 q5 3 11.5 8t9 5t7.5 2.5t8 2.5l20 10q20 0 31 3q5 3 10 5q5 3 8 5q10 3 32 2.5t35 2.5q23 13 43 20q5 5 13 17t13 17q-3 13 10 41q-3 18 8.5 43.5t11.5 40.5q0 3 5.5 9.5t7.5 11.5q-3 41 16 59q0 46 -6 51q-18 3 -67.5 0t-62.5 2q-10 10 -36 16q-5 3 -18 15.5t-26 12.5 q-5 8 -19 16.5t-19 19.5v30q5 8 16.5 24.5t16.5 24.5q15 8 52 44q5 0 30 20q31 26 44 41q13 5 34.5 24t36.5 25q10 8 47 43q20 0 51 31v138l-16 15q-5 47 8 57q20 -5 31 -5l20 -21q5 -13 18 -31q8 -13 10 -17q0 -5 1.5 -23t1.5 -29q0 -41 8 -48q8 0 18 9t15 11q8 3 49 3 q38 0 51 -3l36 -18q3 -3 4 -9t1 -9q-5 -3 -13 -10.5t-10 -9.5q-10 -5 -13 -8q-3 0 -10.5 -9t-12.5 -11q-8 -3 -20.5 7.5t-20.5 10.5t-20.5 -5.5t-23.5 -5.5q-41 -31 -41 -33q0 -8 -6 -51.5t-9 -66.5q-13 -31 -10 -46q0 -3 -13 -20q-3 -8 -3 -49q0 -5 -5 -10t-5 -10 q8 -8 51 -8q36 -3 105 -3l26 -10h64q13 -3 38 -20l23 -31q-3 -10 4 -33t4 -31q0 -3 -7.5 -8t-10.5 -10l-7 -15l-24 -31q-13 -5 -48 -41q-8 -3 -27 -18t-37 -18q-20 -15 -33 -28q-44 -10 -59 -28q-5 0 -14 -6.5t-12 -9.5q-8 0 -13 -2q-8 -8 -10 -8q-26 -18 -26 -20 q-8 0 -18 -6.5t-12 -6.5q-10 3 -34 -15q-3 0 -9 -1.5t-6 -4.5q-20 -77 -20 -122q-3 -3 -11 -18v-123q3 -5 7 -14t4 -12l7 -23q0 -3 6.5 -14t6.5 -19q0 -5 5 -10t5 -10.5t-10 -15.5q-28 -13 -33 23q-38 23 -41 33q-3 5 -3 10.5t-2.5 10.5t-7.5 10t-5 8q5 18 -4 43.5t-9 35.5 q0 5 5 26q0 5 -1 14t-1 11q0 5 5 11.5t5 9.5q3 8 1.5 33.5t-1.5 35.5q26 26 5 36q-5 0 -15.5 -5t-12.5 -5h-23q-8 0 -27 -10.5t-35 -7.5q-15 -13 -46 -13q-5 -3 -10 -8l-8 -8q-26 5 -43 -12h-41q-5 -3 -11.5 -8t-9.5 -8q-8 -3 -23 4t-18 7q-5 0 -16.5 -6.5t-18.5 -9.5 q-5 0 -26 5q-5 5 -18 16q-10 5 -15 10q-8 13 -3 36zM394 527q-3 -10 8 -20l31 -15q51 -8 112 -3q3 0 9.5 -2.5t11.5 -2.5q13 15 25 100l8 18v25l13 26q10 41 -3 54h-2l-3 -3q-20 -20 -28 -23q-5 -3 -7.5 -6.5t-5.5 -3.5q-10 -5 -13 -5q-23 -26 -35 -29q-8 -10 -105 -99 q-15 0 -16 -11zM579 174q3 0 15 5h15q5 0 13 8t15 5l16 15q3 3 5 3h8q20 13 28 13q5 3 15 13q23 18 49 15q3 0 6.5 6.5t8.5 8.5q3 3 10 3q13 10 38.5 37t43.5 37q11 18 21 33q10 13 10 16q0 5 -10 14t-16 9q-8 3 -41 2q-10 0 -28 -1t-28 -1q-5 0 -10 5t-10 5q-3 0 -5 -3 q-5 -5 -8 -5q-10 5 -13 5q-13 -8 -47.5 -6.5t-47.5 -3.5q0 -18 -7.5 -46t-10.5 -46q-15 -23 -15 -59q-10 -10 -13 -15v-26t-2 -20q0 -3 -5 -8q-10 -13 0 -18z" />
<glyph unicode="%" horiz-adv-x="988" d="M49 497v30q38 38 56 49q3 3 5 3h8q3 3 11.5 14t16.5 16q20 -3 61 28q33 0 44 8l49 8q8 0 25.5 -1.5t25 -1.5t18 -5t18.5 -8q0 -5 7.5 -14t9.5 -16q5 -5 4 -31t-1 -33q0 -3 -6.5 -8t-6.5 -8v-15q-3 -3 -18 -22t-25 -24q-3 -8 -10.5 -18t-10.5 -18q-5 -5 -12.5 -9t-10 -6.5 t-5.5 -7.5l-2 -5q-3 -3 -7 -5.5t-6.5 -2.5t-5 -2.5t-5.5 -4.5q-8 -3 -71 -3q-3 0 -12 6.5t-16 8.5q-26 36 -23 54q-5 8 -23 9t-23 4q-5 0 -11.5 4t-9.5 4q-15 -3 -28 12q-7 8 -10 11zM102 -141q0 18 9 29.5t23 23t20 19.5v13l43 43q23 36 78 97.5t78 97.5q3 3 10.5 8 t10.5 10l5 10q10 8 23 27t18 24l2 5q3 3 3 5q5 8 18 13q54 67 95 105q13 18 58 59q3 5 10.5 16.5t10.5 19.5l19 19t24 22q10 20 72 87q0 8 5 8l54 61q3 5 3 13q5 3 12 10q3 10 10.5 18t7.5 15q44 36 64 69l31 23q33 -5 28 -35q-3 -3 -10.5 -7t-9.5 -9q0 -8 -8 -20.5 t-5 -25.5l-15 -15q-8 -20 -29 -39q-3 -10 -15.5 -21.5t-14.5 -13.5q0 -8 -2.5 -13t-13.5 -10q-8 -13 -24.5 -35t-23.5 -32q-13 -8 -29.5 -28.5t-24.5 -27.5l-3 -5q-3 -3 -2 -6q-3 -3 -14.5 -15.5t-13.5 -22.5l-46 -38q-13 -31 -36 -41l-39 -46q-5 -8 -25.5 -31t-27.5 -36 q-3 -3 -3 -10q-13 -5 -36 -36q-5 -5 -10 -15q-10 -5 -13 -6l-5 -10q-3 -5 -11.5 -12.5t-11.5 -12.5q-5 -5 -9 -15.5t-9 -15.5q-3 -3 -8 -5q-5 -3 -5 -5l-82 -82q-10 -3 -20 -13q0 -3 -5 -13q-8 -10 -27 -33t-36 -41t-37 -28l-15 -23q-3 -3 -3 -11l-10 -10q-18 -18 -28 -18 q-16 0 -29 18zM138 520q0 -13 5 -16q20 -3 26 23q20 15 20 36h-17q-5 -8 -17 -22t-17 -21zM220 468.5q0 -5.5 18 -17.5q15 10 26 10q49 33 51 38q0 3 1 6.5t1 6.5q3 3 8 5.5t8 4.5q0 5 2 10q8 8 11 13q10 28 -3 46q-13 6 -31 -12q-15 -5 -33 -27t-20 -25q-3 -13 -9.5 -25.5 t-8.5 -17.5q0 -3 -10.5 -6.5t-10.5 -9zM540 23q0 36 3 54q3 5 20.5 25.5t22.5 35.5q3 5 9.5 11.5t8.5 9.5q10 8 34.5 16.5t32.5 13.5h66q13 -13 16 -20q-5 -8 -29 -21q-26 0 -56 -30h-13l-10 -10q-13 -8 -15 -13q-8 -16 0 -21q13 3 23 13t15 13q10 0 27 9t27 9q23 10 31 10 q23 -10 41 -33q3 -13 -7.5 -23.5t-10.5 -20.5q-41 -36 -82 -66h-13q-5 -3 -11.5 -8t-9.5 -8q-10 -5 -31.5 -5t-29.5 5l-10 11q-10 5 -13 5l-18 18q-15 18 -18 20z" />
<glyph unicode="&#x26;" horiz-adv-x="593" d="M41 199.5q-3 36.5 3 43.5q10 15 49.5 23t47.5 13q10 -3 28 0t26 3q18 15 25 23v48q0 3 5 8t8 10q5 8 9 24.5t6 24.5q-3 44 16 61q0 46 -3 57q0 5 -6.5 17.5t-6.5 17.5q-3 8 0 26t0 26q0 3 -10 13t-8 22q5 13 20.5 19.5t31.5 1.5q5 -3 8.5 -6.5t6.5 -3.5q26 -18 26 -23 q3 -8 2.5 -18t2.5 -18q0 -5 6 -15.5t6 -23.5q0 -3 -1 -9t-1 -11q-3 -15 -1.5 -46t1.5 -41q0 -3 -5 -9t-8 -12q-3 -10 -2.5 -31.5t0.5 -32.5q0 -5 -5.5 -11t-7.5 -12v-23q-3 -3 -8 -10q-11 -10 -8 -25q15 -10 52 -6q10 3 30 16h49q3 0 9 6.5t11 6.5q8 5 36 3.5t36 -1.5t18 5 t18 3q20 -13 2.5 -29.5t-33.5 -21.5q-5 0 -12.5 -1.5t-10 -1.5t-10.5 -5t-13 -8h-25q-5 0 -9 -7.5t-9 -7.5h-26q-5 -3 -11.5 -8t-8.5 -5q-15 -5 -26 -2q-3 0 -21 -13q-5 -3 -16.5 -3h-16.5q-13 -3 -41 -23q-3 -8 -2.5 -27t0.5 -27l-16 -30q-3 -3 -7.5 -9.5t-4.5 -8.5 q3 -15 -11 -31q-3 -5 -5 -8v-36q-3 -3 -9 -11.5t-9 -16.5q-3 -5 -13 -15q3 -10 -10 -28q-5 -5 -7 -10l-3 -8q-28 -18 -41 -15q-8 0 -13 17l-13 13l-15 62q0 3 -5 7.5t-5 10.5q-3 5 -4 17.5t-1 15t-5.5 10.5t-7.5 13q-3 8 -3 23t-2 23q-3 5 -6.5 11.5t-3.5 8.5q0 15 -3 51.5z M123 128q3 -5 5.5 -20.5t7.5 -23.5q0 -10 7 -17q5 -18 11 -18q3 8 6.5 32t11.5 34q5 10 5 21q13 41 12 48q0 3 5.5 7t7.5 9q-2 5 -43 5q-5 -5 -15.5 -11.5t-15.5 -11.5q0 -5 -4 -23t-1 -31z" />
<glyph unicode="'" horiz-adv-x="353" d="M44 632q-3 18 12 34q10 33 31 56q-3 13 8 23q3 5 5 10q3 3 8 13t10 15v11q54 74 59 82q5 20 23 49.5t20 31.5q5 20 5 31q5 5 15.5 25.5t23.5 25.5h2q13 5 23 0q3 -3 5 -7q3 -8 5.5 -10.5t5 -7.5t5.5 -8q0 -8 -6.5 -22t-3.5 -24l-18 -18q-3 -20 -29 -46q-3 -18 -16.5 -41 t-16.5 -31l-10 -12v-8t-3 -5q-8 -10 -41 -77v-13q-8 -5 -16.5 -19t-13.5 -19q-15 -46 -36 -62h-36q-15 10 -18 21q0 3 -2 2z" />
<glyph unicode="(" horiz-adv-x="563" d="M46 443q0 20 1.5 63.5t1.5 66.5q3 3 6.5 12t5.5 11q3 23 16 56.5t15 54.5q5 5 16 20q0 3 12 36q3 5 9.5 20.5t11.5 20.5q8 10 18 10l30 46q10 5 31 21q3 3 8 9t8 9q8 0 21.5 7.5t24.5 7.5q43 3 71 -28q10 -13 11 -31q-23 -23 -34 -23q-8 0 -15.5 6.5t-14.5 6.5 q-10 0 -19.5 -9t-16.5 -9q-26 -28 -59 -72q-13 -3 -26 -28q0 -5 -5 -11.5t-5 -8.5q0 -26 -15 -47q-3 -10 -3 -26.5t-3 -24.5q0 -3 -5 -10q-8 -20 -5 -36q-13 -15 -18 -59q-5 -20 -5 -30q0 -3 1.5 -10.5t1.5 -10.5q0 -5 -1.5 -18t-1.5 -20q0 -5 2.5 -15.5t2.5 -18.5 q3 -5 3 -14v-14q3 -5 10.5 -21.5t4.5 -24.5q15 -31 13 -46q10 -10 15 -20l8 -8q5 -8 5 -13l3 -5q3 -3 2 -5q3 -13 16 -26q0 -3 5 -6.5t5 -8.5q0 -8 2 -10q5 -5 11 -16q18 -26 25 -25q23 -31 31 -44q10 -8 34.5 -28t39.5 -31h13q3 -3 8 -10.5t10 -9.5q33 0 46 -8q10 3 44 -10 h25q31 -13 23 -64q-23 -23 -25 -23q-3 -3 -21 -0.5t-23 2.5q-31 15 -54 18l-20 11q-8 3 -26 2q-5 3 -10 10q-3 5 -5 8q-13 0 -15 3q-3 0 -12 7.5t-19 10.5q-13 13 -28 33q-3 0 -8 2l-5 3q-5 3 -10 13t-8 13l-5 2q-5 3 -8 5q-15 5 -20 21l-8 15q-5 8 -20 18q-5 13 -47 74 q0 5 -15 28l-15 31q-3 13 -16 31q-3 10 -2 28q0 3 -5 10.5t-8 12.5t-3 15.5v15.5q0 8 -6 19.5t-6 18.5q0 5 1 18t-1 21q0 5 -1.5 15t-1.5 18z" />
<glyph unicode=")" horiz-adv-x="624" d="M59 -67q13 5 28 29q0 15 3 20q18 5 38 0q3 -3 5.5 -11.5t4.5 -11.5q26 0 31 -15q0 -3 -4 -7t-1 -9q5 -5 18 1.5t18 6.5h19t22 3q5 3 10 7.5t8 7.5q8 0 16.5 6.5t13.5 6.5q8 8 13 15l5 3h5q5 5 33.5 28t38.5 38v10l15 16q5 15 23 42t23 47l16 16q-8 33 15 46 q0 20 6.5 63.5t9.5 72.5l7 15q-3 8 1 27t4 24q0 3 -2.5 10.5t-2.5 10.5q0 82 -7 92q0 41 -16 69q3 15 -7.5 31.5t-10.5 24.5q-3 5 -8 10.5t-5 7.5q0 31 -30 62q-5 20 -18 33t-35 27t-29 21h-23q-5 0 -11.5 -6t-11.5 -6t-18 10t-18 10q0 15 5 24t19 17t17 10h41q3 0 22 -9 t37 -3q8 -5 23 -15.5t25.5 -18t17.5 -18.5q3 -5 3 -12q3 -8 14 -17t14 -14q0 -8 3 -13l15 -31q5 -5 14 -19t11 -17q0 -20 8 -49.5t8 -47.5q5 -8 15 -18q3 -13 9.5 -42t7.5 -44.5t-1 -48.5q0 -3 -5.5 -10.5t-5.5 -10.5q0 -28 -2 -41v-55t-3 -52q0 -3 -6.5 -12t-8.5 -14 q-5 -26 -8 -41q-3 -8 -5.5 -22t-2.5 -21q-3 -8 -13 -21t-12 -20q0 -3 -3 -8l-2 -5l-13 -26q-3 -3 -8 -5q-5 -3 -5 -5q0 -8 -7.5 -18t-7.5 -18q-8 -8 -31 -38.5t-43 -43.5q-13 -20 -37.5 -43t-57.5 -29q-5 -5 -16 -10q-5 -5 -10 -7q-5 0 -11.5 -5.5t-13.5 -7.5h-21l-41 -10 q-5 0 -14 2.5t-11.5 2.5t-6.5 -1.5t-6 -1.5l-31 8q-10 10 -18 15q-8 0 -15 3q-44 26 -18 53z" />
<glyph unicode="*" horiz-adv-x="880" d="M44 -125q3 3 7.5 10t4.5 10q0 8 3 13q8 8 20.5 28t22.5 28q5 20 19.5 35.5t26.5 28.5v13q8 8 22 24.5t19.5 21.5t5.5 10q3 5 13 15.5t12 15.5q5 5 10.5 16.5t8 16.5t7.5 9t5 7q28 46 43 53q3 5 10.5 17t7.5 22q-5 3 -11.5 -3.5t-8.5 -6.5q-13 -3 -21 -16q-5 0 -11.5 -1 t-8.5 -1q-15 -13 -95 -13q-5 3 -10 8t-8 5q-13 0 -18 5q-13 15 -5 33t23 23q67 -5 92 13q3 0 7 1t6 1q15 18 90 47q5 3 9 7.5t6 4.5q5 0 33 13q18 5 21 8q3 18 -3 59q-3 5 -7.5 10t-7.5 10v26l-10 20q0 15 -10.5 36t-10.5 31q-20 20 -36 23q-38 46 -12 72q3 0 28 20 q26 5 41 -3q20 -15 23 -25l7 -16q0 -5 6 -10q5 -5 5 -7v-31q0 -3 6.5 -9.5t8.5 -11.5v-12q3 -5 8 -11l7 -7v-26q3 -5 8 -14t5 -12l3 -23q0 -20 5 -20t13 31q3 5 6.5 11.5t3.5 8.5q0 10 3 15q8 8 14 30t11 29q0 15 9 30.5t9 28.5q3 5 8 10.5t5 7.5q0 18 10 37t10 30 q0 5 5.5 12.5t5.5 10.5q-3 18 6 39.5t11 29.5q3 13 13 20q0 23 21 49q20 5 30 5q10 -3 11.5 -18t-5.5 -23q5 -20 2 -28q-3 -5 -8 -11.5t-5 -8.5q-3 -10 -2.5 -27t0.5 -30q-23 -36 -23 -84q15 0 28 15t18 18q13 -3 56 13q5 3 16.5 0t14.5 -3q31 -15 38 -36q0 -8 1.5 -21.5 t1.5 -21.5q-13 -5 -19.5 -4t-16.5 9t-15 10q-15 -5 -32 -20.5t-27 -17.5q-8 -8 -13 -18q-8 -8 -41 -38.5t-44 -53.5q13 -8 32.5 1t26.5 9q5 0 18 6.5t21 8.5h79q46 0 59 -10q3 -3 3 -13q-8 -10 -36 -15q-13 -8 -49 -14.5t-49 -11.5q-28 -15 -38 -12q-3 0 -18 -16 q-13 3 -25.5 -5t-17.5 -8q-20 3 -39.5 -13.5t-30.5 -19.5q-3 -5 -18 -18t-17 -20q0 -5 2 -13q5 -10 5 -15v-41q0 -5 4 -15.5t7 -18.5q3 -5 4 -20.5t3.5 -25.5t9.5 -15q5 -44 16 -56v-31q3 -5 8 -10t7 -8q3 -8 3 -26v-28q3 -5 8 -9t5 -9q0 -10 7.5 -34.5t8.5 -36t-6 -31.5 q-13 0 -36 18q3 10 -10 20q-5 5 -5 7.5v6.5t-3 4q-3 3 -8 9.5t-7 11.5q0 10 -8 26.5t-8 29.5q-18 33 -15 46q-15 28 -13 41q-3 5 -8 11.5t-5 8.5q-3 8 -5 27.5t-6 31t-14 13.5q-3 0 -10 -23q-3 -5 -8 -11.5t-5 -8.5v-29q0 -3 -5.5 -7.5t-7.5 -9.5q0 -10 -9 -32t-9 -38 q-10 -10 -10 -15q-3 -8 -3 -20l-15 -16q3 -20 -13 -46q0 -18 -7.5 -42t-7.5 -30q-13 -20 -23 -20q-13 0 -23 31q0 36 7 61q10 36 8 46q15 20 15 36q0 3 5.5 9t5.5 12q5 5 5 21.5t2 21.5q0 3 5 9t5 12q0 8 3 15q0 5 9 21.5t-1 21.5q-8 0 -13 -8.5t-10 -11.5q-3 -8 -16 -21 q-5 -10 -12 -20q0 -3 -3 -5v-5l-8 -8t-7 -10q0 -8 -9 -20.5t-12 -20.5q-3 -5 -18 -15l-5 -16q-49 -38 -69 -95q0 -28 -3 -41q-3 -3 -9 -6.5t-9 -5.5l-7 -21q-3 -3 -8 -2q-3 -3 -5 -3q-3 -3 -9 -8t-8.5 -5t-13 -5t-13.5 -5q-20 0 -33 18q-8 8 -7 26zM358 200q5 -3 9 1t2 9 q-5 8 -10.5 3t-0.5 -13z" />
<glyph unicode="+" horiz-adv-x="624" d="M46 253q5 23 62 34q38 -13 56 -13q8 -3 24.5 -0.5t21.5 2.5q3 0 11.5 -7.5t16.5 -4.5q10 3 14 13t4 28v23t2.5 14t2.5 11q0 18 -6.5 58t-6.5 60q0 10 4 37t-1 35q0 5 -9 12.5t-9 10t8 25.5q31 31 46 44l2 2q18 3 31 -17l8 -8q0 -18 -2.5 -86t-0.5 -109q5 -79 0 -115 q-8 -33 5 -41q13 3 37.5 3h36.5q5 0 18 5t18 5q20 5 69 5q3 0 13 5q51 18 57 -10q0 -8 -8 -15q-5 -3 -8 -8q-51 -23 -77 -23q-61 -26 -110 -26q-8 0 -28 2.5t-31 0.5q-8 -8 -11.5 -29.5t-5.5 -27.5l-16 -92q0 -8 -1 -28t-4 -33q-3 -5 -5.5 -10t-4.5 -11v-53q0 -64 -8 -69 q-5 -8 -16.5 -7t-16.5 7q-3 0 -8 17q0 3 -5 8t-8 10q3 23 1.5 65.5t-1.5 62.5q3 10 8 28t5 24q3 31 3 81q15 31 12.5 36t-33.5 5q-3 0 -9 4t-9 4h-12q-51 8 -59 8l-8 -5q-8 -5 -10 -5q-13 0 -18 15q-15 10 -18 13q-3 5 -6.5 15t-6.5 15z" />
<glyph unicode="," horiz-adv-x="189" d="M-102 -315q8 8 27 20.5t26 18.5q10 0 18 3.5t15.5 11.5t12.5 10q0 5 6 10q10 10 21.5 31t21.5 28q0 5 13 34q0 3 1 16.5t4 18.5q28 56 8 100q0 3 -5 8q0 3 -3 8q-3 3 -3 5q0 5 -2 5q0 3 -6.5 6.5t-6.5 6.5v30q28 29 41 21q5 -26 10 -28h18q10 -3 16 -21q0 -3 -1.5 -6.5 t-1.5 -6.5q3 -10 20 -33v-82q0 -5 -5 -12.5t-5 -12.5q-3 -5 -6.5 -20.5t-8.5 -20.5q0 -3 -1.5 -8t-1.5 -8q-15 -23 -15 -28q-3 -3 -8 -6.5t-7 -6.5q-3 -15 -16 -31.5t-13 -29.5q-23 -36 -56 -64l-28 -21q-8 0 -22 -7.5t-21.5 -5t-19 10t-16.5 10.5v46z" />
<glyph unicode="-" d="M46 249.5q3 16.5 15 24.5q51 0 57 -3q5 0 11.5 5.5t8.5 5.5h64q5 0 18 -3t21 -3h53q33 -10 44 -7q10 0 31 5q15 5 47 3.5t50 1.5q5 0 11.5 4t11.5 6h3v3l92 -16q15 -5 12.5 -21.5t-15.5 -21.5q-13 0 -37 -7.5t-37 -7.5h-46q-5 -3 -13 -8t-10 -5q-8 -3 -46 -3h-226 q-38 15 -46 16q-3 -3 -9 -8t-11 -8q-10 -3 -21.5 7.5t-22.5 10.5q-13 13 -10 29.5z" />
<glyph unicode="." horiz-adv-x="727" d="M46 -131q5 10 10 36q13 33 13 39q15 31 56 59q3 18 21 30.5t33 -0.5q10 3 29.5 12t32.5 11q5 5 15 14t15 14q49 8 57 -7q5 -26 -8 -46l-13 -13q-41 -54 -43 -56q-5 -15 -13 -23q0 -3 -1.5 -7t-3.5 -6q-15 -13 -41 -40t-41 -40q-31 -5 -41 -5q-26 -10 -46 -10 q-18 10 -31 38z" />
<glyph unicode="/" horiz-adv-x="901" d="M49 -97q41 49 59 89q26 20 30 41l31 31q8 28 31 44q10 20 37 54.5t37 55.5q5 3 18 20q0 3 5 5l5 3v10l31 31q0 5 2.5 10t9 12.5t8.5 10.5q20 18 21 23l2 5l3 5q3 3 14 15.5t14 23.5q5 5 14 16.5t14 16.5q0 10 8 21.5t8 19.5q5 3 20 19.5t26 21.5q5 18 21.5 42t21.5 37 q3 5 22 23t24 34q5 5 13 16.5t15 16.5q5 20 29 43q5 15 24 37t24 38q10 10 28 46q15 13 41 47.5t44 46.5q21 5 41 0q15 -10 7 -46l-12 -12v-6q-3 -5 -5 -5q0 -3 -5.5 -5t-5.5 -5q0 -8 -2 -10l-10 -10q0 -3 -1.5 -7t-4 -6.5t-7.5 -4.5l-3 -3l-18 -18q0 -8 -7.5 -18t-7.5 -15 q-8 -8 -20.5 -28.5t-20.5 -27.5q-10 -26 -31 -47v-10l-2 -2q-10 -10 -29.5 -34.5t-27.5 -34.5q-3 -3 -2 -11q-10 -10 -13 -15l-3 -5v-5q-13 -13 -34.5 -44t-36.5 -43q-3 -8 -15.5 -23.5t-18.5 -28.5q-5 -5 -15 -16.5t-13 -13.5q0 -10 -2 -10q-3 -5 -8 -9t-5 -7v-13 q-15 -15 -36 -46q-15 -8 -25.5 -22t-23 -38t-17.5 -32q-38 -18 -47 -56q-3 -3 -22 -30t-24 -44l-2 -6q-3 -5 -5 -5q-8 -3 -18 -7.5t-16 -7.5l-15 -23v-5q-3 -5 -3 -8q-5 -5 -15 -23l-13 -13v-10.5t-2 -9.5q-3 -20 -26 -44l-5 -10q-13 -10 -33.5 -29.5t-33.5 -29.5 q-26 -5 -28 5q-13 10 -7 62z" />
<glyph unicode="0" horiz-adv-x="903" d="M49 -123l15 15v13q5 5 20.5 22t23.5 27v5q0 5 2 5q3 8 15.5 20.5t15.5 23.5q13 18 13 20q0 5 -8 13t-8 13v105q18 28 16 59q8 8 15.5 24.5t12.5 23.5q0 10 9 27t9 30q0 5 5 10l7 7q-3 15 7.5 33.5t10.5 28.5q3 5 11 13q18 20 20 38q0 3 5 8t5 7q10 20 -5 26q-5 0 -23 -18 q-10 -20 -13 -20q0 -8 -5 -13q-3 -3 -11.5 -13t-13.5 -15q-18 -23 -26 -26q-10 8 -6 23.5t14 22.5q3 5 2 18q15 15 16 28q5 8 16.5 21t16.5 20q5 5 16.5 13t19 15.5t13.5 15.5q5 0 8.5 1t6.5 1q31 31 56 31q5 0 11 5q5 5 7 8q10 0 51 10t72 8q0 -3 3 -3l5 -2q8 -5 13 -8 t23 -3t23 -2q13 -3 20 -13q18 -5 56 -26q23 8 26 23q20 10 38 24.5t38.5 35t31.5 30.5q8 3 24.5 13t31.5 15t33 0q18 -13 -5 -33l-5.5 -5.5t-10 -7.5t-10.5 -8q-3 0 -5 -1t-5 -1l-10 -10q-15 -13 -15 -28q-36 -28 -41 -31l-5 -3l-6 -2q-8 -3 -10 -11q-20 -15 -25 -23 q-6 -5 -16 -20q0 -3 59 -74v-11q3 -5 13 -23q5 -23 -6.5 -56t-8.5 -54q-3 -5 -8 -10l-8 -8q-23 -56 -41 -71q-10 -23 -38 -46q-5 -5 -16.5 -18t-16.5 -18q-13 -5 -13 -8q-31 -26 -49 -51q-13 -5 -33.5 -19t-27.5 -17q-5 -3 -13 -10q-3 0 -10.5 -1.5t-10.5 -3.5q-3 0 -13 -8 t-17 -8q-5 0 -11 -5q-5 -8 -7 -7l-36 -18q-3 0 -8 -5.5t-7 -5.5h-90q-3 0 -10.5 -2.5t-12.5 -2.5q-5 5 -15 5h-44l-23 -23v-7l-3 -3q-8 -13 -20.5 -27t-28 -29.5l-22.5 -22.5q0 -10 -5.5 -22t-2.5 -22q-8 -13 -33 -7q-5 5 -5 66zM207 87q3 0 9.5 5t8.5 5q36 54 46 64v16 q13 13 39 33q5 10 10 13q3 5 13 10q0 8 2 13q20 28 52 46q8 8 7 15q13 8 21 21q3 3 5 6.5t5 5.5q3 8 15 13l31 31l33 33q44 44 57 49l10.5 10.5t10 12.5t12.5 20.5t10 25.5q-3 3 -13 4t-12 1l-16 16q-21 -3 -41 12q-5 3 -41 3q-5 0 -23 1t-20 -4q-15 -28 -16 -33l-19 -19 t-22 -19q-8 0 -17 -11v-12q-20 -26 -39 -29q-3 -3 -10.5 -15.5t-12.5 -17.5q3 -10 -5 -23l-8 -13l-15 -30q0 -15 -7.5 -36t-10.5 -28q-10 -10 -15 -18v-31q0 -5 -8 -18t-8 -26l-10 -20q-5 -15 -3 -26q-15 -41 -5 -56zM241 38q0 -8 21.5 -5t26.5 3l77 15q3 3 8 6.5t10 6.5h15 q3 0 7 6.5t9 6.5q3 3 13 2q20 20 48 29q3 3 5.5 7.5t7.5 7.5q3 0 6.5 1t6.5 1q61 54 64 57q5 0 10 2q8 5 18 16.5t18 17.5q5 8 15 19t13 16q5 10 5 13l15 16v25q15 15 32 42t9 61q-3 5 -6.5 16.5t-5.5 16.5l-11 10q-5 5 -7 10l-3 3l-5 5q-8 15 -13 15q-13 -5 -25.5 -21.5 t-12.5 -34.5q-44 -36 -51 -38q-8 -10 -26 -25.5t-23 -23.5q-3 0 -3 -3l-2 -5l-14 -14t-12 -11q-15 -26 -25 -34q-15 -5 -21 -10v-15q-5 -5 -10 -13t-10 -10l-13 -8q-10 -8 -41 -45t-54 -50q-15 -23 -18 -28l-2 -5v-5q-5 -8 -23 -22t-23 -27z" />
<glyph unicode="1" horiz-adv-x="258" d="M46 13q0 3 4 10.5t6 12.5q0 5 -1 14t-1 14q0 28 5 79q0 44 10 57q3 10 5.5 43t9.5 46q3 15 4.5 45t3.5 45q3 10 8 25l8 54q0 5 5 23t5 26q-3 8 -10.5 16.5t-7.5 14.5q5 28 5 92q3 3 10.5 20.5t17.5 25.5q-3 20 16.5 33t37.5 0q3 -3 5.5 -9t4.5 -9q3 -5 8 -13l5 -7 q0 -51 10 -72l-5 -5q-5 -8 -5 -13q3 -13 -5 -32t-8 -22q-3 -5 -5.5 -11.5t-2.5 -8.5q0 -5 -3.5 -11.5t-3.5 -9.5q-3 -8 -3 -24.5v-23.5q0 -5 -5 -11.5t-8 -11.5q0 -15 -12 -113q0 -13 -3 -37t-3 -40q-8 -10 -12 -84q0 -3 6 -10.5t6 -15.5v-20q0 -5 3 -10.5t3 -7.5 q3 -5 -1.5 -18t-4.5 -18q0 -26 -2 -36q0 -5 -4 -10t-4 -10v-13t-2 -13q-8 -26 -28 -36q-28 -13 -62 36v54z" />
<glyph unicode="2" horiz-adv-x="678" d="M46 -33.5q0 15.5 11.5 33.5t14.5 28q3 0 13 10.5t23 12.5q5 8 25 21q5 5 10 5q5 3 17 4t17 3q3 0 14 6.5t19 6.5q31 26 38 36q3 15 15.5 30.5t15.5 28.5q13 13 29.5 45t26.5 45l16 30q0 8 5 27t8 30q0 5 2 18q3 26 -13 35q0 18 -18 54q-13 15 -33 26q-5 5 -20.5 11.5 t-22.5 13.5q-15 0 -32 11.5t-27 14.5l-11 -5q-13 -8 -23 -5q-5 -3 -12 -11l-6 -10q-36 -15 -53 -10q-20 15 -23 33q0 5 7.5 15.5t7.5 18.5q15 10 23 12q10 20 28 39q15 0 36 10q13 3 41 -20q5 -3 13 -4.5t13 -1.5q3 0 9 -5t8.5 -7.5t10 -2.5h10.5q10 -5 27 -15.5t27 -15.5 q5 -8 30.5 -25.5t33.5 -35.5l5 -10q0 -3 4 -9.5t6 -11.5v-31q0 -10 5 -33t3 -31q0 -5 -5 -17q-3 -5 -3 -11q-5 -59 -13 -64q0 -3 -1 -10.5t-1 -12.5q-3 -3 -8 -9t-5 -9q-3 -23 -31 -56q-5 -18 -23 -41t-23 -33q5 -18 41 0q10 0 16.5 -6.5t13 -15.5t14.5 -14q23 -3 71 -3 q3 0 8 -6t10 -6q8 0 95 -16q18 0 27 -1t19 -6.5t10 -15.5q0 -3 -18 -13q-5 0 -20 -7h-44q-41 0 -64 -3h-33q-5 0 -11.5 5t-8.5 5q-23 5 -65.5 4t-65.5 1q-13 8 -18 11q-8 -3 -16.5 -0.5t-14.5 2.5q-8 -3 -19 -14t-19 -14l-31 -15l-48 -44q-8 0 -13 -2q-3 0 -6.5 -5.5 t-8.5 -7.5h-47q-15 20 -15 35.5z" />
<glyph unicode="3" horiz-adv-x="706" d="M44 -146q-3 8 4.5 20.5t7.5 17.5v59q15 18 39 39q36 0 46 13q10 3 24 10t17 7q5 -3 29.5 1.5t26.5 -6.5q-3 -10 -13 -15t-20 -8q-36 -31 -46 -53q-15 -10 -26 -26q-15 -26 -15 -31q3 -10 20 -10q5 0 10 5q5 8 8 8q5 3 16.5 2.5t17 2t14 6.5t11.5 4q13 -3 27 7.5t24 10.5 l31 15q36 23 46 29q26 26 31 28q10 0 13 2q5 5 14 10.5t14 7.5l7 8q3 3 6 2h7q8 5 20.5 22t20.5 22l16 8l12 18q3 3 5.5 5t5 2t2.5 5l3 6l10 10l2 5q3 5 6 5q3 5 11.5 11.5t8.5 9v6.5t2.5 6.5l7.5 7.5t8 10q-3 10 15 28v26q-10 15 -30 28q-5 10 -11 10q-8 0 -13 2.5 t-15 13.5q-10 5 -13 5q-10 10 -30 10q-5 5 -22 14t-22 17q-23 3 -50 -6.5t-37 -9.5h-25q-49 -5 -59 6q-3 10 -3 30q15 20 26 23q20 -3 38 7.5t31 10.5q15 8 37 29.5t29 27.5q3 0 5.5 1t5.5 1q38 31 59 64q3 3 10 9t13 12q0 8 7.5 16.5t9.5 13.5q-18 44 -97 49l-20 10h-41 q-10 0 -28 -6.5t-29 -3.5q-10 0 -28 8q-10 -5 -31.5 -9t-27.5 -4q-5 -3 -15 -6.5t-15 -6.5q-10 -5 -28 -31q-18 -5 -24 -12q-5 5 -30 17q-8 18 -5 36q13 15 47.5 38.5t39.5 25.5q8 0 25 18q33 -3 67 5q5 0 15 -2.5t18 -2.5q5 0 11.5 5t9.5 8q23 8 48 -13q15 -3 47.5 0 t42.5 -2q33 -15 41 -16l8 -8t7 -5q20 0 32 -8.5t21 -30.5t14 -27q0 -46 -13 -56q-5 -5 -5 -13q-46 -59 -54 -64q-8 -15 -28 -36q-5 0 -36 -23v-11.5t3 -6.5q3 -8 20 -8h13q3 0 8 -5t10 -7h5q5 -3 8 -3q18 -13 30 -15l62 -52q5 -8 16.5 -21.5t16.5 -24.5q5 -23 -13 -84 q-5 -3 -12.5 -14.5t-15.5 -16.5q-8 -20 -34.5 -51t-34.5 -46q-18 -8 -41 -31t-33 -31q-13 -3 -29.5 -15.5t-27.5 -14.5q-10 -10 -37 -27t-39 -30q-3 -3 -13 -2q-26 -28 -77 -44q-3 0 -9 -5t-9 -8q-18 -3 -51 -2l-23 -15q-8 0 -46.5 -1.5t-43.5 3.5q-10 3 -20 17t-10 24z M148 553z" />
<glyph unicode="4" horiz-adv-x="727" d="M44 241q-5 41 2 71q0 8 5 19.5t5 21.5q3 5 8 11.5t5 9.5q0 13 4 23t14 21.5t13 14.5q0 8 2 12q54 54 67 64q54 8 67 -2v-21q-5 -5 -19.5 -19t-24.5 -19q-10 -8 -24 -31t-22 -30l-15 -31v-31q-3 -3 -9.5 -8t-6.5 -7q3 -10 3 -29.5v-27.5q3 -8 18 -12.5t18 -10.5 q10 0 15 -2q3 -3 8 -5.5t7 -4.5q77 -10 118 2q13 -3 32 3.5t30 6.5q5 3 16.5 9.5t16.5 11.5q-3 18 15 41q3 5 3 15q3 5 6.5 10.5t3.5 7.5q0 5 15 36q0 3 1.5 9t3.5 9q0 3 8 13t5 20q3 5 8 11.5t8 9.5v23q0 3 7.5 11.5t4.5 18.5q3 5 16 17t15 19v21q0 5 5 10l7.5 7.5t2.5 6.5 t3 6l5 6q5 5 5 10q3 5 3 15q0 5 6.5 11.5t6.5 9.5q0 8 2 12q8 13 28.5 33.5t28.5 30.5q5 0 10 6q3 0 5 5t5 7q10 8 27 5.5t22 -12.5q-3 -20 -27.5 -47.5t-26.5 -52.5l-13 -13q-3 -8 -2 -15q-13 -13 -16 -31q-23 -31 -28 -33v-26q-18 -28 -15 -46q-15 -28 -16 -33 q-8 -5 -16.5 -18t-11.5 -16q3 -23 -15 -41q3 -10 -16 -33q5 -36 -10 -48q-3 -13 -18 -37.5t-15 -44.5l-8 -8t-7 -8l-16 -30v-23q0 -3 -7.5 -14.5t-7.5 -21.5q-10 -10 -23 -33.5t-21 -33.5q0 -8 -9 -22t-6 -29l-15 -15q3 -13 -6.5 -26t-9.5 -21q0 -3 -5 -7.5t-8 -7.5v-13 q-3 -3 -9 -7.5t-6 -7.5v-15l-13 -13q-10 -20 -23 -21q-3 0 -23 21v36q18 28 16 38q0 3 5 8q5 3 7.5 8t2.5 19v19q3 5 8 10t5 8q0 10 2 15q5 13 26 38q0 8 10 23.5t8 30.5q5 10 13 18q0 13 10 31t10 25q-5 8 -16.5 8t-28 -4t-24.5 -4q-3 0 -8 -3.5t-10 -6.5q-44 0 -59 3 l-20 10q-8 3 -28.5 4t-25.5 1q-3 0 -12 6.5t-16 6.5q-15 8 -30.5 37.5t-20.5 34.5z" />
<glyph unicode="5" horiz-adv-x="768" d="M49 374q-3 13 2 28l8 15q3 3 2.5 13t-0.5 12.5t9 13t7 18.5q0 5 5 12l8 6q-3 8 3.5 23t6.5 20v26q3 10 10.5 15t19 11.5t16.5 11.5l13 26q5 5 43 5q5 0 9 6.5t9 8.5h26l15 15q18 0 64 6.5t74 6.5q13 0 42.5 -1t44.5 -1q5 0 13 2.5t10 2.5h87q44 3 95 -5q3 -5 14.5 -9 t16.5 -12q0 -10 -10 -20h-16q-3 0 -20 -13q-8 0 -26 1.5t-28 -1.5q-26 -5 -33 -5q-15 5 -23 5q-10 -3 -23 -15h-172q-8 -3 -23 -8t-25 -8q-31 0 -39 -7q0 -3 -1 -16t-4 -18q-10 -5 -43.5 -2.5t-40.5 -4.5v-18l-31 -46q-20 -13 -28 -29q0 -15 -9 -31.5t-4 -29.5 q15 -10 38 -20h110q31 0 41 2q3 3 15.5 8t20.5 7h16q5 3 11 7t9 4q36 0 46 12q77 10 126 0q5 -5 25 -30q3 -23 10 -36q0 -64 -53 -118q3 -15 -7.5 -30.5t-13.5 -23.5q-5 -5 -30.5 -26.5t-38.5 -37.5q0 -3 -1.5 -6.5t-1.5 -5.5q-8 -8 -23 -24.5t-23 -24.5q-18 -18 -64 -54 l-18 -13q-5 -5 -5 -10q-13 -5 -12 -8q-8 -3 -8 -7l-10 -5q-5 0 -11.5 -5.5t-11.5 -7.5l-59 -59h-11q-5 0 -10 -5q-5 -8 -7 -8q-3 -3 -6 -2h-5l-15 -16q-18 -5 -49 0q-18 13 -20 23q-3 15 7.5 30.5t7.5 31.5q3 3 16 56q0 3 5 8l7 7q0 10 3 16q3 8 13 18l12.5 12.5t2.5 5.5 q3 5 3 7q5 5 5 8q15 20 46 44q5 0 10 5t16.5 12.5t16.5 12.5q33 8 39 -7q0 -18 -13 -31q-8 -3 -18 -12t-15 -11l-3 -5q-3 -8 -5 -13q-10 -18 -23 -33q-13 -13 -21 -23q-18 -28 -5 -41q10 -3 18 6t16 9q18 18 25 28q13 5 41 26q5 3 14 11.5t12 11.5q13 15 28 25q15 15 26 21 q44 44 66 64q0 3 2.5 8t2.5 7l5 5l5 5q3 5 9.5 17t11.5 17q0 5 5 9t5 6l31 46q0 8 6.5 17t6.5 11q0 26 -3 31q0 5 -12.5 6.5t-25.5 -3.5q-10 -5 -16 -11q-8 -3 -24.5 -4t-23.5 -3q-10 -5 -18 -8q-5 0 -14 -1.5t-12 -1.5q-5 -3 -11.5 -7.5t-8.5 -4.5q-18 0 -44 -16 q-18 0 -75.5 -2.5t-72.5 2.5q-5 3 -10.5 9.5t-7.5 6.5q-31 -5 -39 12q-10 3 -38 26q-3 13 -15 31z" />
<glyph unicode="6" horiz-adv-x="593" d="M46 131q-13 54 0 56v38q0 5 4 11.5t4 9.5v26.5t2 29.5l13 21q-3 18 15 41v15t3 15q0 5 5 10t5 8t1.5 9.5t3.5 11.5q5 5 8 10q3 3 5 13q8 10 13 12q0 10 3 16q3 3 7.5 6.5t4.5 6t1.5 6.5t3.5 6q15 26 52 67q3 3 2 5q3 5 3 8q5 3 15 18l5 2q5 3 5 5q3 3 8 13l8 8q0 3 1 6.5 t4 6.5q0 3 9 10.5t11 12.5h11q18 13 51 46q3 3 7 10q5 5 11 5q10 10 13 10q13 5 24 -5t9 -25q-3 -3 -9.5 -13t-8.5 -18q-13 -18 -13 -21q-72 -77 -74 -84q-10 -13 -23 -25.5t-27 -29.5t-22 -24q0 -10 -8 -23q-5 -5 -5 -8t-1 -10.5t-4 -10.5q-3 -5 -8 -8.5t-5 -6.5 q0 -10 -2 -15l-10 -11q0 -3 -1.5 -10t-3.5 -10l-11 -10q-13 -26 -15 -28q0 -15 -10.5 -38.5t-7.5 -46.5q0 -3 -5 -8t-5 -7v-27t5 -30q15 0 25 16q5 3 9 9t9 9q13 -3 22 7.5t19 10.5q38 36 69 56q10 3 43.5 1.5t44.5 3.5q10 -5 37 -5t39 -3q5 0 13 -6t13 -6q3 -3 5 -6l5 -5 q10 -5 13 -2q8 -15 38 -39q3 -10 18 -30v-87q-3 -13 -13 -21q-3 -18 -18 -42t-17 -30q-26 -13 -26 -25q-33 -38 -100 -82h-15.5t-15.5 -3l-23 -15q-33 -3 -66 13q-8 0 -26 2.5t-28 2.5q-3 0 -11.5 6.5t-16.5 6.5q-5 5 -49 30q-18 18 -25 29q-3 0 -7 1t-6 1q-5 5 -13 18 t-13 18v54zM131 59q18 -18 28 -31q26 -31 51 -28l31 -31q64 -5 151 31q10 15 23 18q8 10 23 28t18 21l2 5l3 5q5 5 9 15t6 16q0 3 8 10q3 10 1.5 32t0.5 32q-8 13 -41 41q-8 -3 -17.5 3.5t-12.5 6.5q-15 5 -52.5 4t-60.5 1q-3 -5 -11.5 -10t-11.5 -8l-13 -10q-10 0 -15 -2.5 t-13 -13t-13 -12.5q-13 -13 -18 -16q-10 -5 -12.5 -7.5l-7.5 -7.5q-5 -10 -8 -13q-10 -5 -18 -10q-10 -23 -30 -49v-20z" />
<glyph unicode="7" horiz-adv-x="645" d="M46 584q0 3 18 20q5 0 11.5 4t11.5 6.5t18 5t15 2.5l23 15h77q5 3 10 8q5 3 8 5h38.5t40.5 3q31 15 77 15q38 13 46 13l16 15q10 -3 21.5 5t14.5 8q10 3 31.5 1.5t34.5 1.5q13 -8 27 -21t14 -31q3 -10 0 -30.5t-3 -27.5l-15 -16q0 -8 -2 -13q0 -3 -11 -12q0 -8 -2 -13 q-13 -13 -16 -21q-3 -5 -9 -12.5t-9 -12.5l-10 -26l-13 -13q-3 -3 -6.5 -14t-5.5 -14v-8t-3 -7q-5 -8 -20.5 -29.5t-22.5 -32.5q0 -3 -1.5 -6.5t-1.5 -5.5q-8 -8 -20.5 -30t-23.5 -32v-13q-20 -20 -30 -28v-15q-56 -69 -62 -80q-10 -5 -10 -7q-5 -10 -2 -16q-38 -44 -47 -64 l-12 -12q-3 -13 -16 -29.5t-15 -29.5q-5 -5 -24.5 -34.5t-34.5 -42.5q0 -10 -3 -13q0 -3 -5 -8l-7 -7q-3 -10 2 -23q5 -10 5 -16q-15 -33 -48 -25q-33 26 -31 43q3 5 10 18q3 5 3 16q18 18 15 30q5 5 14 16.5t14 17.5v12q10 10 23 32t21 30q-3 13 13 33q15 23 18 26 q5 18 46 59v12q3 5 7.5 10.5t4.5 8t1.5 5t1.5 5.5q13 18 74 92q5 20 41 61q3 10 10.5 21.5t7.5 19.5q8 10 33.5 48.5t40.5 59.5q0 10 3 10q0 3 6.5 13t6.5 18l15 15q0 10 3 15l10 11q8 18 18 35l7 16q-3 15 -33 10q-8 -3 -13 -3q-5 -3 -11.5 -7.5t-8.5 -7.5q-3 0 -9 -1 t-12 -1q-3 0 -9 -5.5t-11 -7.5q-10 -3 -41 -3q-15 -8 -55 -13t-55 -12h-22t-19 -3q-10 -8 -25.5 -10.5t-36 -2.5t-30.5 -2q-20 -13 -39 -16q-5 0 -10 -6.5t-10 -6.5q-10 0 -24 18t-12 34z" />
<glyph unicode="8" horiz-adv-x="637" d="M46 46q-3 26 10 44q0 10 11 23l10 15v18q0 3 7.5 13t5.5 20q10 5 20 23t18 23l10 5q5 3 23 21t31 23q8 8 13 10l10 5q5 3 13 10.5t13 12.5l25 26l16 15q3 5 -6 16l-5 12q-15 10 -20 23l-10 11l-3 5l-2 5l-54 61q-3 5 -9.5 13t-8.5 16q-5 8 -15.5 18t-12.5 15q-3 3 -3 10 q-13 18 -13 21v41q15 20 28 28q10 15 39 43h13q13 10 64 16q5 0 17.5 5t18.5 5q10 3 69 2q22 3 71 -2q15 -10 28 -13q3 0 9.5 -6.5t11.5 -6.5h26q5 -5 31.5 -23t32.5 -33q0 -13 7 -28l8 -16q0 -8 -7.5 -19t-7.5 -24q-10 -23 -13 -31q-10 -13 -23 -25.5t-32 -29.5t-30 -24 q-3 0 -5 -3h-5l-28 -28h-15q-15 -13 -44 -51q0 -3 -5 -9.5t-5 -8.5q-3 -10 6 -21.5t9 -19.5q33 -44 28 -77q10 -10 13 -17.5t-2.5 -19t-5.5 -17t1.5 -15.5t1.5 -15q0 -10 -5 -25.5t-5 -23.5q-23 -38 -100 -95q-8 0 -20.5 -10t-28.5 -8q-5 0 -11.5 -6t-8.5 -6q-41 -5 -80 0 h-33q-5 0 -15 9t-18 6q-5 5 -14 11.5t-15.5 13t-9.5 13.5zM120 46q10 -13 26 -23q13 -3 113 -3q3 0 10 8t18 8q46 36 66 69q5 13 21 28q0 46 -3 72q-5 8 -14 24.5t-14 23.5q0 10 -8 21q-3 5 -2 8q-5 20 -13 20q-28 -23 -46 -31q-3 0 -5 -5l-3 -5q-5 -3 -10 -8 q-10 -10 -67 -56q-13 -10 -28 -36q-20 -28 -23 -33q0 -5 -9 -15.5t-9 -15.5v-51zM179 594q0 -5 10.5 -13t7.5 -15q46 -54 56 -77q8 -3 18 -18q5 -3 11.5 -13t11.5 -13q41 -49 46 -51h8q44 38 51 41q3 0 5.5 1.5t5.5 1.5q54 54 69 82l28 28q20 31 13 59q-3 3 -12 10.5 t-14 12.5q-13 0 -18 2q-13 13 -95 18q-18 13 -56 8q-8 -5 -23 -13q-31 0 -33.5 -5t2.5 -10t5 -10q-5 -5 -14 -6.5t-24 -1.5h-23q-5 -3 -13 -3q-23 -5 -23 -15z" />
<glyph unicode="9" horiz-adv-x="563" d="M43.5 556.5q0.5 29.5 2.5 39.5l10 11q0 3 3 7l2 6l26 25q20 15 26 26q5 0 30 13q20 0 46 15q13 -3 37.5 3.5t34.5 6.5q95 -13 118 -10q36 -23 41 -36q3 -5 0 -22.5t5 -20.5q5 5 11.5 15t8.5 13q0 10 4 19t10.5 18t8.5 14q18 3 23.5 2.5t17 -10.5t13.5 -13v-38 q0 -3 -6.5 -9t-8.5 -11v-16q-15 -31 -15 -33q-3 -3 -7 -9l-6 -9q-3 -5 -3 -15l-5 -6q-5 -8 -5 -12q-3 -8 -9 -21t-9 -18q0 -26 -3 -41q0 -5 -5 -7.5t-5 -7.5q-3 -5 -2 -18l-8 -8t-8 -10v-18t-2 -15q0 -5 -5 -13q-5 -3 -6 -5q-3 -5 -2 -15l-15 -31q0 -3 -4 -9.5t-6.5 -11.5 t-2.5 -16.5t-3 -16.5q0 -3 -5 -9t-5 -8.5t-1.5 -10.5t-3.5 -10q0 -3 -8 -22t-5 -32q-13 -18 -13 -21q0 -5 -15 -46q-3 -3 -3 -10.5v-12.5q0 -3 -5 -7.5t-7 -10.5v-20q-3 -3 -8 -13t-7.5 -19t-2.5 -19q0 -3 -5.5 -9.5t-7.5 -11.5v-18q-8 -8 -15.5 -27t-12.5 -24 q0 -23 -2.5 -28t-8.5 -10q-3 -5 -5 -8q0 -10 -5 -10q0 -5 -5 -11.5t-5 -9.5q-3 -8 -1.5 -25.5t1.5 -25.5q-3 -5 -8 -12.5t-5 -15.5q0 -23 -8 -28q-3 -3 -15.5 -4t-17.5 1l-2 3q-5 3 -5.5 63t-0.5 70q3 5 8 11.5t8 8.5q0 10 2.5 15.5t7.5 13.5l5 7v15.5t3 15.5q13 20 13 23 q-5 20 12 49q5 20 13 25q0 5 2.5 13t2.5 13q3 5 8 10t8 10q-5 31 12 52q0 10 3 19t6.5 18t6.5 14q3 3 2.5 10.5t-0.5 12.5l5 13q8 13 6 23q10 10 15 18q0 3 1.5 11.5t1.5 13.5l7 15q8 13 5 26q3 3 9.5 9t8.5 12q-3 18 5 42t8 39q15 20 18 34q0 3 5 8t5 10q-5 10 -28 -5 q-20 -10 -26 -16q-8 -3 -30 -18h-33.5t-38.5 -5q-28 0 -84 5q-5 5 -17 11.5t-17 9.5l-10 15l-5 3q-3 5 -5 7l-16 23q3 8 -7 21q-5 8 -8 10q-3 10 -2.5 39.5zM120 512q5 -8 44 -33q36 -5 64 -5q15 0 43.5 17.5t48.5 15.5q3 0 6.5 5t6.5 5q15 10 37 33t29 31q0 5 9 13t7 15 q0 5 -9 4t-12 -1q-5 5 -16.5 15t-13.5 13h-121q-10 0 -32 -7.5t-37 -5.5q-28 -20 -33 -23q0 -5 -21 -31q-5 -31 0 -61z" />
<glyph unicode=":" horiz-adv-x="481" d="M54 -90q-5 10 4 27t9 27q5 5 11 23t14 26q3 18 18 39.5t18 26.5q15 20 46 29l15 15l18 15q18 18 29 23q5 3 12 3q38 15 46 12.5t17 -15.5t6 -23q-3 -5 -7 -10q-3 -5 -5 -8q-8 -20 -11 -25q0 -3 4 -13t4 -15q0 -3 -9 -13t-6 -18q-3 -8 -15.5 -19.5t-15.5 -24.5 q-5 -8 -20.5 -16.5t-17.5 -11.5q-3 -8 -8 -18q-15 -8 -64 -51q-8 0 -10 -3q-3 0 -8 -5t-10 -5q-28 -5 -39 0q-18 5 -25 28zM169 509v39q20 26 31 54q5 8 16.5 18t16.5 17q20 8 28 31l14.5 14.5t13.5 24.5q38 44 82 66q31 1 44 -2q31 -31 20 -62q-3 -5 -11.5 -24t-16.5 -25 q-3 0 -3 -5v-7q-3 -5 -6.5 -10.5t-3.5 -7.5q-3 -10 -6.5 -18t-10 -15.5t-8.5 -12.5q-10 -18 -16 -18q0 -3 -5 -3h-8q-5 -5 -14 -20.5t-19 -24.5t-25 -11q-3 -3 -13 -15.5t-19 -21.5t-17 -9q-15 -3 -25.5 6t-20.5 23t-18 19zM173 20.5q-4 -7.5 6 -7.5q3 0 3 10q-5 5 -9 -2.5z " />
<glyph unicode=";" horiz-adv-x="419" d="M-102 -392q13 10 33 32t31 32q20 20 30 34q3 3 11 10q8 5 10 8q5 5 18 30q15 15 41 46q15 15 15 18l3 5q3 3 2.5 5.5t4.5 6.5t5 6l3 5q3 5 3 8t5 6.5t5 6.5q0 8 5 13q5 8 19 22t19 21q3 10 10.5 25.5t10.5 25.5q23 28 33 54q18 16 36 -2q13 -33 2 -62q-3 -5 -7 -10 q-3 -5 -5 -8q0 -8 -3 -10q-10 -10 -13 -15q-5 -13 -15 -49q-8 -10 -27 -35.5t-32 -38.5q-3 -8 -8 -21t-7 -23q-3 -5 -17 -17.5t-19 -20.5q-8 -5 -19.5 -19t-16.5 -20q-15 -31 -59 -64q-5 -5 -12.5 -14t-12.5 -14l-6 -2q-5 -3 -7 -5l-18 -23q-33 -13 -49 2q-10 33 -2 51z M46 353q-3 13 6 24.5t9 19.5q5 8 57 59q3 0 2 10l39 38q36 20 59 3q10 3 17.5 9t15.5 16.5t10 12.5q28 23 33 31q5 3 13 8t13 5q18 0 54 -31v-46q-56 -64 -72 -74q-15 -41 -54 -51q-3 -3 -7.5 -8t-10 -5t-28.5 -16h-13q-5 -3 -14 -9t-16 -9q-26 -20 -31 -20t-59 8 q-20 20 -23 25z" />
<glyph unicode="&#x3c;" horiz-adv-x="870" d="M54 228q-15 26 5 41q8 5 28 15l13 13l10 10q15 5 18 5q20 20 28 26q10 0 24.5 9t26.5 9q13 8 34 28q10 0 10 3q54 41 72 46q3 0 13 6t17 6q5 0 11 6l7 7q3 0 6.5 1.5t6.5 1.5q38 26 49 28q8 8 32 24.5t34 26.5q0 3 5 13q5 5 16.5 12.5t17.5 13.5q28 -3 48.5 33t50.5 25 q15 -8 11 -53q-3 -5 -14.5 -14t-14 -11.5t-5 -10.5t-5.5 -10q-10 0 -13 -6q-10 -5 -20 -23q-31 -26 -54 -33l-30 -31q-13 -5 -30 -16.5t-27 -13.5q-5 -3 -10 -8l-8 -8h-2q-5 -3 -8 -2q-13 -8 -37 -20.5t-42 -24.5t-31 -27q-10 0 -21 -8l-7 -7q-18 -3 -42.5 -23.5 t-44.5 -22.5q-13 -8 -13 -21q3 -5 13 -7h10q5 -3 11.5 -9.5t8.5 -6.5h26q10 -10 15.5 -12.5t12.5 -2.5q5 -5 18 -13t18 -13q8 0 23 -10t31 -8l8 -8t10 -5q13 3 23 -7q5 -5 7 -8q13 3 36 -15q8 0 10.5 -2.5t6.5 -5t6.5 -5.5t4.5 -3q5 -3 8 -2l5 -8q8 -5 13 -5h13q3 0 9 -5 t11 -7.5t13 -2.5h10.5t9 -5.5t8.5 -7.5q10 -3 26 -3q8 -8 32 -19t34 -22q10 0 24.5 -10t27.5 -10q5 0 10 -5t8 -5h12l15.5 -15.5t18.5 -15.5q8 3 23 13t23 13q5 -5 6 -14.5t-1.5 -23.5t-2.5 -19q-15 -15 -12 -51q-8 -10 -29 -20h-20q-15 10 -39.5 35.5t-39.5 35.5 q-26 0 -57 31q-10 -3 -31 13h-15l-15 15q-59 8 -105 44q-10 0 -13 2q-5 3 -9 8t-6.5 5t-7.5 1.5t-8 1.5q-3 3 -8 7.5t-10 4.5q-15 0 -28 13q-10 0 -26.5 9t-29.5 9q-8 8 -18 13q-10 3 -26 0q-5 3 -14 10.5t-16 7.5q-3 3 -14.5 13t-16.5 15q-5 0 -10 2h-3q-18 8 -38 26 q-13 3 -26 15q-10 0 -15 3q-3 5 -13 15h-28q-18 10 -23 21z" />
<glyph unicode="=" horiz-adv-x="757" d="M46 312q-5 15 0 28q15 20 21 34q26 10 35 18q10 3 39 2q20 -20 31 -28q5 0 30 -13q18 5 90 11q18 0 48.5 7.5t40.5 7.5q28 0 34 2q8 3 18 8q13 5 42 5t40 3q5 0 11 5t9 5q8 3 18 3h18q3 0 11.5 5t13.5 7h77q3 -5 13 -10t12.5 -7.5t2.5 -7.5v-8l8 -15q0 -5 -2 -10 q-5 -5 -6 -8q-5 -18 -10 -21q-10 -5 -24 12t-24 17q-38 5 -54 -16q-20 3 -46 -6t-44 -9q-3 0 -10.5 -5t-9.5 -8q-8 -3 -19.5 -3h-16.5l-26 -12h-53q-15 -3 -34.5 -9.5t-27.5 -6.5h-107q-26 0 -29 -7q0 -3 4 -9.5t2 -11.5q-13 -18 -34 -2q-5 3 -15 7l-8 8q-8 3 -28 1.5 t-23 3.5q-3 3 -4 8t-4 7q0 3 -5 8t-5 10zM74 56q-3 28 11.5 50t27.5 35q15 0 33 15.5t38 12.5l23 15q5 3 17 4t17 1t11.5 5.5t8.5 5.5q13 3 43.5 7.5t46.5 10.5q3 0 10.5 3.5t12.5 6.5q10 3 71 2q10 3 23 8t21 5q10 0 60 2.5t65 -2.5q3 0 18 -7h15.5t15.5 -3q18 -13 15 -23 q-3 -5 -18 -11.5t-17 -11.5h-54q-15 0 -51 -15q-95 0 -134 -16q-26 0 -35 -2q-5 0 -13 -5.5t-10 -5.5q-8 -3 -19.5 -4t-14.5 -1q-5 -3 -11.5 -6.5t-11.5 -6.5h-19t-19 -2q-8 -3 -21 -8q-23 -10 -41 -7q-10 -5 -28 -17t-23 -14q-3 -3 -10.5 -8t-9.5 -10q-3 -3 -9.5 -12 t-11.5 -11q-18 0 -23 20z" />
<glyph unicode="&#x3e;" horiz-adv-x="870" d="M49 -113q0 5 6 14t6 17q10 10 18 10q44 44 69 59q5 0 31 13q5 5 10 5q5 3 8 8q8 5 15 5q3 3 8 6.5t10 6.5q13 5 46 30q13 -3 31 16q5 0 36 15q5 3 13 3q5 3 9 6.5t6 3.5q20 5 23 15q8 0 31 18h28q5 0 13 8t18 5l43 44q5 3 16 2q3 0 6.5 5t8.5 8h92h19.5t20.5 1t14 7 q0 5 -4 11.5t-4 9t-5 2.5q-3 0 -5 2l-56 57q0 3 -5 2h-5q-3 3 -23.5 14.5t-28.5 21.5l-5 10q-10 13 -32 36t-32 36q-5 0 -9 2.5t-6 2.5q-31 41 -108 113q-8 0 -12 2q-10 13 -41 28q-10 15 -52 52l-5 15q-46 41 -51 61q5 18 28 36h44q5 0 11.5 8t8.5 8h38t36 -3q5 -13 18 -36 t16 -28q0 -20 -13 -33q-5 -3 -13 -5l-5 -3q0 -8 14 -18t14 -13q3 -5 12 -10t11 -13q8 -5 21 -18h10q5 -3 18 -15.5t20 -17.5q3 -3 3 -6.5t2 -6.5q23 -23 36 -30q13 -13 47.5 -55.5t57.5 -60.5l5 -2h5q31 -28 83.5 -80.5l73.5 -73.5q-3 -10 4.5 -20.5t7.5 -12.5q0 -8 -10 -28 q-26 -31 -66 -21q-5 0 -14 5t-14.5 5t-11.5 -5t-9 -5h-44q-5 -3 -11 -9t-9 -6h-11.5t-11.5 -2.5t-8 -7.5t-10 -5h-49q-31 -18 -38 -16q-5 -3 -9 -8t-6 -5q-10 -3 -25.5 -10.5t-26.5 -7.5l-12 -12q-3 0 -8 -1.5t-10 -1.5l-31 -15q-10 -8 -34.5 -21t-34.5 -20h-3q-5 -3 -7 -3 q-20 -13 -29 -13q-20 -20 -33 -30q-23 0 -25 -11q3 -13 41 -7l10 -5q5 -23 -5 -34q-5 -5 -23 -5q-3 0 -8 -5t-8 -5q-13 0 -33 -7.5t-26 -10.5q-44 -5 -89 0q-3 3 -15.5 13t-12.5 20z" />
<glyph unicode="?" horiz-adv-x="872" d="M48.5 796q-7.5 33 5.5 59l23 15q0 13 18 36q15 15 23 26q5 3 10 9t8 6q3 3 5 3q5 3 7 2q5 3 11.5 13t12.5 13q10 0 15 2q5 5 20.5 14.5t20.5 14.5q10 5 41 2.5t36 7.5q18 3 28 1.5t28 -6.5t26 -5h35q3 0 8 -5.5t8 -5.5q8 -3 22 -4t16 -1q5 -5 16.5 -12.5t16.5 -12.5 l16 -5l13 -13q28 -13 33 -18q3 -3 5.5 -6.5t2.5 -6.5q26 -44 25 -49q0 -3 -5 -10.5t-5 -9.5q-3 -5 -3 -13q-3 -5 -9 -9t-6 -6q0 -10 -9 -22t-9 -22q-28 -36 -54 -56q-8 -18 -20.5 -33.5t-30.5 -32t-25 -26.5q-3 -3 -3 -13q-10 -10 -27 -37t-29 -40q-18 -36 -29 -46 q-3 -20 -15 -28q-3 -13 -9 -24.5t-9 -16.5q-44 -38 -25 -120q3 -8 28 -29l7 -7q3 -3 8 -3t8 -2l5 -5q3 -5 5 -8h31q5 0 15 -5t15.5 -5t15.5 2.5t15 2.5t14 -2.5t14 -2.5q54 0 64 -8q3 -3 11 -18q-3 -15 -23 -28q-3 0 -7 -4t-6 -4q-5 -3 -19.5 -5t-19.5 -8q-41 -10 -110 -5 q-5 5 -21.5 13t-21.5 15q-3 0 -10.5 1.5t-10.5 1.5q-3 3 -36 28q-5 13 -7 13l-26 26q0 8 -8 12q0 3 -3.5 7t-3.5 6q-10 8 -2.5 60.5t7.5 59.5q20 46 36 64q-3 10 10 21q5 5 5 7.5v6.5t3 4q3 5 7.5 11.5t7.5 8.5l13 13q0 3 1 6.5t1 6.5q26 31 29 46q5 8 20 29.5t23 31.5 q0 3 3 8v5l115 123q3 5 2 13q21 25 41 56q-5 10 -20 26h-13q-5 8 -16.5 15.5t-16.5 12.5q-5 0 -31 13q-13 0 -37 7.5t-39.5 10t-42.5 0t-37 -2.5q-5 0 -14 -5t-17 -8q-69 -51 -82 -69q-5 -15 -25 -36q-20 0 -26 -7q8 -18 0 -36t-23 -23q-31 0 -38.5 33zM133 812h5v-6 q-10 0 -5 6zM279 -128q-5 18 5 39.5t10 32.5q15 15 18 30q26 18 36 21q13 0 46 -21q5 -15 0 -28q-3 -3 -14 -6.5t-14 -11.5q5 -13 -13 -46v-13l-20 -20h-31q-5 3 -12.5 11.5t-10.5 11.5z" />
<glyph unicode="@" horiz-adv-x="1239" d="M46 33v54q0 69 10 82q0 26 15.5 56.5t15.5 53.5q8 8 17 24.5t14 21.5v18l15 31q0 3 4 8t6 7q0 3 1.5 8t3.5 7q0 3 5.5 8t5.5 8q15 23 18 25q3 8 7.5 17t4.5 12q3 3 3 12q3 3 13 17t15 19q15 36 62 87v16q13 13 35.5 36t35.5 35q10 20 25.5 39.5t37.5 41.5l32 32 q10 3 20.5 10.5t17.5 7.5q44 44 57 49q20 0 53 23h22t24.5 1t15.5 6q8 0 18 -5q8 -3 28 -1.5t28 -0.5q5 -3 10 -8q3 -5 5.5 -5t12.5 -5q8 -8 23 -16q8 -10 26 -28t30.5 -33.5t23.5 -32.5q3 -3 8 -6.5t5 -6.5q-5 -18 6 -38.5t9 -35.5q3 -5 8 -11l7 -7v-36q3 -8 16 -21 q10 -44 -11 -61q-5 -28 -5 -87q0 -3 -5 -8l-8 -8q3 -13 -17 -51v-28q0 -3 -5.5 -8t-5.5 -7l-2 -5q-3 -3 -3 -6q-3 -5 -13 -16.5t-12 -13.5l-8 -16q-13 -13 -21 -18q-3 -3 -2.5 -6.5t-2.5 -5.5l-2 -3q-5 -3 -8 -5q-18 -18 -28 -26q-10 3 -21.5 -4.5t-14.5 -7.5q-5 -3 -20 -3 q-10 -5 -16 -5q-8 0 -13 5h-30q-13 -10 -40 -35.5t-42 -36.5l-10 -5q-3 -5 -16 -12.5t-15 -12.5q-13 3 -26 -11q-5 -3 -7 -5q-13 0 -16 -5q-5 -3 -10 -6.5t-8 -3.5q-18 -5 -79 0q-31 15 -54 49q3 10 -2 23q-5 8 -6 10q0 5 4 15t4 16q3 5 0.5 17.5t-0.5 20.5q3 5 8 11.5 t7.5 9t2.5 12.5v13t5 8t5 7q5 8 20.5 26t20.5 26q3 3 9.5 13t11.5 15v10q3 5 7 10l8 8q0 8 3 13q10 15 33 28q8 8 10 8l5 2l5 3l16 5q13 8 23 5q13 -13 48 -13q10 -10 6 -20q-3 -5 -10.5 -13t-10.5 -10l-38 -23q-3 -8 -13 -31q0 -3 2.5 -9.5t-0.5 -8.5q-10 -10 -43 13 q-5 -3 -6.5 -9.5t-3.5 -8.5q0 -3 -6.5 -12t-4.5 -19q-23 -26 -58 -82q0 -8 -3 -38.5t3 -38.5q15 -8 36.5 2.5t29.5 10.5q5 3 9 8t6 5q28 3 51.5 22t36.5 37q26 10 43 41q-13 38 5 107q0 3 2.5 12t2.5 14q0 3 5.5 6.5t5.5 6.5l2 5q3 5 5 5q3 3 6.5 10.5t6.5 12.5q8 10 27 27 t24 22q8 0 17 5t11 5q13 -3 29 -18q5 -10 10 -13q0 -5 2.5 -12.5t2.5 -10.5q5 -13 -1.5 -39.5t-6.5 -39.5q-15 -20 -13 -31q-3 -5 -7 -10l-8 -8q0 -8 -7.5 -15.5t-7.5 -15.5l5 -2q8 -3 13 5l5 5q10 0 15 5q3 0 23 36l28 28q8 33 31 62q-3 5 0 12.5t3 10t3.5 9t6.5 11.5 q5 120 2 174q-3 5 -7.5 10.5t-7.5 10.5q3 18 -12.5 38.5t-18.5 32.5l-13 13q-3 13 -12 23q-8 15 -13 21q-5 3 -10 7q0 3 -5 6l-6 2l-2 5q-3 5 -5 5q-8 0 -13 3q-20 15 -28 15q-3 0 -9.5 6.5t-11.5 6.5q-8 0 -15 -8q-5 -5 -10 -7q-20 3 -41 -6.5t-34 -9.5q-8 -3 -27 -22 t-37 -21q-23 -28 -61 -51q-5 -15 -25.5 -38.5t-25.5 -38.5q-13 -8 -28.5 -27t-25.5 -24q-20 -44 -90 -128q0 -8 -2.5 -13l-11.5 -23t-16 -23q0 -3 -1.5 -7t-1.5 -6q0 -5 -5 -10q-8 -5 -8 -8q0 -20 -15 -42t-15 -40q-26 -41 -29 -64q-3 -3 -7.5 -8t-7.5 -10v-31q-3 0 -5.5 -5 t-4.5 -7q-10 -36 -5 -116q3 -61 38 -97q8 0 13 -5q3 -3 11.5 -13t16.5 -13h18q15 -15 18 -15h233q5 0 14 6.5t14 6.5q8 3 31 1.5t33 0.5q5 3 10 8q5 3 8 5q10 -3 46 13q5 3 15 3q8 3 13 2q5 3 11.5 8t9.5 5h15q5 3 10 8t8 7h31q5 3 10 8q15 10 31 8q5 3 10 7q5 3 8 5 q10 -3 25.5 6.5t22.5 9.5q3 0 8 5l8 8q13 0 27 10t29 8q5 3 9 7.5t6 7.5h16q5 3 15 13q15 3 30.5 15.5t28.5 14.5q3 0 6.5 6.5t6 6.5h7.5t8 3l8 7q10 10 18 11q3 3 9 11.5t11 11.5q10 3 19 10.5t17 16.5t13 14q0 5 15 36q3 8 1.5 28t3.5 23q13 13 23 5q3 -10 3 -95 q-3 -5 -8 -10q-3 -5 -5 -8q0 -3 -1.5 -10.5t-1.5 -9.5q-10 -15 -31.5 -36t-29.5 -33q-15 -5 -61 -46q-5 0 -13 -6.5t-13 -6.5q-3 -3 -9 -3h-9l-8 -8t-10 -7q-8 0 -19.5 -9t-21.5 -7q-5 0 -9 -5t-9 -7q-8 0 -18 -8t-20 -10q-15 -15 -36 -16q-5 0 -10 -5t-10 -5q-3 0 -10.5 -1 t-12.5 -1q-5 -3 -11 -8q-5 -5 -7 -8q-13 3 -26 -6t-18 -9q-8 -3 -18 -13l-31 -15h-25.5h-25.5q-5 0 -10 -8t-10 -8h-31q-5 -3 -10 -7l-8 -8q-49 0 -64 -13q-28 0 -54 -15q-10 0 -40.5 1t-38.5 -4q-5 0 -15.5 -5t-12.5 -5q-5 0 -19 5t-22 5q-54 0 -85 3q-8 5 -25.5 12.5 t-25.5 12.5q-5 3 -20 3q-38 28 -82 87q0 8 -8 18t-10 15q0 3 -2.5 19.5t-10.5 21.5z" />
<glyph unicode="A" horiz-adv-x="686" d="M36 -148q5 5 20 30q0 10 1.5 18t4 18t2.5 15q3 5 8 10.5t5 7.5q5 23 28 46q0 8 15 29q-3 13 16 35q0 5 1 10.5t1 10.5q8 10 16 31l10 15q-3 13 -14.5 20.5t-13.5 12.5q0 5 1 14t1 12q15 18 51 47.5t52 44.5q8 33 28 46q0 10 7 21q5 5 8 7q-3 5 -1.5 14t1.5 12 q10 13 24.5 39.5t19.5 37.5q0 3 1 9t1 11q0 3 5 8t8 10q0 23 13 36l8 15q8 5 11.5 25.5t8.5 28.5q0 13 18 44q3 5 2 17q15 23 13 36q8 8 15.5 24.5t12.5 21.5q0 3 16 34q3 5 4 17.5t1 15.5t4 6.5t6 8.5q0 10 3 13q8 8 13 15v10.5t2 10.5q0 3 5 8t8 10q5 18 10 20q8 5 22 4 t22 -6q13 -10 9 -33.5t-14 -30.5q0 -8 -1.5 -22t-1.5 -23t-4 -18t-9 -14q-5 -72 -5 -100q0 -26 5 -97l8 -39v-25q0 -5 4 -19t4 -17q0 -67 2 -100v-2q5 -8 28 -8t26 -8q13 -20 0 -33q-3 -3 -22 -4t-22 -14q-5 -10 3 -29.5t8 -24.5q3 -8 3 -25.5t2 -25.5q10 -15 12 -23 q3 -5 3 -14v-14t5 -13t5 -10q3 -8 3 -41t13 -46q3 -10 4 -32t1 -30q0 -5 5 -21.5t5 -29.5q-3 -3 -10.5 -18t-17.5 -18q-13 3 -31 26v12q0 32 -13 70q-3 5 -7.5 11.5t-4.5 8.5q-5 10 -5.5 28t-2.5 26q0 8 -6.5 27t-3.5 32q-13 18 -13 20q-5 15 -5 45t-3 40q0 5 -5 9t-5 9 q0 31 -10 36q-13 3 -54 -13q-8 -3 -49 -3q-10 0 -26.5 -7.5t-27.5 -7.5q-18 -13 -38 -29.5t-31 -37.5q-5 -20 -30 -46q0 -13 -16 -28q3 -10 -15 -33q3 -10 -3.5 -24t-6.5 -17t-2.5 -9t-2.5 -9q-15 -31 -16 -36q-5 -5 -12.5 -18t-12.5 -18q-3 -8 -9.5 -16.5t-6.5 -11.5 q-3 -5 -7 -10q-5 -5 -8 -7.5t-3 -5.5q-3 -5 -2 -8q-3 -3 -8 -7q-18 -18 -10 -33q-18 -33 -33 -36q-13 0 -21 15zM348 325q15 0 41 5t36 5q8 5 32 9t32 7q5 12 5 36q0 15 -2 33q-3 13 -8 34.5t-5 29.5q-3 15 -3 54q0 18 -1 29.5t-7.5 24t-19.5 4.5q0 -49 -28 -94 q0 -3 -1.5 -6.5t-1.5 -6.5t-6.5 -12t-6.5 -19q-10 -10 -12 -18q3 -8 -6.5 -16.5t-11.5 -13.5v-26l-5 -5q-5 -8 -5 -13q0 -3 -3 -8l-3 -5l-7 -7q-10 -13 -3 -21z" />
<glyph unicode="B" horiz-adv-x="696" d="M44 -36q-3 18 6 33.5t9 22.5q31 44 41 54q3 3 25 18q13 13 18 16h21q5 0 10 5q5 8 8 7q3 3 6.5 3h6.5q3 3 7.5 8t9.5 7h44q8 5 11.5 15.5t6 26t5.5 22.5q0 8 1.5 21t1.5 18q5 5 12 20q0 5 1.5 22t4.5 24q0 3 3.5 10.5t3.5 10.5q3 10 3 33t2 31q0 5 5.5 11.5t5.5 11.5 q3 15 2.5 53.5t4.5 51.5l5 12q5 15 3 26q-3 8 -13 17t-10 14q0 10 10 31q3 5 6.5 11t6.5 12q0 3 -2.5 10t-2.5 10q0 26 31 31l17 -8q8 -8 18 -23q0 -10 3 -13q5 -15 5 -18q0 -5 -4 -12.5t-4 -15.5q3 -15 -2 -37t-5 -29q-3 -10 -0.5 -27t2.5 -25v-18q18 -5 44 34q15 5 36 30 q3 8 9 17t6 12l13 33v8t2.5 7.5l7.5 7.5t5 8q10 26 10 28v20q0 5 -5 15.5t-5 18.5q-10 20 -38 33q-8 3 -26 0t-28 -3t-30.5 2.5t-28.5 2.5q-5 0 -11.5 -3.5t-11.5 -3.5q-10 -3 -26.5 -3h-24.5q-51 -33 -59 -33q-10 -8 -26 -28q-28 -15 -74 -62q-3 -5 -2 -18 q-8 -13 -27.5 -12.5t-29.5 10.5q-5 23 0 41q0 3 10 13q3 8 8 17q26 41 64 70q5 3 13 2q5 5 20.5 15.5t20.5 15.5q10 0 15 2q3 0 5.5 4t5.5 4l5 3l5 2q5 3 15 13q5 3 13 3h10.5t9 5t8.5 5q13 0 36 6.5t36 6.5q5 0 15 -2.5t15 -2.5q72 -8 75 -8q8 0 20.5 -8t25.5 -5 q10 -8 54 -56v-26q16 -22 16 -55q0 -8 -1 -17q-26 -44 -31 -48v-5q0 -5 -2 -5q-33 -54 -41 -62q0 -8 -6.5 -18t-6.5 -12.5t31 -10.5q26 -13 35 -13q10 -10 26 -18q18 -13 51 -66q0 -8 1.5 -20.5t1.5 -20.5l-31 -46v-13l-46 -77q-3 -3 -49 -36q-10 -10 -29 -30.5t-36 -34.5 t-37 -24q-8 -5 -32 -23t-40 -23l-43 -36q3 -23 -13 -49q0 -84 3 -94q0 -5 6 -18t6 -23.5t-5 -15.5q-8 -5 -31 0q-3 3 -13 12t-12.5 14t-1 29.5t1.5 36.5q0 5 -5 13t-5 13q-3 8 2 20.5t5 15.5q0 13 -18 18q-3 0 -9 -5.5t-9 -5.5q-5 -3 -19 -4t-19 -1q-10 -3 -23 -7.5 t-23 -7.5q-31 -5 -36 -5q-15 0 -33 13q-5 3 -9 10.5t-6 9.5zM136 8q5 -3 12 2q5 5 11 5q3 0 15.5 1.5t20.5 3.5q5 5 17 11q31 0 36 5v48q-10 5 -23 -2q-7 -5 -10 -5q-20 -10 -43 -18q-3 -3 -16 -13t-19 -19t-1 -19zM333 92q15 -8 25 10q5 3 13 9.5t10 8.5q23 5 52.5 32 t45.5 32q8 10 32 31t34 36q3 26 34 56q13 24 13 50q0 13 -3 27q-3 3 -18 3q-10 18 -44 17q-10 10 -53 11q-69 -20 -72 -23t-8 -3t-7 -2q-10 -5 -13 -20.5t-3 -40t-2 -34.5q-5 -10 -8 -18q-3 -10 -4 -28t-1 -26q-3 -10 -9.5 -30.5t-6.5 -30.5q0 -26 -5 -36q-5 -23 -2 -31z " />
<glyph unicode="C" horiz-adv-x="645" d="M49 177v69q13 20 12 61q15 36 16 41q0 3 7.5 14.5t7.5 18.5q10 10 13 15.5t3 13.5q0 3 5 9t7 9q15 23 18 28q41 49 44 51q23 13 60 47.5t63 47.5q5 3 7 5q5 5 8 7q8 0 13 3q5 5 23 19t28 22q13 3 37 18t45 15q31 13 41 10q8 -3 18 -11.5t13 -21.5q-3 -8 -16 -15l-10 -8 q-28 0 -59 -31q-10 0 -15 -2.5t-22 -11.5t-22 -16q-44 -15 -71 -44l-6 -2h-5q-61 -61 -84 -72q-8 -8 -22 -26t-24 -25q0 -3 -28 -51q-3 -8 -16 -29q-18 -77 -18 -110q0 -51 3 -59q15 -31 15 -33q38 -51 82 -69q10 3 39 -15h23q5 -3 12.5 -8t10 -5t23.5 5q3 0 10.5 -1.5 t10 -1.5t11.5 4t14 4q5 3 23 3t28 2q5 0 10 5t10 5q10 3 25.5 3t23.5 3q5 0 13 7q3 5 5 5q8 -3 36 13q3 3 9 4t9 1q5 0 11.5 2.5t11.5 0.5q18 0 18 -13q0 -5 -8 -11.5t-10 -8.5l-16 -16q-5 -3 -16.5 -10.5t-24.5 -7.5l-15 -15q-8 0 -33 -13q-5 0 -25.5 -1t-28.5 -4l-38 -23 q-49 -8 -59 -13q-13 8 -51.5 9t-51.5 12h-12q-5 3 -9 9t-7 9q-8 3 -23 2q-26 18 -71 54q-8 18 -34 38q-8 13 -15.5 42.5t-9.5 37.5z" />
<glyph unicode="D" horiz-adv-x="778" d="M51 -15q8 15 51 59q10 3 25.5 13t20.5 12q3 0 19.5 5t24.5 4t8 -11q0 -5 -16 -21q-5 -5 -12.5 -10t-12.5 -8l-11 -2q-8 -5 -20 -18q-18 -18 -18 -21q0 -8 28 -7q5 0 15.5 -3t13 -3t11.5 1.5t14 1.5h38q51 5 70 31q-5 5 -1.5 24t3.5 22q0 23 3 33q0 3 5 9t7 12 q3 8 1.5 20.5t1.5 19.5q0 3 5 9.5t8 11.5q0 3 15 74q5 8 13 31t15 31q-3 15 16 48q5 49 12 57q5 49 18 61q-3 15 5 39.5t8 41t-18 27.5q-20 0 -25 5l-8 7q13 59 61 67q31 -3 52 -28q-3 -15 4.5 -51t-4.5 -41v-36t-5 -44q-13 -28 -11 -38q0 -5 -5 -10.5t-5 -10.5 q-3 -8 -4 -24.5t-1 -21.5l-15 -30q-3 -5 -7 -10.5t-6 -10.5q0 -20 -13 -33q0 -10 -5 -26q-8 -10 -13 -38t-13 -39q0 -15 -10 -40.5t-8 -46.5q-12 -30 -12 -47q0 -11 5 -17q10 3 25 16q8 8 13 10q3 0 10.5 1.5t10.5 3.5q8 3 21.5 10.5t24.5 10.5q3 3 10 7q10 13 18 13 q49 49 66 61q10 15 31 31q5 13 20.5 36t23.5 33q5 15 5 23q5 15 12 21q0 5 4 18t2 23q10 31 10 46t-8 48.5t-8 48.5q-3 5 -7.5 11.5t-4.5 9.5q0 10 -5 25q0 3 -6.5 13t-6.5 18q-5 8 -19.5 31t-21.5 30q0 3 -2.5 7t-2.5 6q-13 20 -42.5 47t-37.5 35q-31 13 -38 18 q-5 3 -13 10q-3 3 -11.5 4t-11.5 1q-5 0 -14 5.5t-12 5.5q-18 5 -56 5q-28 0 -51 -16q-3 -3 -13 -2q-15 -10 -38 -37t-28 -32q-5 -23 -31 -23q-13 3 -8 33q0 18 8 33q0 5 7.5 14t7.5 14q20 20 100 72l62 15h7q5 0 11.5 -5t11.5 -5q8 -3 23.5 -4t20.5 -1q3 0 10.5 -5t12.5 -5 q3 0 8 -2.5t7 -2.5l16 -8q3 -3 7.5 -3t7.5 -2q5 0 12.5 -7.5t15.5 -7.5q64 -64 95 -100q-3 -5 5 -13t8 -10q5 -5 5 -11q3 -5 7.5 -8.5t4.5 -6.5q0 -10 3 -15q13 -28 13 -34q5 -8 14 -20.5t11 -14.5q0 -5 3 -15.5t3 -15.5q0 -3 5 -10.5t5 -10.5l5 -20q8 -38 5 -44 q5 -31 5 -38q3 -23 -5 -60t-8 -50q-5 -10 -23 -38.5t-23 -46.5q-15 -20 -15 -25q-8 -5 -62 -59q-8 -8 -29.5 -27t-31.5 -32q-15 -10 -20 -15q-20 -10 -29 -16q-26 -8 -46 -20q-3 0 -7.5 -5t-7.5 -5q-3 -3 -9 -4t-9 -1q-3 -5 -13 -11q-41 -13 -43 -18q-5 -31 -31 -28 q-3 0 -10.5 5t-12.5 8q-23 8 -49 -13q-40 -4 -75 -4q-53 0 -96 9q-20 10 -26 18q-5 15 0 39z" />
<glyph unicode="E" horiz-adv-x="860" d="M51 -67q-6 28 -6 51q0 39 16 67q5 31 6 41q13 20 15 44q3 5 8 10t5 8q3 3 2.5 7.5t-0.5 7.5t5.5 8t5.5 7q0 13 2 18q15 28 13 39q3 3 15 41q18 26 16 41l7.5 12.5l7.5 12.5v33q3 5 13 18t15 23q0 8 3 13q0 5 5 10.5t5 10.5q0 13 2.5 21.5t9 20t8.5 19.5l6 5q3 5 5 8 q0 3 1 10.5t1 12.5q3 3 6.5 10.5t6.5 9.5q3 18 13 46.5t13 40.5q3 5 10 26q13 13 10 18q0 8 -16.5 17t-19.5 11q-13 18 16 46q41 20 46 26q8 -2 17 -2q21 0 49 8q40 12 51 12q5 0 13 -1.5t13 -1.5q8 3 15.5 9.5t15.5 6.5q13 -5 48 10q13 3 40 4t37 1q3 0 10.5 2.5t12.5 2.5 q10 -5 18 -8h54t51 -2q5 0 16.5 -5t16.5 -8q26 -13 29 -20q0 -10 -11.5 -14t-22.5 -4q-5 0 -10 -3t-8 -3q-10 -3 -28 0t-23 3q-61 -5 -100 -5h-30q-8 0 -30 -9t-37 -6l-31 -16q-46 0 -51 -13q-8 0 -15.5 -5t-12.5 -5q-44 0 -59 -8q-8 -13 -13 -46q-5 -5 -6 -15t-4 -15 q0 -5 -5 -16.5t-5 -14.5q0 -28 -3 -38q0 -3 -3.5 -8t-6.5 -10q0 -5 -2 -17t-4 -17t-7 -15t-5 -15q-31 -31 -26 -49q8 -3 16 5l5 8q13 -3 32 2t24 5t15.5 -1t13 -1t10 4t10 4t18 2.5t23.5 4.5q5 -3 20.5 -1.5t22.5 1.5q5 0 15.5 -2.5t15.5 -2.5t15.5 4t15.5 4q3 0 10.5 -4 t12.5 -4h12.5t12.5 -2q18 -3 29 -21q-3 -15 -21 -20q-10 -5 -33 -4t-33 -1q-5 -3 -21 -8q-20 -5 -72 -5q-3 0 -9 -5.5t-8 -7.5q-3 0 -7 1t-6 1q-10 -8 -33.5 -6.5t-35.5 -0.5q-10 -3 -24.5 -14.5t-21.5 -13.5q-13 0 -26 15l-8 8q-8 0 -20 -18q-3 -8 -31 -74q0 -3 -1.5 -12 t-3.5 -12q0 -5 -5 -12.5t-5 -12.5v-15.5t-2.5 -13t-6.5 -7.5t-7 -8q-10 -33 -15 -38v-15l-31 -46q3 -18 -13 -44q3 -10 -4.5 -24t-7.5 -17q0 -5 1 -9t1 -6q0 -5 -3.5 -14t-1 -17t22.5 -13q8 0 13 -2q5 3 13 5q10 0 15 2.5t10 9t8 6.5h18q3 0 8 5t10 5q5 5 13 5l12 13 q18 5 29 13q18 5 43.5 24t40.5 24q10 10 18 13q10 10 15 13l11 5q5 3 15 13q18 5 31 13q0 3 12 2q31 15 34 15l15 16q20 0 33 13q10 0 28 1t26 1q33 23 59 10q20 -5 26 -30q-3 -8 -13 -18q-3 -5 -5 -8q-15 0 -38.5 -7.5t-38.5 -7.5q-5 -3 -11.5 -9.5t-9.5 -8.5h-33 q-54 -31 -66 -41q-5 -3 -13 -3q-5 -5 -16 -10q-5 -5 -10 -7.5t-10 -7.5q-5 -3 -11.5 -5.5t-9.5 -2.5q-10 -8 -20 -28q-15 -3 -33 -14.5t-28 -13.5q-5 -3 -8 -8t-5 -5h-16q-3 0 -11.5 -6.5t-16.5 -8.5q-15 -13 -46 -34h-28q-3 0 -8 -3.5t-10 -6.5q-15 -1 -29 -1q-54 0 -76 16 z" />
<glyph unicode="F" horiz-adv-x="814" d="M44.5 -148q1.5 23 1.5 33q0 5 5 10t5 8q0 18 10.5 44.5t7.5 47.5q3 5 16 61q5 8 10 23q0 3 1 12t4 14l3 3q3 5 5 10q5 10 5 36q3 5 8 11.5t7 11.5q-5 18 0 38q10 15 13 23q0 5 0.5 16.5t4.5 16.5l10 21q0 3 1.5 9t3.5 11q0 8 8 16q0 3 2.5 10.5t2.5 9.5q13 31 13 41 q3 5 8 10t7 11q0 36 3 41q0 5 5 11t5 9v5q0 8 1.5 24.5t1.5 26.5q16 19 16 43q0 18 -9 39h-30q-8 8 -23 28q-3 13 6 24.5t9 16.5q3 3 11.5 10.5t14.5 12.5q3 3 2 6q0 5 3 5q10 5 12.5 7.5t5.5 7.5l2 3q3 0 15.5 5t17.5 10q3 3 12 13t14 15h5l5 3q10 10 36 28t36 28 q36 13 54 31q5 0 33 13q3 0 8 1t7 4q3 0 8 5t8 5q8 3 29.5 9t31.5 11q33 13 36 13q5 3 23 13h41t38 3q5 0 15.5 -1.5t13.5 -1.5l12 -21q-3 -5 -25 -20q-25 0 -28 -10q0 -3 2.5 -8t-0.5 -8h-15q-10 0 -34.5 -5t-39.5 -5l-44 -25q-8 0 -31 -16q-18 -5 -20 -7q0 -10 -6.5 -15.5 t-16.5 -2.5q-5 0 -13 -5.5t-15 -2.5q-26 -15 -34 -26q-10 -3 -21.5 -10.5t-19.5 -7.5q-8 -10 -30.5 -25.5t-30.5 -25.5q5 -31 2.5 -41t-10.5 -20v-39q0 -10 -6 -26.5t-9 -26.5v-23.5t-3 -20.5q-12 -14 -12 -61v-8q-10 -20 -13 -31q0 -10 -10.5 -30.5t-2.5 -30.5q5 0 7.5 9 t5.5 11q5 3 16.5 4t14.5 1q3 3 11.5 10.5t16.5 7.5q8 13 34.5 23.5t34.5 15.5q10 5 29 10t30 10q5 0 15 10q8 0 13 3q3 0 10.5 6.5t17.5 8.5q5 3 15 13h11q5 3 11.5 8t8.5 5q10 -3 23 10l8 8h7q5 3 19.5 17t27.5 14q8 5 24.5 14t23.5 14q8 0 18 6.5t15.5 6.5t20.5 2.5 t23 -0.5l5 -5q0 -13 -15 -36q-8 -10 -33.5 -24t-33.5 -27q-10 0 -19 -6.5t-16.5 -15.5t-12.5 -11q-8 0 -34 -11l-10 -10h-5q-5 -3 -5 -5q-5 -3 -16.5 -13t-16.5 -13l-16 -7l-2 -8q0 -5 -3 -5h-20q-3 -3 -13 -9t-18 -9l-8 -8q-5 -10 -10 -12q-15 0 -42 -11.5t-45 -9.5l-5 -5 q-10 -10 -23 -8q-5 -3 -9 -9t-7 -9q-20 8 -59 -2q-5 3 -14 17t-16 14q-10 -3 -10 -31q-18 -28 -16 -46q0 -3 -5 -9.5t-5 -8.5q-3 -8 -12 -29.5t-9 -39.5q0 -5 -5 -11q-5 -5 -5 -7q0 -38 -15 -57l-8 -46q0 -3 -4 -10.5t-4 -12.5q0 -3 -1.5 -14t-3.5 -16q-3 -3 -6.5 -8 t-3.5 -8q-3 -18 -10.5 -46t-7.5 -43l-10 -21q-5 -72 -23 -79q-13 -3 -23 5q3 10 -5 21.5t-8 14.5q-3 8 -1.5 31z" />
<glyph unicode="G" horiz-adv-x="788" d="M51 115q-3 55 -3 95t3 64q5 13 13 20q3 10 3 29q0 3 5 7.5t5 9.5q3 5 5 22t10 22q3 20 19.5 44.5t21.5 37.5q3 5 9 10t9 10q5 23 33 41q0 8 5 13q13 10 52 69q28 15 41 36q5 0 15 5t15 5l16 16q8 5 22 15t21 13q3 3 10 2q3 0 8 5.5t8 5.5q5 3 14 4t14 3q8 8 13 10.5 t20.5 2.5h25.5q5 0 18 5t20 5q9 1 18 1q41 0 54 -21q5 -5 5 -10q-3 -13 -15 -26q-15 -15 -23 -15q-3 -5 -18.5 -1.5t-20.5 3.5q-5 -3 -10 -8t-10 -5q-5 -5 -13 -10t-13 -10h-15q-5 -3 -18 -14.5t-26 -13.5q-5 0 -10 7.5t-10 7.5q-15 3 -31 -18q-18 -3 -36 -22t-30 -21 q-26 -26 -39 -36q-3 -13 -10.5 -24.5t-19 -21.5t-16.5 -18q0 -12 -10 -38q-3 -3 -8 -3h-8q-3 -3 -4 -10.5t-3 -12.5q-3 -3 -5.5 -8t-4.5 -10q-3 -3 -3 -15q-10 -10 -13 -16q-3 0 -2.5 -5t-2.5 -5q-13 -26 -13 -33q-15 -36 -15 -59q-13 -21 -13 -55q0 -17 3 -37 q5 -8 16.5 -27t16.5 -32q5 -5 21.5 -18t21.5 -21q8 -3 17 -9t14 -6q10 0 37 -2.5t43 0.5q18 0 58 17q36 33 62 87q-3 10 3.5 25.5t6.5 23.5q0 3 -2.5 9t-2.5 9t-1.5 12t-3.5 14q0 5 -8 11.5t-8 13.5q0 49 39 49q13 10 47.5 21.5t47.5 19.5h25q40 18 90 18h10q3 -3 9 -8 t12 -8h7.5t7.5 -2q3 0 20 -13q3 -3 8 -9t5 -11q3 0 5 -6v-5q0 -3 5 -7q15 -26 0 -36q-20 -5 -30 2q-5 0 -11 5q-5 5 -7 6q-8 0 -10.5 2.5t-7.5 6t-10 6.5q-5 -3 -39 -3q-31 -13 -61 -12q-36 -15 -49 -13q-18 -18 -20 -23q0 -8 2.5 -27t2.5 -30q0 -3 -2.5 -7.5t-2.5 -7.5v-26 q0 -5 -6.5 -10t-9.5 -10v-15l-15 -31q-26 -23 -44 -59q3 -8 -2 -28l-39 -23q-33 0 -41 -10q-31 5 -40 2q-5 0 -11 -5q-5 -5 -7 -5q-13 0 -28.5 6.5t-30.5 3.5q-5 3 -16.5 9.5t-17.5 8.5h-10q-10 10 -32 24t-29 22q-5 3 -13 3q-5 8 -18 25.5t-20 25.5q0 5 -16 33z" />
<glyph unicode="H" horiz-adv-x="778" d="M46 -28l8 23q0 8 1 22t4 19l2 5q5 8 8 13v20.5t3 20.5q0 3 5 10.5t7 12.5q-3 18 7.5 38.5t10.5 32.5q5 10 11 18q0 13 9 28.5t9 25.5q0 3 12 21q-3 18 6.5 38t9.5 33q3 5 8 11.5t7 9.5q3 15 15.5 39.5t15.5 42.5q13 18 13 20q-3 13 7 26l8 15q3 5 1.5 18t1.5 21 q0 3 8.5 15.5t6.5 19.5q0 3 6.5 18.5t8.5 25.5q0 3 3 8q10 10 2 20q-5 0 -16.5 -9t-21.5 -9q-13 3 -17 14.5t4 21.5q15 15 43.5 51t43.5 54q0 8 5 18q16 10 34 2q10 -10 10 -48v-10q0 -29 -13 -77q-10 -67 -13 -69l-7 -23q-3 -8 -13 -18q0 -13 -9 -33.5t-9 -33.5l-13 -18 v-28q0 -3 -6.5 -10.5t-9 -12.5t-2.5 -14t-2 -14q10 -5 25.5 5t20.5 10q1 -1 8 -1q17 0 68 6q18 3 54 3q8 0 33.5 2.5t38.5 -0.5q5 0 16.5 -2.5t19 -1t15.5 6.5q0 3 15 41q3 5 3 20.5t3 22.5q0 3 5 10.5t5 10.5v31l13 38q3 5 5 25.5t13 28.5q0 41 28 79q15 31 30 41 q28 10 41 -2q3 -10 -3.5 -24.5t-6.5 -22.5q-10 -13 -11.5 -47t-3.5 -42q0 -8 -9 -19.5t-7 -19.5q-3 -3 -6.5 -10t-5.5 -13v-5v-15v-15.5t-13 -35.5q-3 -3 -3 -8v-7.5t-5 -9t-5 -11.5q0 -3 -1.5 -9t-3.5 -12q0 -3 -5 -7q-13 -15 0 -26q5 0 11.5 1.5t11.5 1.5t12.5 -4t10.5 -4 q8 -3 18 2.5t15 5.5q28 0 26 -31q-5 -5 -15.5 -11.5t-15.5 -11.5q-10 -3 -53.5 -6.5t-59.5 -11.5v-7q0 -39 -30 -70q5 -23 -13 -46q0 -20 -16.5 -46t-16.5 -46q-3 -3 -11 -15q0 -15 -9 -34.5t-9 -37.5q-15 -38 -15 -41q0 -5 -5 -10l-8 -8q-5 -28 -23 -31q-20 15 -20 57 q0 3 5 9t5 11q3 8 3 39q8 8 12.5 33t15.5 33q0 38 21.5 85.5t24.5 63.5q10 10 13 18v23q0 5 7.5 8.5t7.5 8.5q0 8 -23 8q-15 -3 -48.5 -2.5t-51.5 0.5q-8 0 -23 -1.5t-20 -1.5q-3 0 -25 -6.5t-34 -8.5h-44q-8 -3 -20.5 -10.5l-17.5 -10.5q-3 -10 -10.5 -28t-10.5 -26 q-3 -3 -8 -7.5t-5 -9.5v-16q-3 -5 -6.5 -11.5t-3.5 -8.5q-5 -18 -31 -85q0 -13 -10 -28t-7 -31q-3 -3 -8 -7.5t-5 -10.5v-25q15 -28 13 -44q-15 -20 -16 -36q-18 -14 -32.5 -14t-26.5 14q0 3 -5 17t-5 22z" />
<glyph unicode="I" horiz-adv-x="829" d="M44 -33q5 15 26.5 29t26.5 19q8 3 19.5 9.5t16.5 8.5q3 0 14.5 2.5t16.5 5.5q3 0 9 2.5t9 5.5h18q5 3 17.5 7.5t18 4.5t13 3t12.5 3q18 3 31 20q0 41 15 61q0 10 1.5 28.5t1.5 28.5q8 15 11.5 56t11.5 54q0 13 3.5 36t3.5 30l13 18q0 36 5 52q0 3 3 9t5 11q3 8 1.5 27 t3.5 32q13 33 10 49q-8 10 -48 2q-18 -8 -51 -13q-5 -3 -34.5 -14t-47.5 -16q-5 -3 -14 -7t-12 -4q-13 -5 -18 0q-18 10 -18 31q5 23 21 36q36 15 41 18q5 0 12.5 2.5t12.5 -0.5q8 3 18 10.5t18 10.5q20 -3 49.5 6t32.5 9t8 5t10 5h15.5t15.5 3q3 0 13 4t15 4l46 7h13 q13 8 34.5 10.5t52 1.5t43.5 -1q5 0 11.5 1t9.5 1h133q26 -26 23 -38q-3 -5 -41 -10q-3 0 -12 -4t-14 -4l-71 -8q-10 -3 -25.5 -2.5t-23.5 0.5q-3 0 -13 -4t-15 -4q-5 -3 -18 -3h-21q-26 -5 -35 -5q-3 0 -8 1.5t-10 1.5q-8 0 -18 -5q-8 -3 -29.5 -5.5t-29.5 -10.5 q5 -5 24 -7.5t25 -10.5q18 0 17 -2q5 -10 0 -18t-17 -5q-10 -13 -11 -41q0 -5 1.5 -13t1.5 -13q-3 -5 -8 -12.5t-5 -10.5q0 -13 -10 -33q-3 -13 -4 -43.5t-6 -46.5q0 -3 -4 -10.5t-7 -12.5q-10 -44 -15 -48q0 -20 -3 -31q-3 -5 -5 -10t-5 -11q-3 -3 -2 -28q-3 -10 -8 -36 q-8 -15 -8 -33q0 -3 -10 -20.5t0 -20.5q3 -8 31 -7q5 0 10 -1.5t10 -1.5q24 -2 41.5 -2t27.5 2q5 0 11.5 5t11.5 5q15 0 21 -18q-5 -28 -26 -36q-10 3 -21.5 -6t-14.5 -9q-84 0 -125 -2q-3 0 -8 -4t-10 -7q-8 -3 -24.5 -4t-21.5 -1q-3 0 -8 -1t-7 -1h-26q-3 0 -9 -5.5 t-9 -5.5h-41q-13 -13 -48 -28l-6 3q-5 0 -7 -3q-3 0 -14.5 -7.5t-24.5 -5.5q-5 0 -10 3q-8 20 -2 31z" />
<glyph unicode="J" horiz-adv-x="773" d="M50 64q-9 26 6 31q0 95 5 112q0 3 8 12t8 22q15 15 47 40.5t45 38.5l61 31h44q5 -3 10 -13q-3 -15 -38 -33q-5 -5 -15.5 -13t-15.5 -13q0 -3 -5 -3t-5 -2q-8 -5 -85 -82q-3 -8 -2.5 -18t-2.5 -18l-7 -23l7 -28q3 -8 3 -24.5t2 -24.5q15 -26 28 -38q0 -3 11 -23 q15 -20 20 -23v-16q20 -26 49 -35q10 5 21.5 16.5l16.5 16.5q10 15 16 20l2 11q5 5 15.5 19t12.5 16q-3 10 8 24q5 5 5 7q3 5 8 18t10 18v15l8 8t7 10v23q3 3 8 9.5t8 11.5v20q15 23 15 67q3 10 10 20q0 10 8 24.5t8 19.5q3 10 2.5 26.5t-0.5 29.5q5 8 13 23q3 13 1.5 46.5 t3.5 45.5q0 5 5 11.5t5 9.5v107v103q-13 8 -32 -2.5t-29 -10.5q-5 0 -10 -6.5t-8 -6.5h-13q-15 -8 -36 -28q-5 0 -24 -7.5t-32 -5.5q-26 3 -26 26q0 10 6 25q3 5 10 11q8 5 10 10h10q23 18 31 18q10 8 33 19.5t34 21.5q3 0 11.5 1t13.5 1q3 0 9.5 5.5t11.5 5.5q56 18 112 20 q5 0 10.5 5t10.5 5q38 8 51 5q13 8 29.5 10.5t41 0t31.5 -2.5q31 -15 31 -18q-8 -20 -51.5 -29t-50.5 -27q-10 -3 -27 -0.5t-24 0.5q-3 0 -21 -7.5t-28 -2.5q-18 -5 -23 -26q0 -5 5 -16.5t5 -19.5q0 -13 -2 -20q0 -5 2 -11v-7v-46q2 -20 2 -36q0 -32 -7 -49q0 -15 -2.5 -43 t-2.5 -44q0 -5 -4 -24t1 -24q-8 -15 -12 -44q0 -3 -8 -20.5t-8 -30.5q-10 -10 -13 -18v-3q-5 -74 -15 -84q0 -5 -15 -64l-16 -15v-18l-8 -8t-5 -8q0 -13 -10 -28t-10 -23q-5 -10 -10 -15q0 -8 -5 -18q-5 -5 -5 -8q-3 -5 -6 -13q-3 -3 -2 -5q-3 -5 -12 -15t-11 -16 q-3 -3 -5 -7l-3 -3q-15 -20 -36 -36l-7 -7l-3 -5q-5 -3 -15 -3q-3 0 -8 -5t-10 -8q-10 3 -29.5 1.5t-27.5 -1.5q-3 0 -48 41q-10 3 -51 39q0 5 -6.5 14t-6.5 14q-3 8 -3 22t-2 19q0 3 -13 20q0 10 -9 36z" />
<glyph unicode="K" horiz-adv-x="757" d="M49 -54q10 38 7 51q3 3 8 10.5t8 10.5q3 5 4 19t1 19l5 5q5 8 5 13v16q0 3 5 9t7.5 8.5t8 13t10.5 12.5q-3 15 6 30.5t9 25.5q3 5 9 11.5t6 9.5v26q0 5 5.5 12.5t5.5 10.5q3 5 4 17.5t1 15t5 8t7.5 10.5t6.5 16.5t6 16.5q5 56 18 74v26q3 5 12 32t17 34q0 10 7.5 41 t4.5 49q0 5 -6 23t-4 28q0 5 1.5 10.5t1.5 8t-2.5 14t-0.5 16.5q-3 3 -9 11.5t-9 16.5q0 26 10.5 41.5t30.5 7.5q5 -3 9 -10.5t4 -10.5q3 -3 10.5 -6.5t9.5 -6.5q13 -44 16 -48q0 -10 2.5 -42t0 -54t-10.5 -37q-9 -24 -9 -58q0 -13 1 -27q0 -3 -5 -6.5t-7 -8.5q5 -13 -3 -32 t-8 -22q-5 -8 -3.5 -23t-1.5 -26q-8 -8 -15.5 -25.5t-12.5 -22.5q3 -18 -7.5 -40t-10.5 -32q-3 -5 -8 -13q-3 -3 -2.5 -5t0.5 -7.5t-3 -7.5q-18 -31 -18 -41q0 -5 -5 -10t-5 -8v-14t-2 -14l-3 -5q-5 -8 -8 -13q-3 -3 -2 -8l-3 -8q-3 -3 -8 -7.5t-5 -9.5q0 -3 -3.5 -13 t-8.5 -16q3 -18 -7.5 -37t-10.5 -27q-3 -5 -6.5 -11.5t-6.5 -11.5q-3 -8 -3 -34.5t-7 -26.5q-23 -3 -32 12.5t-14 43.5zM294 471q3 5 13 5q3 13 41 51q3 0 6.5 1.5t9.5 1.5q36 44 87 72q15 15 35 28q5 0 11 2q20 18 61 59h13q8 5 34.5 36t47.5 44q0 5 5 15q11 13 49 8 q18 -15 5 -49q-10 -8 -11 -13l-2 -5l-3 -5l-10 -10l-26 -26q-3 -3 -9 -6.5t-11 -8.5q-10 -10 -15 -18q-3 0 -8 -13q-15 -8 -18 -10q-5 -3 -14 -14.5t-17 -16.5q-23 -5 -56 -43q-10 -3 -27 -16t-29 -13q-5 -3 -10.5 -13t-10.5 -12q-5 -5 -10 -5q-23 -15 -44 -41q-8 -8 -7 -11 q0 -5 5 -11t5 -9q3 -3 4 -9t1 -9q3 -3 8 -13l7 -15q0 -3 6 -13q3 -5 4 -18t1 -15q3 -5 8 -10.5t7.5 -8t2.5 -4.5q3 -5 2.5 -7.5t4.5 -9t5 -11.5q5 -5 14 -17t15 -17q0 -3 2 -7v-3q51 -51 72 -107q3 -3 13 -12t15 -11q10 -20 33 -49q-3 -10 8 -21q5 -8 8 -10q3 -28 -5 -42 t-31 -12q-23 18 -52.5 60.5t-44.5 55.5q0 3 -1.5 6.5t-1.5 5.5q-8 8 -32 41.5t-42 45.5v13q-10 8 -23 31t-21 33q0 8 -2 13q-5 5 -13 18t-13 18q-3 26 -15 41q-5 33 -28 59q-5 49 -6 56z" />
<glyph unicode="L" horiz-adv-x="814" d="M46 -74q0 3 1.5 13t1.5 15q0 26 2 31q0 3 4 13t4 15v13q8 36 8 41q13 18 12 20q3 8 3 19.5v16.5t5 10t7.5 10t2.5 21q0 3 5.5 9t5.5 8.5t1 15.5t4 18q13 18 12 21v15q0 3 6.5 6.5t9.5 8.5v41q10 10 15 18v28q0 3 5 9.5t8 11.5v12.5t3 12.5q0 5 5 13t5 10q3 3 2.5 10.5 t2.5 12.5q3 3 6.5 9.5t6.5 8.5v39q0 5 5 12.5l7 10.5q3 8 3 20.5t3 20.5q3 3 7.5 10.5t4.5 9.5v21q0 3 5.5 10.5t7.5 9.5q3 13 9.5 43.5t8.5 51.5l10 20q5 56 13 64q-3 10 1 29.5t4 27.5q5 36 13 43q0 5 1.5 14t1.5 12q23 23 30 23q13 3 26 -10t13 -29q0 -5 -5 -14t-5 -14 q-5 -36 -13 -43q1 -15 1 -29q0 -64 -19 -104v-31q0 -5 -6.5 -11.5t-6.5 -9.5q3 -31 -15 -53q0 -28 -29 -90q0 -41 -2 -51q0 -3 -6.5 -9t-6.5 -11.5v-13t-2 -10.5q-3 -5 -8 -10t-5 -8q-3 -5 -3 -16.5t-2 -16.5q0 -5 -4 -11.5t-4 -8.5q-3 -8 -3 -23q-18 -31 -18 -44 q-13 -20 -12 -46q0 -3 -5.5 -10.5t-5.5 -12.5q-3 -5 -3 -18t-2 -18q-3 -3 -7.5 -8t-7.5 -10v-30q0 -3 -5 -8l-8 -8q0 -3 -10 -33q-13 -61 -18 -69q0 -10 -5 -29.5t-5 -29.5t28 -10q28 28 41 36l18 10q18 10 25 15l11 10q20 10 28 18q3 3 5 3h7.5t6.5 5t9 8l10 5l10 5l16 8 q3 0 9 5t14 7l8 8t10 5h5q5 0 5 3q3 0 11.5 7.5t16.5 7.5q26 26 49 28q23 15 25 16q5 3 9 7.5t9 7.5h13q15 10 47 30.5t45 28.5q10 0 13 2q5 5 21.5 11.5t24.5 14.5q5 3 13 3q5 3 10 7q5 5 8 5q33 10 59 -2q13 -8 7 -49q-26 -31 -43 -38q-10 -3 -21.5 -1.5t-16.5 1.5 q-3 -3 -10.5 -5.5t-10.5 -4.5q-23 -10 -26 -16q-23 0 -41 -18h-15q-8 -5 -20.5 -16.5t-25.5 -19t-28 -10.5q-41 -28 -46 -28q-23 -18 -26 -18q-37 -28 -57 -28h-4q-3 0 -13.5 -8t-20.5 -5q-5 -3 -10 -20q-3 0 -9 -5.5t-9 -5.5q-5 -3 -10 -7.5t-8 -4.5q-3 -3 -5 -3h-5 q-8 -5 -18 -15.5t-15 -12.5q-13 -3 -28.5 -17t-27.5 -16q-3 0 -7 -5.5t-9 -7.5q-26 -13 -38 -18q-3 0 -9.5 -5t-8.5 -5q-5 -3 -22 -1.5t-24 1.5q-20 10 -26 18q0 8 -3.5 23t-1.5 28z" />
<glyph unicode="M" horiz-adv-x="934" d="M46 -26l5 6q5 8 5 12q0 3 2.5 13t2.5 12.5t8 14.5t8 22q0 5 5 10t5 7.5t1.5 10.5t1.5 13q15 20 18 30q26 46 28 62l5 8l7 7q0 10 6 23l5 13q13 41 15 44q3 23 23 58q3 8 12 23.5t11 20.5q0 5 1.5 12.5t1.5 10.5q18 18 18 31q8 5 12 28q3 3 29 36q0 10 2 13q5 8 15.5 19 t10.5 14q3 15 16.5 38t16.5 31q5 5 13 16.5t13 16.5l2 5q3 5 3 8q3 3 9 12t11 11q0 3 8 12t10 14q3 0 3 5t2 5q5 8 18 20.5t18 20.5h33q0 -5 8 -13t10 -15q3 -13 -2 -54q0 -3 1 -8t1 -7.5t-3.5 -9t-3.5 -11.5q-5 -13 -16 -28v-13q-7 -13 -7 -54v-16q0 -6 1 -11 q0 -45 -12 -52q0 -28 -15 -80.5t-14 -80.5q0 -18 -12 -49q13 0 26 18q8 10 13 13v5l2 5q13 13 29.5 42.5t24.5 39.5l3 5l2 5q3 5 8 9t5 7q3 5 3 12q3 5 13 17t12 17q0 10 3 12q3 5 7 8q5 5 6 10q10 10 12 16q3 3 3 8t2 7l13 13q0 5 5 10q13 18 26 33v13q0 3 7.5 12t7.5 16 q3 5 10.5 13t10.5 13l23 23q3 3 8 13t7 15l13 13q18 28 28 33q3 13 59 67q10 0 31 15h38q5 -3 12.5 -10t10.5 -10q5 -36 0 -62q0 -3 -5 -10.5t-5 -9.5q-3 -8 -3 -24.5v-29.5q-10 -8 -13.5 -31t-6.5 -25l-10 -31q-3 -3 -8 -9t-8 -9q0 -8 -6 -18t-6 -15v-10.5t-3 -10.5 q-10 -20 -28 -38q0 -33 -16 -56q5 -31 -15 -46v-21q-10 -15 -21.5 -49.5t-19.5 -47.5q0 -10 -8 -26l-7.5 -15t-2.5 -16q-3 -5 -2.5 -10t-6 -11.5t-6.5 -8.5q3 -28 -13 -49q-3 -13 -2.5 -42.5t-2.5 -41.5q5 -15 26 5q20 5 28 2q10 -13 6 -24.5t-15.5 -19t-21.5 -15.5 q-10 0 -21 -7.5t-15 -7.5q-3 0 -18 10l-15 8q-5 3 -13 18t-13 18q-3 31 2.5 59t15.5 60t13 50q10 15 13 23q0 8 3.5 20.5t3.5 20.5l11 30q0 3 5 8l8 8q0 28 5 36l7 15q5 10 14 35.5t17 36.5q0 5 5 20q5 3 10 41q3 5 8 11.5t8 11.5q0 13 7.5 28.5t7.5 30.5q8 8 15.5 26 t12.5 25q3 10 3 31q0 3 5 8t5 10q5 8 5 24.5v21.5q-10 5 -15 -10l-3 -3l-10 -10q-5 -5 -5 -10q-3 -8 -10 -11q-3 -5 -3 -12q-5 -10 -20.5 -22t-20.5 -19q0 -3 -20 -34q0 -3 -5.5 -6.5t-5.5 -8.5q-3 -3 -2 -13q-5 -3 -31 -48q-5 -5 -12.5 -15.5t-12.5 -15.5q-3 -5 -3 -15 q-13 -13 -20 -23q-13 -23 -21 -44q-10 -3 -19 -17t-14 -16q3 -10 -7.5 -22t-10.5 -22q-18 -23 -28 -46q-28 -33 -31 -41q-3 -5 -9 -14t-9 -17q-3 0 -14.5 -10t-18.5 -15q-28 -5 -44 0q-10 5 -16.5 14t-13 21.5t-11.5 20.5q5 20 2.5 62.5t5.5 60.5q0 8 6.5 23t6.5 26 q10 13 15 48q0 31 2.5 36t5 15.5t5 15.5t2.5 18v20l8 31q-8 -3 -18 -13q-5 -3 -7 -5q0 -10 -3 -15t-8 -16q-3 -8 -5 -12l-13 -13l-15 -31l-31 -46v-13q0 -3 -5 -8t-7 -10q0 -5 -13 -30.5t-16 -28.5l-20 -33q5 -10 -5 -26q-5 -8 -5 -12q0 -3 -1.5 -12t-4 -14t-15.5 -27 t-13 -37q-3 -3 -6.5 -9t-5.5 -9q0 -13 -9 -30.5t-9 -25.5q-10 -13 -22 -38.5t-19 -35.5q-3 -10 -3 -24.5v-21.5q-3 -3 -6.5 -8t-6.5 -10q-5 -28 -12 -31q-15 -15 -36 -15q-18 0 -24.5 19t-1.5 39z" />
<glyph unicode="N" horiz-adv-x="870" d="M44 -56q0 13 7.5 28t4.5 31q0 3 8 15.5t10 22.5q0 3 6.5 11.5t6.5 16.5q20 28 44 51q0 5 12 23q0 3 1.5 7t3.5 6q5 5 11.5 20.5t14.5 20.5v5q3 5 3 8q13 10 29.5 35.5t26.5 36.5q8 23 46 61v15q3 5 13 16v7l2 6q10 10 32 42t38 45q5 8 17 20q3 3 3 13q8 8 26 28.5 t30 27.5q5 15 26 26q15 5 28 0q18 -13 23 -23q0 -23 -8 -39q0 -5 -5 -53q-3 -8 -4 -30t-6 -29q-3 -8 -4 -26t-3.5 -29.5t-10.5 -16.5q0 -20 -10 -47t-10 -45q-8 -13 -8 -41q3 -13 0 -36t-3 -26q0 -8 8 -27t5 -29q13 -26 36 -28q18 5 28 3q46 38 51 51q3 5 9.5 20.5 t11.5 20.5l15 30q3 3 16 29q5 10 10 15q0 3 2.5 9t2.5 9l5 5q5 8 5 13v22t3 21q3 5 13 16q0 8 12 36q3 10 3 25q0 3 5 9t5 9q3 5 4 18t4 18q3 3 10 18q0 13 9 28t6 28q5 8 14.5 24.5t16.5 24.5v9q0 48 28 109q-10 28 14.5 38t39.5 -8q5 -18 -2.5 -51t-7.5 -51 q-8 -13 -13 -56q-10 -15 -10 -18q-3 -10 -12 -32t-9 -38q-10 -10 -15 -48q-8 -15 -10 -18q0 -31 -16 -46l-15 -31q-3 -10 -3 -29.5v-26.5q-3 -10 -12 -21q-5 -23 -13 -30q-3 -3 -3 -9.5t-2 -8.5q-3 -10 -14.5 -25.5t-13.5 -26.5l-13 -12q-3 -13 -18 -33.5t-15 -38.5 q-10 -15 -31 -41q-36 -13 -62 -28l-30 -10q-5 0 -15.5 5t-15.5 5t-10 5q-3 5 -5.5 5t-7.5 2.5t-8 2.5q-15 15 -20 18q-5 8 -10.5 18t-10.5 18q0 3 -5 10.5t-5 12.5v77q0 77 8 107q-2 8 -2 17q0 29 22 55q0 8 1.5 22t1.5 19q15 46 7 59q-5 -3 -11.5 -9t-8.5 -9 q-3 -5 -10.5 -16.5t-7.5 -21.5l-13 -13q-5 -15 -23 -37t-20 -27l-5 -16l-26 -25q-3 -5 -3 -16q-8 -5 -12 -12q-3 -5 -31 -49v-10q-44 -49 -46 -62q-3 -3 -13 -14t-15 -19q0 -5 -5.5 -12.5t-5.5 -10.5q-3 -3 -7.5 -11.5t-10.5 -11.5q-3 -8 -30 -41q0 -5 -8 -14t-8 -14 q-3 -8 -2.5 -22t-2.5 -22q-15 -15 -30 -15q-20 20 -23 31z" />
<glyph unicode="O" horiz-adv-x="604" d="M45 230q-1 18 2.5 32t11.5 25q0 26 2 36q3 3 13 15.5t13 19.5q3 3 4 12t1 11q8 8 10 13q0 3 1.5 6.5t4.5 6.5l15 23q38 46 41 49q-3 18 7.5 42t10.5 27q31 46 72 46h5q28 15 66 18q3 3 28 -5q3 0 14.5 -1.5t16.5 -3.5q10 -3 18 -14.5t10 -11.5q5 -3 49 -38q8 -20 31 -49 q0 -8 7.5 -20.5t7.5 -20.5q5 -5 14 -16.5t14 -16.5q3 -5 5.5 -14t4.5 -14q0 -5 2.5 -28.5t5.5 -35.5q10 -44 -3 -54q3 -10 -2 -26q0 -8 -10 -23q-8 -38 -44 -66q-5 -8 -12.5 -19.5t-10.5 -16.5q-20 -10 -46 -36h-13q-13 -5 -20 -15q-13 0 -59 -26q-31 -3 -59 -15 q-14 -1 -27 -1q-38 0 -63 11q-23 -3 -42 14t-27 19l-13 13q-10 13 -15 23q-13 13 -26 33q0 5 -5 27t-7.5 34.5t-3.5 30.5zM115 218q8 -33 5 -39q41 -61 49 -66q3 0 8 -2.5t7 -0.5q18 -15 75 -15q26 0 35 2q5 3 11 8q18 10 30 8q23 15 31 15q3 3 13 8t15 7q49 44 67 69 q3 10 14 29.5t14 29.5v11q3 10 3 24q0 18 -6 44q-10 44 -10 49q-10 10 -21.5 34.5t-19.5 32.5q-5 5 -5 10q-41 46 -66 64q-3 0 -13.5 5t-17.5 5q-5 -2 -5 -33q-15 -26 -52 -18q-5 -3 -12.5 -13t-12.5 -15l-5 -5l-5 -3q-5 -10 -8 -12.5t-21 -15.5q-33 -38 -74 -112 q0 -18 -18 -41q3 -13 -1 -35t-4 -29z" />
<glyph unicode="P" horiz-adv-x="609" d="M46 -44q-1 12 -1 22q0 37 14 55q0 15 9 34.5t9 32.5q13 26 13 33q3 5 15 18q0 10 9 25.5t6 30.5q8 5 15.5 18t12.5 18q-3 13 7.5 29.5t10.5 27.5q0 8 -17.5 23t-12.5 33q8 13 23 25q26 0 33 18q10 28 15 36q3 18 5.5 37.5t5 43.5t5.5 37q13 18 33 10q8 -3 20.5 -15.5 t17.5 -15.5q8 -15 -10 -43v-26q0 -26 8 -33q8 0 31 -4t33 -1q5 3 11.5 8t11.5 7.5t15 2.5l39 31q10 15 18 30q5 5 20 16.5t21 19.5q5 18 0 59q-13 13 -49 25.5t-49 23.5q-108 0 -133 -13q-13 3 -27 -6t-16 -9q-13 0 -18 -3q-5 0 -14 -4t-12 -4q-15 5 -15 28q5 10 20.5 23 t20.5 18q5 3 10 8q18 10 31 8q15 8 23 13q5 0 24 3.5t29 1.5l21 10q26 0 36 -5q5 0 10 -5q5 0 8 -3q5 -3 14 -2.5t14 0.5q41 -13 46 -13q5 -3 11.5 -8t8.5 -5q23 -8 62 -51q3 -5 9 -14t9 -14q5 -16 5 -33t-5 -34q-3 -5 -8 -14t-8 -14q-5 -5 -43 -49l-10 -5l-11 -10 q-23 -31 -43 -44q-5 -3 -31 -20l-38 -15q-5 0 -10 -6q-5 -5 -8 -5t-13 -2.5t-13 -4.5q-8 -3 -43 -21q-26 8 -46 -13l-16 -30q3 -15 -6 -37t-9 -35q-8 -8 -17 -23t-14 -23v-13q0 -3 -5 -8t-8 -10q0 -8 -11.5 -25.5t1.5 -25.5q5 0 9 5t9 5q10 -10 4 -30.5t-12 -28.5 q0 -31 -28 -64q-5 -13 -28 -36h-41q-15 8 -23 23z" />
<glyph unicode="Q" horiz-adv-x="737" d="M51 77q-1 35 -1 70.5t1 72.5q3 5 8 11.5t5 9.5q3 5 3 17.5v17.5q0 3 6 9.5t6 11.5v15q8 5 17 19.5t12 16.5q0 31 15 46q0 3 1 6.5t1 6.5l8 8t5 7.5t16 40.5v13q54 69 61 74q-3 5 5 18l16 8q20 15 28 26l23 15q10 3 42 1.5t42 3.5q82 0 105 -13q20 -5 26 -5q5 -3 10 -8 t8 -5q5 -3 15 -2q15 -15 28 -16q38 -31 80 -87l15 -30q3 -3 4 -8t1 -8q5 -5 10 -15q5 -5 2.5 -36t-2.5 -43q-3 -5 -13 -16q0 -10 -2.5 -20t-6 -20.5t-6.5 -18.5q0 -3 -13 -15q-3 -5 -2 -13q-8 -5 -13 -16.5t-7.5 -14t-18 -16.5t-18.5 -24q5 -13 23 -32.5t24 -31.5 q3 -5 10 -10.5t10 -10.5l15 -23q3 -3 10.5 -13t10.5 -18l8 -8t7 -10q-3 -10 7.5 -27t2.5 -32q-5 0 -12 6q-10 5 -18 2q-20 13 -52.5 47.5t-39.5 42.5q-13 3 -23 23q-3 3 -10.5 15.5l-10.5 17.5q-18 10 -33.5 -1.5t-20.5 -21.5q-10 -5 -36 -31q-10 -3 -30 -18h-16 q-3 0 -6.5 -6t-8.5 -9q-3 0 -31 -13q-5 0 -12.5 -1t-12.5 -1l-18 -18h-8l-2 2q-5 0 -11.5 -5t-9.5 -5q-5 -3 -43 -2q-5 0 -15.5 -5.5t-18.5 -2.5q-3 0 -11.5 4t-13.5 4h-14h-12q-5 3 -13 7q-10 8 -20 8q-3 3 -15.5 13t-18.5 18q-3 5 -9 11.5t-8 8.5zM110 108q8 -8 19.5 -26 t18.5 -26q38 -5 52 -10q22 9 63 9q16 0 34 -1l8 8t7.5 5t33.5 15q3 0 5 2.5t4.5 2.5t11.5 5t17 5q18 18 28 18q5 5 33.5 25.5t33.5 38.5q-28 33 -28 62l-16 23q0 3 -5 7.5t-5 10.5v33q23 28 41 33t37 -5t29 -10q10 -5 8 -21q-3 -8 -15.5 -11.5t-17.5 -8.5q0 -10 10 -21 q5 -8 7.5 -10t2.5 -12.5v-15.5q10 -5 29 8q0 3 1 6.5t1 5.5q5 5 14 20.5t14 20.5q0 3 1.5 8t1.5 10t5 11q5 5 5 7.5t8 40.5q0 3 3.5 13t3.5 15q0 8 -7.5 22t-7.5 24q0 3 -5 9.5t-5 11.5q0 8 -5 13q-26 15 -67 51q-10 0 -31 15h-10q-5 3 -10 8q-3 5 -5 5q-20 8 -46 10 q-8 0 -23 5q-10 0 -22 -6t-17 -6q-5 -3 -15 -3h-15l-6 -5q-3 -5 -5 -7.5t-6 -2.5h-6q-5 -3 -14.5 -13t-14.5 -13q-18 -18 -25 -28q0 -3 -16 -26v-15q-8 -8 -16.5 -23t-13.5 -21q3 -23 -3 -58q20 -15 21 -46q-5 -20 -29 -8q-5 5 -6 21.5t-4 21.5q-18 5 -23 -5q-3 -3 -2.5 -13 t0.5 -15q-3 -5 -8 -10t-8 -10q3 -10 -5 -21q-5 -8 -5 -10q0 -10 -5 -41q-14 -18 -14 -70q0 -15 1 -32z" />
<glyph unicode="R" horiz-adv-x="599" d="M46 -18v46q0 5 6.5 13t6.5 13q3 5 2.5 16.5t-0.5 16.5q0 3 3 8l3 5q0 3 -3 13t-3 15q3 5 8 10l8 8q10 20 10 43q3 5 10 11q5 5 8 7q0 8 9 24.5t4 34.5q3 5 8 9t7 9q3 8 1.5 26t3.5 23q0 5 5 10t5 8q13 33 16 36q0 10 10 29t5 40q0 3 5 7.5t5 10.5v28q-13 36 -10 51 q20 26 0 43q-3 18 23 62q26 5 41 -8q15 8 26 18q0 10 2 13q0 3 11 13q15 36 53 69q10 0 20.5 7.5t13.5 7.5h43q38 -23 49 -36v-5q3 -3 2 -5q18 -15 26 -52q4 -18 4 -36.5t-4 -36.5l-5 -16q-3 -8 -4 -27t-4 -26q-15 -28 -13 -34q-8 -8 -16.5 -25.5t-13.5 -22.5v-11 q-13 -15 -41 -40.5t-41 -40.5q-5 0 -28 -18q-3 -3 -9.5 -8t-11.5 -5h-10q-5 -3 -9 -9.5t-7 -8.5h-12q-13 -8 -14 -21q0 -8 18.5 -16.5t18.5 -16.5q18 -13 47.5 -43.5t46.5 -43.5q3 -3 5.5 -8t5.5 -7q5 -5 16.5 -15.5t19.5 -15.5q5 -13 33 -41l46 -61q-3 -15 11 -29.5t17 -22 t3 -30.5q0 -8 5 -26t5 -26v-58q-8 -15 -22 -4t-19 22q3 13 -5 26.5t-8 19.5q-3 5 -2.5 12.5t0.5 10.5q-15 31 -16 33q-15 15 -40.5 52.5t-43.5 52.5q-3 3 -3 5q-3 5 -2 8q-8 5 -26 24t-28 27h-5l-5 -3q-8 15 -31 36t-31 31q-3 3 -13 2q-20 44 -41 39q-8 -3 -10 -13 q-3 -8 -5 -13q0 -3 -5 -7q-10 -20 -8 -31q-5 -5 -14 -22t-17 -22v-15q0 -3 -5 -8t-7 -10v-31l-16 -15q0 -23 -23 -64q-38 -13 -51 5zM241 384q15 -10 33 6.5t23 19.5q3 5 13 12.5t13 12.5q13 0 17 3q5 15 24 33q3 3 10 17t13 19v13q3 3 7.5 9t7.5 9q0 5 1 10t1 10q0 3 5.5 8 t5.5 10q3 8 4 42.5t-2 47.5q0 3 -6.5 10.5t-6.5 9.5q0 15 -5 15q-18 8 -30 -10q-6 -7 -11 -10q0 -3 -1 -6.5t-1 -6.5q-23 -28 -41 -41q-26 -46 -31 -51q0 -3 -1 -10.5t-1 -9.5q-3 -3 -16 -49q-10 -20 -10 -31v-28t-6 -33q-12 -20 -9 -31z" />
<glyph unicode="S" horiz-adv-x="614" d="M44 -31q0 3 6 9.5t6 11.5v10.5t3 9.5q18 23 18 34q10 10 35.5 33t38.5 36q8 3 18 9t15 6l16 15q15 5 40.5 20.5t33.5 20.5q8 0 23 2.5t26 0.5q0 -3 2 -5q3 -20 -23 -34.5t-28 -19.5h-13q-5 -5 -12.5 -11.5t-10.5 -8.5q-20 -20 -33 -31q-15 -10 -26 -23l-31 -23v-16 q-3 -5 -14 -14t-16 -16q8 -10 38 10q4 -1 7 -1q25 0 55 29l2 3h10q5 5 27 17.5t30 23.5q15 5 38 24t36 24q23 23 38 33q0 8 5 13q10 8 28.5 29.5t28.5 32.5q-5 15 13 38q8 23 12 26l8 36l8 15q5 18 -5 46q-3 10 -14.5 25.5t-14.5 23.5q-18 8 -30 23q-10 0 -22 9t-19 9 q-5 3 -10 7q-5 3 -8 5h-46q-20 15 -41 16q-51 38 -67 46q-3 5 -15.5 25.5t-17.5 35.5q15 36 28 49v13l21 20q8 8 24.5 23.5t23.5 22.5h3q5 3 10 3q41 36 102 43l21 11q3 0 8 -3t10 -3l54 8q32 -16 32 -34q0 -11 -12 -22q-44 -18 -51 -18q-3 0 -8 1t-7 1q-8 3 -27.5 0.5 t-24.5 -2.5t-10 -5t-10 -8h-15q-5 -3 -11 -8l-7 -7l-3 -3h-8q-13 -10 -36 -32t-33 -32v-31q3 -5 13 -11t13 -9q15 0 35.5 -9t36.5 -9q5 -8 28 -13t30 -15q3 -3 8 -3h5q13 -5 33 -25q10 0 13 -3q5 -5 25.5 -18t31 -25.5t10.5 -35.5q10 -15 15 -21q2 -24 1.5 -49t-1.5 -50 q-15 -23 -15 -29q-8 -10 -20.5 -31.5t-20.5 -32.5q0 -8 -13 -28q0 -3 -1 -6.5t-4 -6t-8 -5.5l-2 -2q0 -3 -1.5 -7t-3.5 -6q-5 -8 -18 -18t-15.5 -12.5t-6.5 -5t-6 -2.5q-23 -18 -29 -34q-33 -20 -35 -20q-18 -28 -44 -31q-20 -20 -33 -28h-3q-3 -3 -5 -3q-5 -5 -43 -30 q-3 0 -7 -4t-9 -7l-5 -2q-8 -3 -10 -5q-3 0 -6.5 -5.5t-9.5 -5.5h-20l-5 -5q-8 -5 -13 -5q-3 -3 -8 -4t-7 -1q-38 -15 -54 -15q-28 23 -38 38v28z" />
<glyph unicode="T" horiz-adv-x="788" d="M46 625q0 5 1.5 14t1.5 11q13 20 30 31q8 8 26 10q13 0 18 2.5t12.5 5t10.5 5.5q26 10 31 18q18 -5 38.5 5t32.5 10q5 0 8 5q8 5 10 8q8 0 26 6.5t23 6.5h31q5 0 16.5 1t18.5 1q5 3 18 3h21q51 13 66 13h27t32 2.5t21 8.5h2q15 -3 53.5 -2t54.5 -4q10 -3 29 -3t30 -2 q18 -5 18 -18t-23 -13q-5 0 -11 -5q-5 -5 -7 -5q-5 0 -10.5 4t-10.5 4t-14 -5.5t-14 -5.5q-13 -3 -48.5 -1.5t-48.5 -3.5q-5 -3 -13 -8q-3 -3 -5 -2q-15 3 -42 -5t-35 -8q-13 -3 -42.5 -2.5t-44.5 -2.5q-5 -3 -10 -5.5t-10 -4.5q-18 -3 -54 -3q-5 -3 -10.5 -8t-7.5 -5 q-41 0 -54 -15q-8 0 -38 -15q-18 0 -44 -16q-10 0 -25 -5q-3 -3 -5.5 -18t-5.5 -18q-13 -5 -19 -2.5t-16.5 9t-17.5 6.5zM197 -59q-3 18 7.5 48.5t5.5 56.5q20 26 18 56q8 8 13 31t12 31q0 8 16 46q3 8 2 20q3 3 8 9.5t8 11.5q-3 10 13 56q3 8 2 26q0 5 5 14t5 14 q3 5 8 20.5t10 22.5q0 74 13 90v10.5t3 12.5q0 5 3.5 11.5t3.5 9.5v25q0 5 8 21v19t3 17q0 5 5 15t5 15q22 23 30 26q13 0 24 -13q5 -5 7 -8q5 -16 5 -30q0 -25 -15 -46q0 -44 -13 -59q8 -10 -2 -52q-10 -49 -18 -56q0 -28 -18 -54v-48q0 -5 -5 -10.5t-5 -10.5q0 -3 -3 -8 t-3 -7q-5 -8 -10 -18q0 -3 -2.5 -10.5t-2.5 -9.5q0 -5 -5 -13t-5 -11v-17q-3 -3 -8 -9.5t-7.5 -11.5t-2.5 -18t-3 -18q0 -3 -5 -9t-5 -11v-10.5t-2 -12.5q-3 -3 -7 -9.5t-6 -8.5q3 -13 -8 -31q-5 -10 -8 -18v-28q0 -3 -5 -9t-7.5 -11.5t-2.5 -18v-17.5q-10 -20 -20 -26 q-23 -5 -39 23z" />
<glyph unicode="U" horiz-adv-x="593" d="M46 179q0 13 1.5 45t1.5 47q0 31 2 39q0 5 6.5 12.5t6.5 12.5q3 13 3 37.5v34.5q12 14 12 66v8q10 15 13 21q0 15 9 40.5t9 46.5q0 3 5 9t8 11q3 10 1.5 32t0.5 32q3 3 8 10.5t5 10.5v41q5 15 19.5 35.5t34.5 15.5q8 -8 10.5 -28.5t4.5 -27.5q-10 -36 -10 -49 q-10 -20 -13 -31v-43q0 -5 -5 -21v-38l-10 -21q-5 -13 -10 -41t-5 -33q-5 -8 -11 -18q-3 -10 -4 -29t-3.5 -33.5t-7.5 -24.5q0 -8 -1.5 -32t-3.5 -40q0 -3 -5 -9t-5 -8v-98q0 -3 -2.5 -14t0 -16.5t8.5 -10.5t6 -7q3 -41 39 -67q8 3 20.5 -1t20.5 -4q3 0 8 2.5t7 2.5h33 q5 0 14 6.5t15 6.5q5 8 64 59q10 5 12 10q5 5 15.5 20.5t18.5 23.5q0 5 28 46q3 3 2 12q13 26 13 31l8 8t8 10q0 36 15 59q-3 10 10 51l10 79q0 3 8 18q0 8 -5 24.5t-5 24.5v26q0 5 -4 19t-4 19q-10 20 -10 31q3 8 20 25q10 3 31 3q10 -3 16.5 -10.5t11.5 -17.5t11 -16v-80 t-3 -81q0 -8 -5 -22t-8 -24q-5 -77 -13 -87q0 -5 -1 -14t-1 -14q-3 0 -13 -18q3 -15 -6 -29.5t-9 -26.5q-15 -15 -18 -31q-36 -54 -46 -77q-20 -10 -26 -28q-8 -5 -27 -27t-37 -27q-20 -15 -31 -25q-13 -3 -29.5 -14.5t-21.5 -14.5q-18 -5 -40.5 -5t-48.5 5q-3 3 -40 19.5 t-50 34.5q-3 10 -18 39v17q0 3 -5 10.5t-8 13.5q-3 8 -2.5 23t0.5 25q0 3 -1.5 10.5t-1.5 12.5z" />
<glyph unicode="V" horiz-adv-x="757" d="M49 640l18 13q5 15 10 18q13 26 41 20q5 -10 10 -31q0 -15 4 -26.5t14 -21.5t13 -16v-10q10 -8 19 -27t11 -21q0 -59 8 -87q0 -3 2.5 -9.5t2.5 -11.5q3 -8 0.5 -19.5t-2.5 -16.5t1 -12.5t1 -10.5v-68t5 -80v-67q0 -5 -2 -15q-3 -20 5 -26q10 3 10 16q5 5 11.5 19t14.5 19 q0 10 15 31q0 5 5 20q8 15 31 41l13 21q3 3 11.5 14t16.5 16q8 28 28 49v13q18 23 18 30q0 3 5 7t8 6q3 5 2 16q3 3 7 7.5t6 7.5q3 13 15.5 28.5t15.5 20.5q-5 10 5 23q3 5 5 7q13 26 15.5 28.5t2.5 10t3 13.5q0 3 5 9t7 11q0 13 31 44q0 10 7.5 21.5t5.5 24.5l13 12 q13 26 46 64q0 8 13 29q0 10 10 18q5 5 8 10q5 20 40 51q5 0 19.5 2.5t21.5 0.5q23 -18 21 -41q-8 -10 -18 -41l-20 -13q-8 -5 -31 -39q-3 -3 -3 -10l-15 -15q0 -10 -4 -18t-13 -15.5t-11 -12.5q0 -13 -4 -22t-14 -20.5t-13 -14.5q0 -8 -9 -20.5t-9 -22.5q-5 -5 -12.5 -16.5 t-13.5 -16.5q3 -13 -10 -26l-5 -5v-13q-3 -5 -8 -10t-7 -8q3 -3 0 -8t-3 -7.5t-3.5 -6t-6.5 -9t-3 -11.5t-2 -9q-8 -10 -20.5 -33t-20.5 -34q0 -3 -1.5 -5t-1.5 -7l-15 -16v-18q-10 -10 -28 -35.5t-28 -35.5q-3 -15 -17 -30.5t-17 -31.5q-10 -10 -12 -15v-10 q-20 -41 -57 -77l-5 -16q-5 -5 -19 -20t-22 -26q0 -31 -2 -41q-3 -5 -8 -10t-5 -10q0 -13 -5 -28q-5 -3 -19.5 -12t-26.5 -9l-23 23q-3 20 -3 131q0 13 5 46t5 51q4 53 4 79q0 10 -1 16q0 8 -6.5 29.5t-6.5 34.5v69v61q0 5 -4 11.5t-4 9t-7 66.5q-3 3 -7 10.5t-6 10.5 q3 15 -7.5 29t-10.5 20q-13 3 -24.5 13t-8.5 25z" />
<glyph unicode="W" horiz-adv-x="737" d="M46 67q0 15 5 48t5 44v51t3 49q0 3 4 15.5t4 19.5q0 5 -3 20.5t0 23.5q0 8 5 28v26q0 3 2.5 10.5t2.5 9.5q3 8 -1 22t-4 22l3 5v7q0 8 -2.5 28.5t-2.5 28.5q0 10 7.5 29t7.5 22q-10 20 -5 44.5t23 29.5q41 -3 41 -64q0 -5 -1.5 -14t-1.5 -11v-46q0 -105 -2 -151 q-3 -23 -1.5 -43.5t-1 -41t-10.5 -31.5q5 -5 1 -21.5t-4 -21.5q8 -23 8 -26q0 -5 -3 -15q-5 -5 -5 -10v-36q0 -8 -1 -23.5t-1 -25.5t2.5 -23t7.5 -20q20 26 23 41q10 10 21.5 31.5t19.5 29.5l3 5q0 5 2 5q3 5 8 10q3 5 5 8q3 5 8 16.5t7.5 17t7.5 10.5t8 7q5 5 10 16 q3 5 4 15t1 13q15 33 15 38q3 5 13 22t16 27q5 5 21.5 23t29.5 26h30q13 -13 21 -23l15 -116l16 -23q3 -3 2.5 -9t-0.5 -9q0 -5 8 -15t5 -20q3 -8 14.5 -8t13.5 5v18q18 18 18 28q10 10 21.5 33t19.5 34q18 59 18 79q3 3 6.5 9t6.5 11q0 5 1 13t1 10l11 21l15 61q0 5 1 24.5 t4 27.5l8 20q8 18 5 31q3 5 6.5 10t6.5 10q3 8 2.5 41.5t9.5 43.5q5 77 23 100v2q23 0 29 -25q0 -3 -1.5 -9.5t-1.5 -11.5q0 -8 2.5 -20.5t2.5 -17.5t-2.5 -20.5t-2.5 -26t1.5 -40t-3.5 -31.5q-3 -5 -8 -13t-5 -10v-44q0 -5 -5.5 -10t-5.5 -10q-3 -8 -2.5 -24.5t-2.5 -26.5 q-15 -28 -15 -36v-36q0 -5 -5 -11.5t-5 -11.5q0 -3 -16 -49q0 -5 -2.5 -15t-2.5 -15q0 -3 -5 -9.5t-8 -11.5l-7 -31q-5 -5 -10.5 -15t-10.5 -15q0 -20 -2 -34q0 -3 -4 -6.5t-6 -8.5q-3 -3 -4.5 -5.5t-3.5 -4.5q0 -3 -6.5 -9.5t-6.5 -8.5q-5 -5 -31 -26q-23 -10 -61 -7 q-20 15 -31 18q-10 8 -20.5 25.5t-17.5 25.5q0 8 -13 43q-10 26 -15 31l-8 20q-5 3 -10 -7l-5 -8q0 -3 -4 -6.5t-4 -6.5q-3 -5 -3 -18q-15 -28 -12 -33q-5 -5 -16 -18l-8 -8t-5 -10q-3 -3 -2 -13l-13 -12q0 -3 -2.5 -8t-2.5 -8q-10 -18 -12.5 -23t-9 -14t-9.5 -14 q-15 -38 -66 -95q-26 -13 -49 -20q-8 3 -17 9t-11 9q0 15 -16 36q-15 77 -15 82z" />
<glyph unicode="X" horiz-adv-x="762" d="M46 107.5q0 5.5 7.5 14.5t5.5 16q8 8 33.5 42.5t46 52.5t45.5 28q10 13 34.5 33.5t34.5 33.5q-3 44 -30 94q0 3 -1.5 10.5t-1.5 13t-5 10.5t-5 10q-3 10 -18 31v12q-23 31 -26 44l-7 54q0 3 -9 14t-12 19q-10 33 0 44q5 15 31 15l8 -8q24 -26 24 -44q0 -11 -9 -20 q5 -8 15 -15q8 -5 13 -10q0 -3 10.5 -18.5t7.5 -27.5l8 -8t5 -10l15 -31q-3 -8 16 -36v-13q18 -31 18 -38q5 -5 10 -18t7 -18q8 0 15.5 6.5t15.5 6.5q23 15 31 28q23 8 66 51q8 10 26 28q3 3 12 10.5t14 12.5q31 31 48 46h3q5 3 8 3q8 5 30.5 28t38.5 36l20 10 q5 5 16.5 20.5t19.5 20.5q10 0 10 5q3 0 8 5q33 23 38 6q3 -8 -11 -26t-14 -26q-20 -26 -34 -38q-5 -8 -19 -19.5t-19 -16.5q-20 -28 -28 -33q-8 -10 -21 -13l-11.5 -11.5t-16.5 -11.5q-8 -5 -24.5 -28t-31.5 -31q-18 -23 -41 -41l-5 -2h-5q-44 -36 -49 -44q-8 0 -13 -2 q-28 -23 -43 -41q0 -3 -4 -7t-4 -6q-5 -15 4 -36t9 -31q3 -3 8 -9t7 -9q-3 -10 5 -21.5t8 -14v-14t3 -16.5q3 -3 7.5 -15.5t7 -18t8 -9t5.5 -6.5v-5q3 -5 2 -8l11 -10q5 -10 7 -18q0 -3 5 -10.5t5 -12.5q3 -5 8 -9t5 -6q0 -20 23 -26q3 -3 12 -10.5t11 -14.5q2 -8 2 -15 q0 -24 -25 -42q-3 0 -14 -2.5t-16 0.5l-23 23q-3 5 -12 14l-11.5 11.5t-7.5 12.5l-10 10q-3 5 -3 16.5v17.5q0 3 -5 7.5t-5 7.5t-1.5 6.5t-3.5 6.5q-15 31 -16 33q0 5 -5 10q-8 5 -8 8l3 5q0 5 -3 8q-3 5 -7.5 10t-4.5 10q0 10 -8 25.5t-10 28.5q-3 5 -8 10q-3 5 -5 8 q0 13 -7.5 27t-15.5 14q-2 0 -15 -10q-3 0 -8 -5.5t-8 -5.5q-8 -5 -25.5 -20t-28.5 -23q-3 0 -5 -5q-31 -18 -15 -34q5 0 10 5.5t8 5.5q15 -10 -5 -21q-3 -8 -16 -20q-3 -5 -7 -10q-20 -20 -26 -21q-5 -3 -15 -3q-5 -3 -10 -2q-5 -3 -10.5 -6.5t-10.5 -6.5q-13 0 -18 2.5 t-13 15.5q0 3 -5 9t-5 11.5z" />
<glyph unicode="Y" horiz-adv-x="665" d="M46 538q0 54 26 135q-4 31 -4 51q0 7 1 13q30 54 76 54h3q13 -8 13 -20q0 -10 -15 -25.5t-18 -28.5v-33q0 -5 -7.5 -10.5t-7.5 -10.5q-3 -8 3.5 -17t6.5 -14t-4 -53.5t9 -48.5q10 -10 30.5 -12.5t36.5 9.5q15 -3 35.5 6.5t33.5 9.5q23 18 59 25q5 3 10 8l7.5 7.5 t12.5 2.5q36 28 44 31q3 0 14 10t19 16q23 23 31 28q3 3 10 5l5 5l8 15q3 3 10.5 12t9.5 14l10.5 10.5t12.5 9.5q0 10 9 23t7 26q10 20 34.5 32t52.5 -1q13 -23 -8 -57q-3 -3 -2 -7l-6 -5q-3 -5 -25 -29q0 -3 -16 -33q-3 -3 -4 -9t-1 -8.5t-10 -13.5q0 -10 -2 -15l-11 -10 q-3 -3 -2.5 -6.5t-2 -6l-8 -8t-5.5 -7.5l-15 -31q3 -5 0 -14t-3 -12q-13 -13 -12 -58q-8 -8 -17 -26t-12 -23q0 -13 -8.5 -32t-6.5 -37q-31 -36 -31 -80q-8 -8 -15.5 -24.5t-12.5 -21.5q0 -10 -5 -23l-5 -15q0 -3 -1.5 -10.5t-3.5 -10.5q-15 -38 -15 -41q-5 -8 -16 -17v-6 q-3 -5 -2 -7q-10 -8 -20.5 -32.5t-18.5 -31.5q0 -10 -9 -27t-9 -30l-15 -15q0 -5 -1.5 -10t-1.5 -8q-10 -13 -20 -46t-18 -46q-3 -5 -3 -20q0 -5 -7.5 -10.5t-7.5 -10.5t-13 -31q-3 -13 -2 -41q-15 -20 -18 -30q-10 -10 -23 -13q-20 3 -29.5 24.5t8.5 36.5q-3 15 0 29.5 t9.5 30t8.5 25.5q8 5 13 25.5t13 25.5q5 10 5 20q5 8 11.5 26t13.5 26q0 3 3 7v5q8 10 19.5 47.5t24.5 50.5q0 3 1 9t1 9q8 13 24.5 52.5t31.5 57.5q0 13 16 33q0 8 13 33q0 3 10 32.5t20 39.5q0 8 5 18q3 5 5.5 9t5 9t2.5 14v14q3 5 8 11.5t5 8.5q-3 5 -1.5 13t1.5 10 q3 3 6.5 10.5t6.5 10.5q3 13 11.5 35t11.5 37q-13 0 -22 -5.5t-19 -15.5t-18 -13q0 -3 -10 -2q-5 -5 -14 -10.5t-14 -7.5l-11 -10q-8 0 -12 -3q-28 -15 -41 -13q-5 -3 -11 -7q-5 -5 -7 -8q-41 0 -54 -15q-31 -5 -46 -6q-38 8 -41 8l-6.5 6.5t-8.5 6.5q-31 15 -36 20 q-3 3 -5 8l-3 5q-15 20 -18 39z" />
<glyph unicode="Z" horiz-adv-x="972" d="M46 548q0 15 21 36q23 5 112 5q5 0 15.5 6.5t15.5 6.5t105 7q10 8 37 6.5t42 1.5q3 0 10.5 5t12.5 8q13 3 37.5 2.5t39.5 -0.5q3 3 9 7l9 6q8 0 31 4t36 1l20 10q10 3 55 3t60 8q39 8 57 -18v-44q-3 -5 -12 -12.5t-14 -15.5t-5 -18q-13 -15 -28 -28v-8t-3 -7 q-8 -13 -29.5 -35t-26.5 -27q-3 -3 -3 -13q-8 -5 -24.5 -23t-26.5 -25q-5 -3 -15.5 -9.5t-15.5 -11.5t-12.5 -14t-12.5 -11q-3 -3 -9.5 -8t-9 -7.5l-7.5 -7.5t-10 -8q-8 3 -17 -6t-11 -9q-3 -3 -11 -3q-3 0 -5 -5l-2 -5q-8 0 -13 -5l-23 -16q-15 -8 -35.5 -29.5t-33.5 -29.5 q-8 -10 -26 -26.5t-25 -26.5q-18 -13 -23 -28q5 -5 25.5 -6.5t25.5 -4.5q31 0 41 5q5 3 15 -6t15 -9q8 -3 24.5 -2.5t27.5 0.5q64 0 71 -8l5 2h6q5 -10 56 -8q28 1 46 2q14 0 20 -1q3 0 9.5 -4t11.5 -4t14 2.5t12 2.5q8 3 20.5 -1t17.5 -4q3 0 13 -4t18 -1q3 0 10.5 5 t12.5 8h44.5t39.5 10q5 -5 31 -10q8 -8 18 -34q-26 -38 -33 -41q-15 3 -36 -12q-13 -3 -38.5 -3h-38.5q-3 0 -10.5 -1t-12.5 -1t-22 1t-24 1h-77q-5 0 -14 2.5t-14 2.5h-16q-20 0 -28 10h-39.5t-47.5 6q-5 0 -15 3.5t-15 3.5q-3 3 -8 0.5t-7.5 -2.5t-8 2.5t-10.5 2.5 q-31 3 -43 13q-82 0 -103 7q-15 3 -52 -4.5t-50 2.5q-10 8 -10 54q18 13 18 25q33 38 56 57q3 0 3 5t2 5q13 10 41 37t49 39q10 13 23 24.5t29.5 24.5t23.5 21q15 5 37 24t38 24q13 10 50 43.5t60 48.5q3 5 10.5 17t9.5 22q10 15 13 25q3 5 14.5 14t13.5 15q-5 13 -33 5 l-21 -13h-32t-32 -3q-5 0 -12.5 -5t-12.5 -5q-18 3 -45 -6t-40 -9q-10 -3 -34 -4t-35 -1q-5 0 -21.5 1t-24.5 1q-26 -5 -41 -8q-15 -5 -43 -5q-20 -10 -34 -10q-5 0 -16.5 -2.5t-18.5 -2.5q-3 0 -8 2.5t-7.5 2.5t-24.5 -4t-35 -1q-31 23 -33 36z" />
<glyph unicode="[" horiz-adv-x="737" d="M44 -15q0 5 6 10t6 10t2.5 13t2.5 10q3 5 13 10.5t13 7.5q0 8 6.5 19.5t6.5 16.5t1 18t4 20q0 5 8 11q3 5 5 7v16q3 5 7 10l8 8q3 5 1.5 22.5t1.5 25.5q3 5 7.5 15.5t4.5 12.5v23q0 3 9 16t9 23q8 5 13 33q0 3 9 17t7 27q0 3 12 20v28.5t3 25.5q0 5 5 10t5 10 q3 13 4 37.5t1 31.5q13 36 16 44l5 8q5 8 5 10q0 31 2 43q3 3 7 9.5t6 8.5q3 15 3 42v40q5 15 5 28q3 26 0 52q13 33 8 56l-6 8q-5 8 -5 10q0 8 11 18q0 15 7 18q23 5 26 7q15 -8 72.5 -5t65.5 -13q23 0 68 -1t68 -1q3 0 9 -6.5t11 -6.5q8 0 32.5 -1.5t36.5 -3.5 q10 -8 16 -59q-8 -18 -18 -18q-3 0 -26 5q-3 0 -15.5 -2.5t-20.5 0.5q-26 5 -43 5q-56 0 -64 13q-5 0 -18 3.5t-21 6.5q-8 0 -34.5 1t-39.5 4q-25 7 -30 -3q-3 -8 2 -16.5t5 -13.5t-2 -16q-5 -5 -5 -10q-8 -13 -7 -50t-4 -55q-13 -26 -10 -38q-8 -8 -11.5 -36t-6.5 -36 l-8 -8t-5 -7v-57q0 -5 -7.5 -15t-7.5 -15v-27t-5 -32q0 -5 -5 -11.5t-5 -9.5v-23q0 -5 -5.5 -11.5t-5.5 -9t-1 -11.5t-4 -11q0 -3 -5 -10.5t-5 -12.5v-7t-3 -6q0 -3 -6 -8t-6 -10t-1.5 -25.5t-3.5 -30.5q-3 -5 -13.5 -17t-12.5 -14q0 -28 -5 -69l-39 -54q3 -5 -6 -15.5 t-9 -12.5q-5 -18 -13 -21h-15.5t-14.5 -5q0 -8 20 -7l31 -31q10 3 46 -10q13 -8 74 -5.5t85 0.5q33 -20 89 -16h31q13 -5 24.5 -26.5t11.5 -24.5q-3 -5 -1.5 -15.5t1.5 -12.5q-3 -5 -9.5 -13t-6.5 -10q-3 -3 -9 -8t-11 -8q-23 -8 -67 36q-13 0 -38 10q-46 0 -67 3 q-20 8 -41 8q-15 3 -43 1.5t-41 0.5q-31 10 -72 16q-3 3 -7 5q-10 10 -26 7q0 3 -19 18.5t-19 33.5z" />
<glyph unicode="\" horiz-adv-x="696" d="M46 847q15 26 36 29q23 -3 49 -29q23 -8 61 -46q3 -8 1.5 -28t3.5 -25q36 -59 54 -80q0 -5 1 -7.5t1 -5t9 -10.5t7 -18l8 -8t5 -10q0 -8 18 -25q0 -8 2 -11l5 -10q8 -13 5 -25q5 -8 15.5 -17t12.5 -14q3 -3 3 -10q3 -5 6.5 -9t6 -6.5t2.5 -8t3 -7.5q3 -5 11.5 -10 t11.5 -11q0 -8 9 -18t9 -12q3 -3 2.5 -8t-0.5 -7.5t5.5 -7.5t5.5 -8q0 -10 2 -13l23 -31q0 -8 21 -48l15 -31q0 -8 8 -19.5t8 -21.5q5 -5 15 -10q3 -18 20.5 -36t20.5 -26q5 -5 15 -33q0 -3 2.5 -9t2.5 -9q5 -10 19.5 -16.5t17 -9t15.5 -53.5l7 -23q5 -8 13 -13v-10 q13 -13 15 -18q0 -8 -9 -18t-9 -15q-33 -5 -48 -3q-13 8 -28.5 26t-22.5 25q0 3 -3 7t-3 6q-13 8 -26.5 28.5t-19.5 25.5q-3 0 -9 -0.5t-9 2.5q-5 5 -8.5 20.5t-8.5 20.5q0 51 -6 64l-10 13q-5 3 -10 13t-8 13q0 3 -1 10.5t-1 12.5l-5 5q-5 5 -6 10q0 3 -1 6.5t-1 6.5 q-8 5 -15.5 19t-15.5 19q-3 8 -9 19.5t-9 19.5l-13 25q-18 23 -12 36q-15 15 -32 48.5t-25 43.5v5.5t-2 5.5q-3 5 -9.5 8.5t-8.5 6.5v15q0 3 -6.5 8t-6.5 8v12q-8 8 -20.5 31t-22.5 33q0 3 -16 26v15q-15 15 -18 29q-38 49 -41 48q0 3 -1 8t-1 7.5t-6.5 6.5t-6.5 6v16 q-3 8 -15.5 23t-15.5 28q-3 5 -15.5 15.5t-12.5 22.5z" />
<glyph unicode="]" horiz-adv-x="788" d="M51 -87q-5 31 3 41q3 8 16.5 15.5t16.5 10.5q49 -3 102 15h126h66q5 0 11 5q5 8 7 8q13 0 34 15q5 0 17.5 1.5t20.5 1.5q5 0 10 6t8 6q8 0 13 3q3 0 8 5t7 8q3 0 8 1t7 1q18 18 18 21q3 3 0.5 8t-2.5 7v16v17q0 8 5 18l5 11q0 13 -5 35.5t-5 33.5q5 10 5 18v15t3 15 q0 3 5 9.5t7 11.5q3 8 3 22v24q3 5 8 10t5 10q0 10 9 32t6 40q10 8 15.5 33.5t15.5 33.5v41q3 5 8 14t7 16v90q0 56 3 84q3 3 4 9.5t1 9t-1.5 12.5t-1.5 13q0 5 2.5 18t0.5 20q0 5 -3 16q-5 5 -5 10q0 8 1.5 28.5t-1.5 30.5q-8 13 -56 7q-23 0 -31 -2q-5 -3 -11.5 -6.5 t-8.5 -3.5q-5 -3 -20.5 -7t-20.5 -9q-5 -3 -15.5 -2.5t-15.5 -2.5q-13 -8 -40 -11.5t-34 -6.5q-3 0 -13 4t-15 4q-5 -3 -15.5 -8t-15.5 -7q-18 -5 -41 0q-5 3 -16 7q-15 8 -33 5q-3 0 -10.5 -3.5t-12.5 -3.5q-10 0 -19 11.5t-9 21.5q0 13 28 33q23 0 49 16q23 3 69 2h72 q3 0 10.5 5t12.5 8t12.5 0t12.5 0t11.5 8t9.5 7q8 3 23 3h25q5 0 14 5t15 5q3 0 15.5 1.5t17.5 4t14 6.5t11 4q10 3 31 2.5t28 -0.5q15 -3 24.5 -15.5t14.5 -22.5q0 -3 7 -41q0 -20 3 -31q0 -5 5 -11.5t5 -11.5q3 -10 3 -37t5 -32l-8 -103l-8 -46q0 -3 -2.5 -11.5 t-2.5 -13.5q0 -13 1.5 -50t-1.5 -48q-3 -8 -12 -23q0 -5 -3 -10t-3 -10l-7 -15q-3 -8 -3 -19.5t-2 -16.5q-3 -3 -8 -10.5t-8 -10.5q0 -51 -2 -61q0 -5 -5.5 -11.5t-5.5 -11.5v-28q0 -3 -6 -10.5t-9 -12.5q3 -18 -6 -38.5t-9 -33.5q0 -8 6.5 -15.5t6.5 -12.5q5 -13 -4 -40 t-9 -34v-44v-38q-3 -8 -13 -18.5t-13 -12.5h-20.5t-22.5 -3q-8 -5 -39 -28q-13 0 -29.5 -9t-31.5 -4l-46 -30q-5 -3 -15.5 -3h-18.5q-8 -3 -28 -13q-13 0 -20 -2q-5 0 -13 -1.5t-10.5 -1.5t-12.5 1.5t-15.5 1.5t-11.5 -6.5t-11 -6.5q-8 -3 -21 -3t-18 -5q-18 10 -66.5 7.5 t-71.5 2.5q-18 3 -31 21z" />
<glyph unicode="^" horiz-adv-x="430" d="M-179 -302q5 5 16.5 15.5t16.5 15.5q0 3 41 59q3 3 3 12q8 8 30 49q13 10 35 37t34 37q3 0 3 5l3 5q31 41 43 67q5 3 13 10.5t13 9.5q13 18 43.5 50t43.5 48l5 2q5 3 5 5q51 44 90 85l38 31q3 0 26 15h43q5 -3 10 -13t8 -13v-66q0 -5 -1.5 -13t-1.5 -10q0 -13 3 -35 t1.5 -38.5t-11.5 -29.5q0 -59 -13 -89v-82q0 -13 -5 -39v-48q0 -36 5 -44q8 -3 33 5q23 -5 5 -53q-8 -5 -16.5 -25.5t-18.5 -28.5q-33 -8 -44 -3q-8 5 -14 14t-12.5 22t-11.5 18q3 15 0 44.5t-3 40.5q-3 5 -1.5 15t1.5 12.5t-2.5 9t-2.5 11.5q0 3 4 13t4 18q3 15 0 56t2 51 q0 3 5 13.5t5 15.5q3 26 4.5 80.5t3.5 80.5q-23 5 -36 -33q-13 -13 -54 -36q-5 -10 -17.5 -27t-17.5 -27q-36 -31 -100 -100q0 -5 -5 -15q-5 -8 -18 -23.5t-18 -22.5q-18 -31 -64 -72v-9t-3 -6q-3 -5 -18 -28t-25 -34q0 -5 -3 -10v-5q-8 -8 -18 -8q-10 -18 -39.5 -25.5 t-44.5 15.5v18z" />
<glyph unicode="_" horiz-adv-x="1310" d="M46 -87q-8 28 21 51q113 0 145 -18h128q5 0 18 2.5t21 0.5q5 0 15 -2.5t16 -2.5q8 -3 19 -0.5t16.5 2.5t11.5 -1t9 -1q8 -3 23 2q90 8 95 10l46 8q5 0 15 -1t15 -1q18 0 55.5 1t57.5 1q84 0 126 -5q8 3 56 3q13 0 38.5 1t35.5 1q5 0 10 -2.5l11 -5.5h20q26 -8 31 -5 q5 -3 11.5 0t11.5 3q8 0 31 -4t35 -1q5 3 10.5 8t10.5 7q20 0 25 -2q18 -8 27 -29t-1 -41q-51 -10 -66 -20q-23 3 -82 1.5t-77 3.5l-21 10q-26 -8 -46 0q-18 0 -43 -10q-67 -5 -100 0q-8 0 -18 5q-5 0 -13 -2.5t-13 -2.5t-15 -2.5t-15 -2.5q-10 0 -38.5 2.5t-43.5 0.5 q-20 -3 -69 -3h-67q-3 0 -10.5 -5t-12.5 -5q-41 -10 -84 7q-8 3 -18.5 -2t-18 -5t-15 5t-12.5 5q-13 0 -45 2.5t-40 -2.5q-3 0 -10.5 -5t-12.5 -5q-15 -8 -38 -3q-5 0 -10.5 6.5t-12.5 6.5h-57q-5 3 -12.5 8t-10 5t-10.5 -4t-13 -1q-31 8 -46 33z" />
<glyph unicode="`" horiz-adv-x="394" d="M46 852l3 8q3 10 5 18q5 20 7 21q42 0 47 -3q3 -3 10 -15.5t13 -17.5v-16q0 -5 7.5 -11.5t7.5 -13.5q8 -8 18 -27t15 -27q5 -3 15.5 -9t17.5 -9q8 -10 30 -28t32 -28q10 0 26.5 -10.5t29.5 -10.5q13 -13 23 -30q0 -5 2.5 -24.5t0 -31t-9.5 -19.5q-5 0 -16 5 q-20 15 -25 31q-3 3 -23 13l-6 8q-3 5 -5 5q-5 5 -14 9t-11 6q-5 3 -16 3q-61 36 -82 56l-10 5q-5 8 -38 49q0 3 -1.5 5t-1.5 5q-5 3 -15 26q-5 10 -7.5 12.5t-2.5 6.5t-2.5 6.5t-13 14t-10.5 18.5z" />
<glyph unicode="a" horiz-adv-x="675" d="M46 77q0 46 13 56q3 3 2.5 6.5t2.5 6.5q8 10 41 41q3 3 24.5 20.5t39.5 22.5l17 17t29 12q5 3 10 7.5t11 4.5q10 0 20 5.5t19 14.5t17 11q28 -5 52.5 23t49.5 18q15 -13 21 -36q3 -8 -1 -20.5t-2 -17.5q0 -3 10.5 -8t12.5 -10q0 -15 6.5 -42t6.5 -45q10 -8 24 -31t22 -31 q3 -5 3 -15q41 -31 64 -38q36 -36 38 -41q8 -3 31 -26q0 -28 -18 -36h-16l-30 16q-8 5 -21 14t-18 11q-10 3 -25.5 10.5t-25.5 10.5q-10 8 -19 16.5t-20.5 24t-16.5 20.5q-3 29 -23 49q-10 -8 -27 -23.5t-22 -20.5q-3 -8 -8 -18q-15 -10 -46 -36q-5 -13 -12 -15q-8 0 -11 -2 q-5 -3 -8.5 -7t-6.5 -4t-8 -1t-7 -4q-5 -3 -13 -5t-13 -5q-15 -3 -46 -3h-51q-10 3 -39 41q-8 10 -18 41q-10 10 -15 21zM123 115q-13 -36 6 -59t58 -20q28 18 46 15q8 3 18 13t15 13l16 7q3 3 5 8l2 8q18 13 38.5 42.5t28.5 36.5q3 18 15 31q5 49 10 56q-10 5 -15 0 l-51 -25q-26 -20 -44 -26h-10.5t-9.5 -3q-5 -3 -11.5 -7.5t-9.5 -4.5q-10 0 -12 -3q-8 -5 -21 -16.5t-23 -19t-23 -10.5q-8 -5 -15.5 -18t-12.5 -18z" />
<glyph unicode="b" horiz-adv-x="532" d="M44 84q12 21 12 85v10q10 10 16 18q0 23 12 44q3 26 16 46q0 10 2 15q15 15 16 51q0 5 5 10.5t8 10.5v20.5t2 17.5q3 5 8 11.5t5 9.5q0 13 7.5 29.5t7.5 23.5q3 3 7 10.5t6 10.5q0 5 1.5 15t1.5 16l7.5 7.5t4.5 7.5q1 27 11 71q8 34 8 59q0 7 -1 13q15 18 11 59 q0 3 -8 13t-8 19q0 29 41 50q33 -3 44 -49q-13 -28 -5 -58q0 -5 3.5 -14t3.5 -15q0 -10 -5 -29t-5 -22q-3 -5 -3 -14v-11.5t-6 -19t-4 -26.5l-15 -70l-15 -15q0 -13 -3 -18q0 -3 -4 -9t-6 -11q-3 -8 -4 -26t-4 -26q0 -3 -4 -9t-4 -8q-3 -3 -2 -13q-3 -5 -9.5 -10.5 t-6.5 -10.5v-33q0 -3 -6 -9t-6 -11q-3 -5 -0.5 -10.5t2.5 -7.5q0 -15 -9 -38.5t-9 -33.5q0 -3 -8 -14t-5 -19q5 -3 10.5 3.5t7.5 6.5q3 3 8 2h5q18 10 49 36t46 36q10 3 24 14.5t22 13.5q10 0 27 1.5t29 1.5q26 14 55 14q8 0 17 -1q15 -10 26 -21q-3 -10 7 -20q5 -8 8 -10.5 t0 -20.5t-3 -23t-5 -14t-7 -17q-23 -36 -49 -64l-54 -38l-7 -16q-5 -3 -22 -16.5t-27 -18.5q-8 0 -15.5 -8t-12.5 -8q-3 -3 -8 -2h-5q-5 -3 -49 -26q-8 0 -20.5 -7.5t-15.5 -10.5h-23q-3 0 -11.5 -4t-13.5 -4q-23 3 -44 18q-23 15 -28 21q-10 10 -13 31q-18 31 -12 58z M118 38q10 -23 41 -15q8 3 30 13q5 3 17 4t17 1q44 26 48 26q5 5 17 15t17 15h10q8 8 25.5 26t25.5 25q8 18 31 41t31 34v18q-10 10 -31 0q-8 -3 -13 -5.5t-18 -4t-18 -1.5q-33 -28 -36 -28q-13 0 -20.5 -2.5t-16.5 -12.5t-14 -13q-28 -18 -33 -18q-15 -23 -57.5 -47.5 t-52.5 -31.5q-5 -28 0 -39z" />
<glyph unicode="c" d="M46 133q0 36 3 51q3 5 10.5 18t4.5 21q3 8 13 18v20q3 3 33.5 41t48.5 56q8 3 36 26q18 18 25 20q5 3 15.5 4.5t15.5 6.5q13 5 72 5q3 -5 16.5 -14t13.5 -17q2 -5 -18 -25q-13 -3 -42 -4.5t-42 -8.5q-3 -3 -8 -9.5t-7.5 -9t-15.5 -9t-18 -11.5q-15 -10 -23 -30 q-5 -5 -20.5 -22t-20.5 -30q0 -15 -13 -41q-3 -8 -4 -19t-1 -16l-7 -36q0 -3 3.5 -9.5t3.5 -8.5q3 -5 4 -13t1 -10q3 -8 16 -19.5t15 -19.5q26 -15 69 -32h29.5t32.5 -3q23 -13 33 -11q3 0 9 4t9 4q8 3 23 4t20 2q15 15 59 14q41 20 46 26h6q8 0 10 3q5 5 19 15t17 13h11.5 t8.5 2q3 0 8 5.5t10 5.5q13 0 13 -18q-3 -15 -28.5 -29.5t-28.5 -22.5l-15 -5q-15 -15 -46 -41l-31 -15q-8 -3 -22 -1.5t-19 1.5q-5 -3 -8.5 -9t-6.5 -6q-13 3 -31 -5t-25 -8h-46q-31 3 -41 13q-8 3 -24.5 1.5t-24.5 0.5l-8 8t-7 5h-18q-23 15 -28 15q0 3 -49 41 q-3 10 -10.5 24.5t-10.5 24.5q-15 13 -15 69z" />
<glyph unicode="d" horiz-adv-x="532" d="M46 54q10 20 10 33q15 20 50 49.5t50 47.5q3 3 10.5 9.5t15.5 6.5q5 3 10 7l8 8h38q3 0 13 -9t20 -6q5 -3 10.5 -9.5t7.5 -6.5q8 5 14.5 22t8.5 22q0 3 5.5 10.5t5.5 10v7.5t2 5l8 31q10 20 10 31q0 5 10 20q0 51 16 72q3 8 1.5 27t3.5 24q0 5 5 12.5t5 10.5v56 q15 18 15 72t5 74l8 23q3 18 3 54q5 10 10 20.5t16.5 17t26.5 0.5q5 -3 18 -25q3 -18 3 -121q0 -51 -28 -84q-3 -10 -3 -34.5v-34.5q-13 -26 -13 -90q-3 -5 -6.5 -14t-3.5 -11v-21q-5 -10 -5 -15t-8 -72l-7 -23q0 -36 2 -51q-2 -13 -2.5 -37.5t2.5 -59.5q0 -46 8 -54 q13 0 27 19t32 17q18 -13 -8 -39q-3 -8 -2 -30q-5 -10 -20.5 -25.5t-20.5 -23.5q-8 -3 -26 -3q-23 15 -54 67q5 5 0 5v41q0 31 -5 33q-18 -5 -20 -15l-5 -15q0 -3 -9 -12t-7 -19q-8 -8 -15.5 -24.5t-12.5 -24.5q-10 -8 -26.5 -31t-27.5 -30q-10 -3 -25 -18q-13 3 -23 -8 q-5 -5 -8 -7h-61q-20 15 -31 17q-8 20 -21 34q0 15 -5 42t-5 45zM118 3q18 -18 20 -18q5 0 13 5t15 2q51 38 85 95v13q3 5 8 10t7 8q0 5 10 20t-5 18q-10 -3 -30.5 -2.5t-28.5 -2.5q-13 -10 -39.5 -38.5t-44.5 -38.5q-11 -11 -11 -46q0 -11 1 -25z" />
<glyph unicode="e" horiz-adv-x="542" d="M44 179l7 39q13 20 16 30q0 3 5 7t5 6q15 41 56 72h10q15 13 54 36t54 38q11 2 21 2q25 0 40 -15q31 0 46 -15q31 0 49 -15q18 -18 13 -52q-8 -15 -14.5 -29t-19 -25.5t-30.5 -16.5q-5 -5 -16.5 -13t-16.5 -13q-13 -3 -35 -15.5t-24 -15.5q-28 0 -44 -15q-36 0 -61 -15 q-36 0 -41 -8q0 -3 23 -72q3 -3 11.5 -8t11 -10t5.5 -10t3 -8l5 -2q5 -3 10 -5q3 0 6.5 -2.5t6.5 -5.5q0 -3 5 -5.5t7 -2.5q36 -13 49 -10q3 -3 51 -2q41 0 44 2q20 3 56 13q3 -1 7 -1q17 0 57 11q18 -5 21 -15q0 -10 -31 -26q-3 0 -8 -5t-10 -8h-13q-5 -3 -20.5 -7.5 t-20.5 -10.5q-5 -3 -11.5 -6.5t-8.5 -3.5q-3 -3 -14.5 -2.5t-14 0.5t-10 -5.5t-12.5 -7.5q-26 -5 -60.5 5t-52.5 10q-5 5 -18 9t-18 7q-8 3 -17 13t-11 12h-15q-3 5 -13 16q-10 5 -26 20q0 3 -5 8q-3 5 -5 5l-3 5q-3 5 -2 8q0 5 -5 8.5t-5 6.5q-3 5 -3 16.5t-3 14.5 q0 5 -5 11.5t-5 8.5q3 13 -2 35t-5 29zM159 248q12 -8 25 -8q18 0 39 16q18 -3 38.5 7.5t32.5 10.5q5 3 14 14.5t15 13.5q8 3 16.5 8t6.5 15q-5 5 -14 7.5t-22 2.5h-18q-31 -5 -51 -2q-5 -3 -44 -41q-3 -8 -19.5 -20.5t-18.5 -23.5z" />
<glyph unicode="f" horiz-adv-x="558" d="M42 -80q2 42 2 62q3 5 7.5 10t4.5 11v23t2.5 20t8 11.5t5.5 11.5v18q15 20 15 41q3 3 15.5 20.5t15.5 30.5q8 5 24.5 23t26.5 26q3 3 13 2q5 0 10 6q5 8 8 7q0 3 6 4t6 4q-3 5 -16.5 6.5t-16.5 3.5q-3 5 -2 21q5 5 11.5 17.5t11.5 17.5q15 0 25 23q3 3 10.5 7t10 6.5t5 9 t5.5 9t10.5 7.5t9.5 8q5 10 4 33t2 36q3 5 6.5 11.5t3.5 8.5q3 10 4 34.5t1 34.5q3 5 6.5 11.5t6.5 11.5q0 3 1 10.5t1 12.5q5 13 9 40t6.5 37t10.5 21q18 77 18 110l15 38q0 5 6.5 18t6.5 21q5 8 36 38q10 -3 21.5 5t16.5 8q3 0 36 -26l8 -8q0 -3 5 -11.5t5 -11.5 q5 -15 5 -43t-5 -39q0 -3 2.5 -9t2.5 -11q-20 -46 -23 -84q-3 -3 -8 -11q-15 -18 -12 -33q-10 -10 -16 -13q3 -44 -13 -59q3 -8 -15 -41q-3 -8 -5.5 -25.5t-4.5 -25.5l-8 -31q-13 -41 -13 -43q-3 -8 -29.5 -24.5t-26.5 -34.5q0 -5 2.5 -10t2.5 -10q0 -10 -5 -25.5t0 -23.5 q3 -10 19.5 -20.5t31.5 -7.5l10 -8q10 -8 21 -8q3 -5 10 -12q8 -3 18 -9.5t15 -8.5q3 -5 28.5 -25.5t20.5 -46.5q-5 -3 -16.5 -3h-19.5l-8 8t-7 5q-36 8 -92 46q-33 0 -39 -2l-7 -8q-3 -8 -4 -24.5t-1 -21.5q0 -3 -5.5 -9t-5.5 -9q-3 -10 -4 -33t-6 -31l-8 -31 q3 -26 -10 -48q0 -8 -1 -23.5t-4 -22.5q0 -3 -4 -8t-4 -10q-3 -5 -4 -16.5t-3 -19.5q-13 -8 -13 -54q0 -3 -16.5 -18t-14.5 -33q-10 -15 -31 -28l-20 -10l-18 -6q-18 -5 -31 6q-10 5 -24 22.5t-22 23.5q-5 18 -15 25q-3 13 -3 39q0 3 -5 9t-7 11q-2 15 -2 39v27zM110 -77 q0 -10 7.5 -28t7.5 -23q3 -5 0 -13l-2 -7q0 -8 5 -21t8 -20q5 -3 7 -13q3 -10 11 -13q5 0 12.5 10t10.5 13v13q3 5 7.5 10t4.5 8q3 5 3 16.5v16.5q0 3 5 9t8 11v9.5t2 11.5q15 59 13 69q5 5 16 21q0 8 2.5 20.5t-0.5 22.5q3 5 13 28v51q0 8 7.5 26t5.5 28q-13 10 -44 -10 q-10 -5 -30.5 -25.5t-30.5 -25.5q0 -10 -9 -27t-4 -32q0 -3 -4 -10.5t-6 -12.5q-3 -8 -10.5 -28.5t-9 -29.5t1.5 -37q0 -3 -4 -9t-4 -9zM251 279q0 -15 8 -15q15 10 17 18q-5 8 -13.5 5t-11.5 -8zM387 640q-8 -36 5 -33q13 0 5 36q3 5 7 10q5 5 8 7q0 5 8 17t8 17 q3 8 2.5 23t2.5 25l2 6q5 8 8 12q-3 10 2.5 29.5t5.5 31t-13 16.5q0 3 -3 0q-3 0 -7 -25q0 -3 -6.5 -12t-6.5 -14l-8 -38v-16q0 -8 -5 -23t-3 -28q-3 -3 -12 -18v-23z" />
<glyph unicode="g" horiz-adv-x="522" d="M-282 -463q20 26 16 48q3 5 6.5 10.5t6 10.5t2.5 15v15q3 3 9 12t6 14q10 8 52 49q13 5 30.5 16.5t25.5 13.5h46q5 3 9 7t6 4q10 -3 11 -16q-13 -26 -41 -25l-92 -95q-5 0 -6 -10q-8 -5 -12 -44q0 -5 -4 -21.5t-4 -26.5q5 -20 5 -31q0 -5 -4 -13t-4 -10q0 -8 6.5 -19.5 t4.5 -19.5q15 -26 28 -35q10 -3 21.5 6t19.5 9q23 26 43 41q18 5 21 10v16q8 5 16.5 15t13.5 15q0 8 3 13q10 5 21 21q5 8 7 12q18 23 18 28q10 5 23 22t18 22q0 8 3 10q3 5 20.5 29.5t22.5 39.5q8 3 10 11q5 5 6 12q5 5 12.5 15.5t12.5 15.5q3 10 28 49q0 10 9 21.5t9 21.5 q15 20 16 26q26 26 30 46q3 5 8 10t5 8l3 5v7.5t5 7.5t7 8q-3 13 7.5 24.5t10.5 21.5q33 33 18 49q-8 0 -28 -13q-26 0 -46 -15q-36 0 -56 -3q-3 0 -13 -4t-15.5 -4t-15.5 6.5t-18 4.5q-38 26 -51 51v56q5 8 15.5 20.5t18 23t12.5 23.5l18 15q18 15 31 18q15 15 25 20 q3 8 13 8q8 3 26 3h25q3 3 9.5 7.5t11.5 7.5h41q3 0 18 -15q15 -10 15 -18q3 -10 -8.5 -23t-24.5 -13q-3 -3 -9.5 2.5t-8.5 5.5q-33 10 -56 -13q-10 0 -23 -8t-21 -8q-26 -20 -38 -33q-3 -8 -9.5 -19.5t-7.5 -17.5t4 -22l5 -10q10 0 31 10q22 -2 39 -2q34 0 45 7 q20 13 28 16q3 0 12 6.5t19 3.5q33 26 72 72v12l15 16q-3 10 6 20.5t9 22.5q3 0 9.5 9t11.5 12q23 15 51 0q8 0 4 -24.5t-4 -27t-5 -7.5l-8 -8q0 -10 -9 -21.5t-6 -24.5l-8 -10q-10 -8 -7 -18q-3 -3 -8 -6.5t-8 -6.5q-3 -13 -15.5 -28t-14.5 -31q-3 -10 -29 -30v-22t-2 -22 q0 -3 -6.5 -13t-6.5 -18q-5 -5 -15.5 -19t-12.5 -16q0 -13 -31 -54v-13l-13 -13q0 -8 -9 -23t-11 -25q-13 -28 -41 -52q0 -3 -15 -25v-13q-26 -26 -26 -44q-13 -15 -34.5 -43t-26.5 -36v-8l-3 -5q-13 -10 -29.5 -35.5t-29.5 -38.5v-13q-8 -5 -15.5 -16.5t-12.5 -13.5 q-3 -3 -3 -7v-6q-67 -72 -97 -87q-5 -5 -15 -18q-18 -26 -39 -26q-3 -3 -10.5 -6.5t-9.5 -6.5q-23 -5 -51 0q-13 13 -23 16q-18 18 -23 28q-15 20 -13 33q-3 5 -9.5 10.5t-6.5 10.5v128z" />
<glyph unicode="h" horiz-adv-x="501" d="M46 0v46q0 3 5 9t5 12q3 15 10.5 35.5t10.5 30.5q15 20 13 33l15 16v13q0 3 6.5 9t6.5 11v15.5t2 12.5q3 5 8 10q3 5 5 8q10 23 13 23v16q0 3 6.5 7.5t8.5 9.5q0 3 1.5 12t1.5 14l15 15v39q3 5 8 11.5t5 8.5q0 20 3 28q15 26 15 77q8 10 13 54q3 8 6.5 18t3.5 15 q0 3 1.5 14.5t3.5 16.5q0 18 -2 86q-1 16 -1 29q0 41 6 49q13 10 32 3.5t24 -19.5q0 -51 13 -64q3 -18 0 -35q-15 -13 -5 -46q-10 -8 -7.5 -51.5t-0.5 -56.5q0 -3 -9 -14.5t-6 -23.5q-3 -5 -8 -13l-5 -8q0 -26 -8 -41q0 -18 -4 -33t-10 -32t-9 -27q-3 -5 -8 -10t-7 -8v-41 q0 -3 -6.5 -6.5t-6.5 -6.5q0 -20 -3 -28q-5 -5 -15 -20q3 -5 -13 -34v-15q-2 -12 -7 -20q3 0 13 1t15 4q3 0 6.5 6.5t5.5 6.5q3 3 8 2.5t7.5 2t8 5t8 5t9 2.5t8.5 3q30 9 59 9l23 -1q5 0 16.5 -5.5t19.5 -7.5q15 -10 36 -39q0 -8 18 -30v-133q-8 -20 2 -23q5 -3 10.5 -0.5 t10.5 2.5q10 -5 -0.5 -24t-10.5 -24q-3 -5 -7.5 -9t-4.5 -7q-3 -3 -3 -9t-2 -9l-44 -15q-23 3 -41 31q-3 10 1 29t4 27v15q0 5 4 15.5t4 15.5q4 18 4 37t-4 40q0 3 -2.5 11.5t-0.5 16.5q0 13 -18 23h-64q-23 -20 -56 -31q-56 -67 -67 -71q-8 0 -12.5 -5.5t-16 -17 t-19.5 -16.5q-31 -20 -54 13z" />
<glyph unicode="i" horiz-adv-x="266" d="M46 -23q0 105 13 120q0 8 1 17t1 14t8 10t8 8q-3 10 5 24t8 17l12 33q0 5 13 80q0 3 1.5 13t1.5 12v41q3 18 29.5 20.5t36.5 -10.5q3 -15 0.5 -48.5t-2.5 -45.5q0 -5 3.5 -15.5t3.5 -13.5q0 -5 -5 -17.5t-5 -20.5q0 -3 -5 -9t-5 -11q-3 -8 -3 -18.5v-15.5 q-3 -3 -7.5 -6.5t-7.5 -6.5q0 -3 -3 -7v-5q-13 -26 -12 -49q-3 -5 -7 -14t-6 -14q-3 -10 -3 -33q0 -3 -6 -8t-6 -10v-28q-5 -10 -16 -16q-10 -15 -18 -10q-5 0 -28 23zM141 617q5 8 7.5 31t5.5 28q3 0 18 12.5t25 10.5q8 -3 18 -13q5 -3 8 -5q5 -15 -13 -33v-46 q-23 -23 -38 -23q-26 20 -31 38z" />
<glyph unicode="j" horiz-adv-x="209" d="M-223 -584q0 5 5.5 11.5t5.5 11.5t-4 10.5t-4 8t5 10.5l5 7v28q23 23 26 31q3 5 4 14t1 12q3 5 10.5 14t9.5 11q23 18 31 13q10 -8 5 -18t-10 -15q-13 -33 -15 -36q0 -61 5 -74q-3 -8 -1.5 -29.5t-3.5 -24.5q0 -20 2 -31q8 -10 18 -18q18 5 36 29.5t28 29.5q3 13 18 29.5 t18 32.5q5 3 12.5 14t12.5 14q0 5 16 28q3 3 2.5 8t-0.5 7q0 5 5 8q8 5 8 8q-3 8 8 20q5 8 8 10q3 8 2 26q0 3 6.5 19.5t6.5 29.5q5 5 18 84q8 8 11.5 33.5t6.5 33.5q0 8 -2.5 29.5t-0.5 34.5q0 3 8 27t2 37l-12 25q-3 8 2 21t5 15q0 5 -3.5 10t-3.5 11q-2 10 -2 29 q0 17 2 40v31q0 27 -3 40q-10 51 -10 54q0 5 -1.5 20.5t-4 23t-12.5 18.5q0 13 -10.5 35.5t-2.5 40.5t35 19.5t37 -16.5q0 -31 15 -46q0 -5 -1 -20.5t1 -23.5q0 -5 7.5 -12.5t7.5 -12.5v-87q0 -15 5.5 -52.5t5.5 -57.5v-72q3 -3 4 -8t1 -7q2 -16 2 -37.5t-2 -50.5 q-3 -56 -3 -76q0 -5 -5 -14t-8 -17v-26q-3 -5 -7.5 -11t-7.5 -9q-3 -18 -1.5 -34.5t-1 -32t-10.5 -23.5q-3 -13 -2 -38q-8 -8 -17 -26t-11 -23q3 -13 -8 -28q-3 -5 -5 -10q-3 -3 -3 -5q-3 -5 -2 -8l-26 -33v-9.5t-2 -8.5q-31 -31 -36 -54q-13 -13 -32.5 -39.5t-38.5 -43.5 t-47 -19q-5 0 -13 -5t-13 -5t-15 6t-18 6q-31 23 -26 49l-15 15q3 13 -8 23q-3 5 -5 11q-3 18 0 30zM59 652.5q0 33.5 13 51.5q3 8 2 18q3 3 12 10.5t14 9.5q10 0 20 -12l11 -11q3 -8 2 -38q-3 -5 -8 -10t-7 -8l-16 -31v-18q-5 -5 -25 -5q-18 10 -18 43.5z" />
<glyph unicode="k" horiz-adv-x="606" d="M49 -138q0 5 5 16.5t5 13.5q3 5 2.5 18t2.5 21q3 10 10 20q3 8 3 23.5v20.5q3 5 6.5 10t6 10t2.5 15.5v15.5l16 31q0 10 -27 26.5t-20 42.5q13 13 44 33.5t43 35.5q3 10 11 21q5 8 7 10v15q18 23 13 44l13 18q3 10 3 30.5t5 27.5q0 5 5 11.5t5 9.5v23q13 28 15 36 q0 5 1.5 21.5t3.5 24.5q0 5 4 11.5t4 8.5q1 6 1 21q0 19 -2 52q-1 11 -1 19q0 40 15 44q0 10 4 33t2.5 38.5t-9.5 25.5q-8 0 -16.5 -6t-13.5 -6q-26 5 -21 30q3 8 21 26q15 15 23 20l15 31q8 31 18 51q10 3 28 -2q15 -8 16 -77q0 -8 -1.5 -26t-1.5 -28q0 -5 2.5 -21.5 t0.5 -27.5q0 -13 -3 -35.5t-3 -35.5q0 -33 -2 -46q-8 -13 -8 -18q-3 -23 -2.5 -61.5t0.5 -61.5q-13 -13 -18 -54q0 -5 -5.5 -11.5t-5.5 -8.5q0 -5 -7 -69q-18 -29 -5 -39q8 0 12.5 5t7.5 5q23 10 44 31q0 3 6 3h9q5 5 12.5 14t13.5 14q31 23 33 25.5t5 7.5l2 5l8 8l5 2 q3 3 5 8l3 5l8 8t7 8q5 0 14 1t14 1q8 -3 11 -10q3 -5 -13 -36q0 -8 -3 -13q-5 -8 -15 -15.5t-13 -12.5q0 -3 -1 -6.5t-1 -6.5q-8 -8 -24.5 -27t-27.5 -26h-12q-8 -5 -23.5 -20.5t-25.5 -23.5h-13q-8 -10 -31 -24t-30 -19q-5 0 -16 -6q-13 -8 -19 -29.5t1 -39.5q13 0 31 -9 t31 -9q3 -3 9 -7.5t11 -7.5h26q5 0 11.5 -6.5t8.5 -6.5h24q31 -28 76 -30l31 -16q10 -13 38.5 -33.5t40.5 -30.5q3 -5 8 -10q13 -23 8 -38q-5 -3 -16 -3q-13 5 -37 21.5t-27 19.5h-18q-18 18 -40 15q-8 5 -18 16h-26q-5 8 -25.5 14t-25.5 14q-10 0 -38.5 9t-46.5 6 q-3 0 -7.5 6.5t-10 9t-12 2.5h-8.5l-21 10q-18 10 -20 -2q-3 -15 -18 -36v-38q3 -5 8 -11l7 -7q5 -10 -5 -24.5t-10 -17t1.5 -7.5t-1.5 -10t-8 -9t-5 -7q0 -13 -10 -24t-10 -19q-13 -18 -41 -11.5t-28 29.5z" />
<glyph unicode="l" horiz-adv-x="286" d="M41 -159q0 27 9 71q7 33 7 58q0 8 -1 15q0 5 6.5 11.5t6.5 8.5q0 38 3 54q15 46 15 49q8 20 15.5 88t25.5 93q0 41 15 57q3 10 3 26.5v29.5l8 23v31q5 20 5 30q0 51 2 82q10 13 11.5 32.5t0.5 45t-1 38.5q0 8 1 23t1 25q5 41 5 51q0 5 -2.5 13t-2.5 10q-3 8 -2 49 q0 5 -1.5 20.5t-1.5 20.5v31l-5 20q-3 20 5 21q0 10 15 10q15 3 28 -7.5t21 -18.5v-58.5t13 -46.5q3 -28 3 -53q0 -35 -6 -64q-5 -46 0 -59q-5 -33 -6 -103.5t-4 -101.5q0 -3 -5 -20.5t-8 -30.5q-3 -10 -2.5 -27t-1 -28.5t-9.5 -19.5q0 -5 -1 -22.5t-4 -25.5q-3 -5 -6.5 -14 t-3.5 -12q-3 -8 -3 -24.5v-23.5q-3 -5 -7.5 -14t-4.5 -12q-3 -13 -3 -49q-3 -5 -8 -14t-7 -14q3 -28 -11 -59q-3 -13 -11.5 -52.5t-8.5 -67.5q0 -5 -6.5 -11.5t-6.5 -11.5q-3 -8 -1.5 -34.5t1.5 -37.5q-15 -20 -23 -23q-11 -3 -20 -3q-24 0 -31 26z" />
<glyph unicode="m" horiz-adv-x="737" d="M46 49q3 3 6.5 9t6.5 9q3 5 4 16.5t4 16.5q0 5 5 9t5 6q0 13 2.5 15.5t5 7.5t5.5 10q3 0 2.5 5.5t2 8t13 15t12.5 20.5q-3 18 18 44q-5 18 13 41q-3 10 13 38q0 3 2 8l3 5q0 3 5 8t5 7.5v6t3 6.5l10 10q3 3 8 13q5 5 10 15q5 5 8 11q8 0 24.5 7.5t23.5 7.5q23 0 28 -18 q0 -10 -18 -23l-20 -10v-28q-3 -3 -8 -7t-7 -6v-16l-16 -15q0 -13 -13 -31q0 -5 -2.5 -22.5t2.5 -20.5q8 0 16 10q0 3 2 5l64 64q13 -3 21 8l8 8h30q31 -23 34 -36q0 -5 -8 -19.5t-5 -26.5q-8 -10 -6 -25.5t13 -15.5q8 0 17 14t12 16q8 3 18 10.5t17 10.5l72 72h13 q3 3 8 7.5t10 7.5h41q3 -5 18 -15.5t20 -20.5q3 -5 3 -19v-22q0 -3 5 -9t8 -11q0 -20 1 -73v-32q0 -28 -1 -41v-23q10 -3 13.5 3.5t6.5 11.5q18 0 23 -5q3 -3 3 -36q-3 -3 -9.5 -6.5t-8.5 -6.5q-5 -56 -39 -69q-13 -3 -21.5 0t-17.5 12t-12 11v18q0 3 -6.5 13t-6.5 18v77v74 q0 61 -2 72q-10 8 -19 2.5t-12 -15.5l-38 -31q-10 -15 -41 -42t-44 -45q-8 0 -28 -13q-8 3 -19.5 -3.5t-13.5 -6.5q-8 -3 -26 3q-10 0 -23 12q3 10 -5 23t-8 16q0 5 6.5 12.5t6.5 10.5q0 28 -8 38q-13 -3 -23 -19.5t-15 -18.5q0 -8 -5 -13q-20 -20 -36 -28q-10 -23 -33 -46 q-3 -3 -3 -8v-5q-18 -28 -82 -87q-31 -5 -43.5 10t-7.5 44z" />
<glyph unicode="n" horiz-adv-x="450" d="M46 15q0 13 10.5 33.5t10.5 35.5q3 5 7.5 9t4.5 7q-3 15 7.5 30.5t10.5 28.5l11 20q0 8 6 18t6 13q5 41 5 69q5 10 8 18q0 13 -9 27t-9 22q0 5 4 11.5t4 8.5q8 15 18 32t25 22q31 8 41 -31q0 -3 -1 -9t-1 -8.5t3.5 -17t1.5 -19.5q0 -5 -5 -18q-11 -22 2 -30q5 3 8 8t5 7 q10 5 25.5 20.5t23 20.5t23 15.5t23.5 15.5q10 3 56 2q8 -5 14.5 -12.5t11.5 -20.5t10 -20q0 -15 3 -65q1 -17 0 -30q0 -26 -3 -36q-3 -3 -8 -9t-5 -11q0 -51 -15 -59q-5 -15 -5 -54q0 -5 -6.5 -20.5t-3.5 -23.5q0 -5 5 -11.5t5 -8.5q3 -10 -3.5 -23t-6.5 -18q-8 -5 -21 -26 q-51 0 -54 26q-4 23 -4 42q0 24 7 40q0 3 5 8t5 7q5 5 4 29.5t-1 32.5q3 5 6.5 12.5t5.5 10.5q0 20 13 53q3 10 3 31q3 5 8 13t7 13q0 3 -13 36q0 20 -7.5 20t-25.5 -26q-18 -8 -20 -15q-5 0 -11 -2l-2 -3q-8 -5 -13 -18q-5 -5 -27 -21.5t-29 -29.5v-13q-5 -5 -13 -23 t-15 -23q3 -13 -8 -28q-5 -5 -8 -10q-3 -3 -2 -6q-3 -5 -3 -7q0 -5 -5 -14t-8 -17q0 -5 -5 -10t-5 -7.5v-8t-3 -5.5q-3 -3 -5 -7q-26 -33 -45 -33q-10 0 -19 10q-10 20 -10 30z" />
<glyph unicode="o" horiz-adv-x="640" d="M49 82q10 15 12 20q8 46 31 75q-3 15 7.5 30.5t10.5 25.5q5 3 31 28q13 18 13 31q3 5 7.5 9t7.5 9v13q3 5 8 8.5t5 6.5v13q10 10 25.5 31.5t22.5 32.5q5 0 21 18q18 8 46 30q10 3 28 8t28 8q18 3 47.5 0t39.5 -3q3 0 13 -6.5t21 -6.5q23 -31 23 -35q8 -10 29.5 -28.5 t29.5 -30.5q5 -20 12 -31q0 -8 16 -46v-14t2.5 -14t7.5 -10.5t5 -10.5q0 -8 -5 -23q-5 -61 -10 -74q-10 -8 -29.5 -36t-37.5 -33q-36 -51 -77 -72q-5 -3 -12 -2l-16 -16q-5 0 -31 -13q-15 0 -29 -9t-22 -11q-5 -5 -41 -10q-26 -10 -56 -16q-15 -2 -29 -2q-22 0 -43 5 q-8 3 -23 13h-15q-15 8 -41 28q-10 8 -21 28q-5 5 -10 15q-2 6 -2 41v26zM115 41q3 -13 17 -24.5t16 -13.5q8 0 28.5 -8t33.5 -5l15 7q8 3 27 4.5t27 3.5q10 0 28 5t28 8q3 3 8 6.5t10 6.5q3 0 8 1t8 1q3 3 7.5 8t7.5 5h5q5 0 8 3q41 31 64 43q10 13 32 41t32 41q-3 10 5 23 t8 18t-4 18t-4 18q-3 10 -3 23q-3 8 -2 18q-3 10 -15.5 24t-15.5 22q-5 13 -15.5 31t-12.5 25q-26 20 -28 21q-15 3 -36 18q-15 3 -21 -8q0 -3 -3.5 -17t-8.5 -16h-16q-18 -31 -51 -34q-18 -10 -32 -25.5t-30.5 -38.5t-24.5 -33q-10 -20 -15 -28q0 -13 -11 -28 q-5 -10 -7 -16q-5 -8 -18 -19t-19.5 -24t-6.5 -31q0 -3 -5 -9t-7.5 -11t-2.5 -19.5t-3 -19.5q0 -5 -2.5 -8.5t-2.5 -6.5z" />
<glyph unicode="p" horiz-adv-x="491" d="M-138.5 -496.5q2.5 22.5 15.5 30.5q-3 23 28 72q3 3 3 13q3 3 8 7.5t7 9.5q0 10 9 24.5t7 27.5q8 5 15.5 24t12.5 24q3 15 14 38.5t14 36.5q3 5 8 10l7 7q0 13 9 27t7 30q8 8 16.5 25.5t11.5 22.5l-8 47q0 5 21 25q3 10 20 28v28q0 5 6.5 19.5t6.5 21.5v26q3 15 10.5 46 t7.5 36t6.5 18t3.5 25q0 5 -2.5 10.5t-2.5 7.5q5 49 31 67h7.5t7.5 2q5 3 9 8t6 5q8 0 19.5 6.5t14.5 6.5l10 5q3 0 18 13t25 15q20 0 29 5q8 -3 28 -2.5t31.5 -3.5t19.5 -11q28 -3 46 -21q0 -8 9 -18t11 -15q2 -3 2 -20q0 -23 -4 -72l-8 -11q-8 -8 -10 -15q0 -3 -5 -6.5 t-5 -8.5q-36 -72 -113 -144h-13q-38 -41 -59 -43q-15 -10 -28 -18q-3 0 -7 -5l-6 -5q-5 -3 -17.5 -8t-17.5 -10q-11 0 -21 -5q0 -10 -10 -25.5t-8 -33.5q-5 -5 -14 -19.5t-14 -19.5q0 -15 -15 -41v-25q-3 -3 -8 -10.5t-8 -10.5v-23q0 -3 -7.5 -11.5t-7.5 -16.5 q-8 -10 -22 -37t-22 -37q0 -10 -12 -36q0 -18 -16 -33q-5 -28 -30 -54q0 -5 -5.5 -16.5t-7.5 -16.5q-3 -8 -3 -21q-20 -31 -54 -7q-10 13 -7.5 35.5zM160 99.5q-4 -20.5 4 -35.5q10 -5 25.5 1.5t22.5 6.5q10 5 34.5 23t37.5 25q10 15 36 42t33 38q5 13 18 30q8 13 10 18 q3 10 3 28t3 26q-3 13 -11 21q-13 0 -29 6t-24 6q-10 0 -24.5 -6t-22.5 -6q-8 -3 -29.5 -16t-34.5 -18q-10 -11 -10 -43q0 -9 1 -20q1 -14 1 -26q0 -28 -7 -41q-3 -3 -8 -5.5t-7 -5.5q-5 -10 -8 -20q-10 -8 -14 -28.5z" />
<glyph unicode="q" horiz-adv-x="614" d="M44 67l12 38v18q5 8 18 19.5t13 16.5v18q72 82 128 110q15 -3 29.5 7.5t26.5 10.5q10 10 46 14t47 14h28q5 -5 17.5 -13t18.5 -13q3 -13 3 -24q0 -32 -21 -53q-28 -13 -34 11q-3 5 2.5 11.5t5.5 11.5q-3 15 -46 7q-10 -10 -59 -15q-95 -49 -143 -128q-5 -15 -5 -20 q-13 -28 -13 -36q0 -15 28 -16q24 -6 41 -6q14 0 23 4q5 3 11.5 5t8.5 5h11q5 3 11.5 8t8.5 5l28 20q8 8 22 21t22 20q5 3 14 9.5t14 8.5l56 56l28 29q3 3 13 14t13 16q5 10 5 16q0 3 5 8t5 7.5t1.5 7.5t4.5 10l15 23q5 3 10 8t10 7q33 -2 41 -33q0 -10 -9 -25.5t-11 -25.5 q-13 -10 -18 -33q-5 -5 -11.5 -19.5t-11.5 -19.5q0 -8 -6.5 -18t-6.5 -12l-18 -31q0 -10 -9 -25.5t-9 -28.5q-5 -5 -15 -31l-3 -5q-5 -8 -7 -13q-3 -3 -3 -9t-2.5 -8.5t-5 -6.5t-5.5 -6q-3 -5 -2 -21l-13 -13q-13 -20 -18 -23q0 -13 -4 -23t-13 -20t-11 -16q3 -13 -5 -25 l-8 -13q-3 -3 -3 -5q-3 -5 -2 -8q-3 -5 -10 -13q0 -3 -1.5 -9t-3.5 -8q0 -3 -5.5 -8t-5.5 -7.5t-5 -13.5q-5 -5 -7 -10q-3 -3 -3 -10q0 -3 -7.5 -9t-7.5 -12v-23q-5 -5 -14 -23t-17 -23q3 -10 -5 -20t-8 -13q-10 -28 -15 -31q3 -8 -5 -19t-8 -14q-5 -10 -5 -33t-3 -36 q-10 -13 -10 -115q3 -5 8 -11l7 -7q0 -15 9 -27t24.5 -23.5t20.5 -16.5h9q32 0 58 -20q3 -5 2 -18q-8 -8 -25.5 -9t-40.5 0t-34 1q-20 18 -66 54q0 3 -16 26q0 15 -2.5 20t-7.5 9t-5 9q-3 5 -4 16.5t-1 16.5q0 8 -5 18q-5 18 -3 31q0 3 8 29.5t5 44.5q0 5 5 10t8 11 q-3 23 7.5 49.5t10.5 32t6.5 11.5t6.5 9q3 18 15.5 45t14.5 45q5 5 13 19t16 22q0 13 2 15q10 20 13 31q5 5 14 19t14 22q3 5 3 15q3 3 7 8l5 7q0 10 3 18q0 3 5 8t8 10q3 3 2 8v5q0 5 5 10t6 8q3 3 2 5q3 5 3 7.5t5 7.5t5 8v13q15 31 15 33q26 20 13 33q-8 3 -13 -5l-5 -7 q-13 -5 -29.5 -22t-21.5 -22q-3 0 -8 -1.5t-7 -3.5q-10 -5 -24.5 -14t-16.5 -12q-31 -5 -41 -10q-13 3 -32.5 -1t-26.5 -4q-3 0 -18 9t-26 6q-10 5 -24 18t-17 16q0 8 -6 20.5t-6 20.5z" />
<glyph unicode="r" horiz-adv-x="604" d="M46 -59q-3 14 -3 25q0 26 16 39q0 5 1 13t1 10q8 8 14.5 26t11.5 23q0 5 15 43q0 3 16 41v13t2 15l3 6q5 8 8 12q5 18 5 56.5v48.5q3 5 20 23q18 13 28 13q23 0 28 -36q13 5 28.5 20.5t25.5 20.5q5 13 28 26q3 3 9.5 9t9 6t9 2.5t11.5 2.5q5 3 16.5 13t16.5 13 q13 0 37.5 2.5t42 2.5t30.5 -5q10 -5 13 -10q8 -5 38 -31q3 -3 10.5 -11.5t10.5 -14.5q21 -26 21 -46q0 -12 -8 -23q-5 3 -9 9.5t-7 6.5q-3 3 -8 2.5t-7 -0.5q-8 8 -23 20.5t-26 20.5q-8 3 -28 16q-17 3 -31 3q-29 0 -43 -14q-8 0 -10 -2l-46 -31q-13 -8 -33.5 -31 t-33.5 -30q-41 -74 -46 -80q0 -10 -3 -13l-38 -61q0 -28 -18 -46q0 -10 -7.5 -27t-7.5 -27q-15 -18 -28 -49q0 -13 -3 -17q-23 -15 -31 -16q-15 0 -28 18z" />
<glyph unicode="s" horiz-adv-x="532" d="M46 -46q0 13 6.5 22t18 16.5t16.5 12.5h10q5 3 14 8t14 7l13 13l10 5q3 0 7 4t6.5 4t9 1.5t8.5 3.5q18 13 21 13q49 8 51 10q15 0 20 -2v-16q0 -10 26 0l23 8q5 8 18 17t15 11l16 8q0 8 -11 13l-12 7q-5 3 -18 5l-16 3q-5 5 -20.5 10t-20.5 13q-5 0 -46 28q0 10 -13 16 q-8 3 -10 5t-8.5 11t-9.5 12q-8 13 -8 27q0 29 36 62q5 8 18 18t16 16q26 10 46 30q8 0 10 3q33 26 36 28q10 -3 24 2.5t17 5.5q20 26 33 36q26 0 39 12q28 -8 35 -30q-8 -26 -35 -54q-5 0 -21 -5q-8 -8 -31 -13q-5 -3 -15 -13l-31 -15h-15q-20 -20 -46 -31 q-5 -5 -10.5 -12.5t-8 -10.5t-8.5 -8t-9 -7q-10 -15 0 -31q8 -8 26 -18t23 -15q18 -3 50 -15.5t52 -15.5q3 -5 13 -13t13 -13q5 -11 5 -22q0 -18 -13 -39q-26 -31 -41 -46q-10 0 -18 -5t-15.5 -14t-12.5 -12h-15q-10 -10 -33.5 -24t-30.5 -19q-18 0 -26 -3t-18 -13h-28.5 t-25.5 -2.5t-10 -7.5t-8 -5h-76q-18 18 -21 23zM241 26q10 0 7 5q-3 3 -5 0.5t-2 -5.5zM259 41q3 -5 5 0t-3 5q-2 -2 -2 -5z" />
<glyph unicode="t" horiz-adv-x="821" d="M46 269q-2 7 -2 13q0 26 28 41h25q5 5 16.5 10t17.5 7q3 3 7.5 5.5t9.5 5.5q3 3 11 2q38 26 43 28q10 0 32 10.5t42 5.5q5 3 31 15.5t36 22.5q0 5 5 18t5 23q3 8 4 27t4 27q0 3 5 10.5t5 12.5q3 10 -3.5 26.5t-6.5 19.5q-3 8 -1.5 31t1.5 30q-3 8 -15.5 18.5t-15.5 17.5 q0 15 31 34q28 18 49 7q18 -23 23 -56l7 -72q-5 -20 -5 -30v-82q-5 -26 5 -31q5 0 10.5 2.5t7.5 2.5q56 0 74 10q10 3 32 3t36 4t22 11q10 -3 25.5 3.5t23.5 6.5q5 0 12.5 -1t10.5 -1q8 0 18 4t15 4q23 0 54 -21q0 -18 -18 -31q-8 -5 -10 -7q-11 1 -21 1q-35 0 -51 -14 q-26 3 -46 -18q-18 0 -50 -9t-47 -9q-5 0 -13 2.5t-13 0.5q-5 0 -14 -6.5t-12 -6.5q-13 3 -25.5 -5t-17.5 -8q-3 0 -12 -1.5t-11 -3.5q-13 -13 -13 -31q-3 -15 0 -58.5t-3 -59.5q-10 -15 -13.5 -56t-6.5 -49q0 -13 -8 -20q-5 -31 -10 -49q-13 -59 -18 -69q-3 -18 -4 -53.5 t-1 -46.5q0 -3 -2.5 -13t-0.5 -15q8 -51 3 -59q-3 -8 -20 -30h-8l-5 -3q-41 3 -41 56q0 10 1 36t1 39v15q0 5 4 10t4 10v21q3 8 3 18q3 13 4 34.5t1 26.5q3 15 10 57q5 8 15 18q0 61 16 89v40t2 42q0 3 6.5 27t1.5 37q-28 -3 -46 -20q-10 3 -24.5 -5t-21.5 -8q-31 -5 -36 -8 q-3 0 -9 -4t-12 -6q-20 0 -30 -8q-3 -3 -13 -2q-3 -3 -12 -10.5t-14 -10.5q-13 0 -18 -2q-3 0 -9 -5.5t-11 -5.5q-20 -3 -36 21z" />
<glyph unicode="u" horiz-adv-x="686" d="M49 92q3 31 3 51q0 12 -1 21q3 3 10 18q-2 11 -2 21q0 31 18 58q15 0 15 13q3 5 -3.5 15.5t-6.5 13t10 17.5q3 3 3 8q3 3 2 5q3 5 11 10t10 10h30q26 -31 21 -51l-15 -15v-39q0 -3 -5.5 -10.5t-7.5 -9.5q-3 -8 -2 -27t-1 -32q-5 -10 -10 -18q5 -10 -2.5 -32t-7.5 -27 q0 -3 2.5 -8t2.5 -7.5t-2.5 -7.5t-2.5 -10q0 -36 30 -49h26q31 15 33 16l29 28q15 3 35 23q5 8 77 87q0 8 8 19.5t8 21.5q13 15 56 84q0 13 9 29.5t9 27.5q5 20 34.5 24t36.5 -17q8 -13 7.5 -29t-7.5 -35q-3 -5 -7.5 -14t-4.5 -14l-8 -38q-1 -16 -1 -31q0 -45 11 -82 q5 -10 13 -18q-3 -15 23 -51q8 -3 28 -3q3 0 8 6.5t10 9t14 2.5h12q5 0 10 6.5t8 6.5q13 3 18 -7.5t0 -25.5q-33 -38 -64 -54q-19 -4 -34 -4q-27 0 -41 12q-36 23 -66 56q-3 3 -3 8v7q-10 20 -10 36q-5 31 -10 31l-18 -18q-13 -17 -16 -20q0 -3 -5 -13q-8 -10 -24.5 -25.5 t-23.5 -25.5q-13 0 -15.5 -3t-12.5 -20q-3 -3 -18 -11q-5 -5 -13 -14t-10.5 -11.5t-11.5 -6.5t-11 -6q-33 -5 -47 -18q-38 -3 -56 15q-18 -3 -28 2.5t-21.5 17t-16.5 14.5q0 8 -8 18t-8 15v28q-5 31 -2 46z" />
<glyph unicode="v" horiz-adv-x="593" d="M45 36v38q0 34 1 51q0 8 9 33.5t6 41.5q0 5 -2.5 10t-2.5 7.5t2.5 7.5t2.5 8q5 28 3 41q0 8 -2.5 22t-2.5 24q0 8 2.5 27t2.5 29q17 29 40 29q7 0 14 -3q8 -5 16.5 -19t13.5 -19q-3 -18 0 -56.5t0 -56.5q0 -3 -5 -10.5t-5 -12.5q0 -3 1.5 -13t1.5 -13q0 -8 -4 -24.5 t-4 -26.5q-3 -5 0 -11.5t3 -11.5q-3 -5 -5.5 -10t-5.5 -10q-5 -13 -5 -38.5v-31.5q0 -23 8 -23q5 0 12.5 10.5t10.5 10.5q3 26 26 33q0 3 20 28v13q0 5 6.5 13t6.5 15q15 15 18 28q15 26 25 36q-3 15 7.5 29.5t10.5 21.5q28 33 29 36l30 31q0 10 8 20q5 5 5 8v9t3 7 q13 23 56 79q0 3 2 8v5q10 10 13 15q5 15 64 108q5 13 16.5 24t29.5 6q5 -5 13 -19t13 -19q0 -13 -26 -59q-3 -13 -18 -33q-10 -44 -23 -59q-5 -3 -10 -5.5t-10 -4.5v-16l-31 -30q0 -3 -15 -26q0 -3 -2.5 -8t-2.5 -7l-11 -11q0 -10 -2 -18l-15 -23q-3 -5 -11 -12 q-3 -5 -2 -13q-3 -5 -13 -15.5t-15 -18.5q0 -3 -1.5 -5t-1.5 -4.5t-5 -8t-8 -7.5q-5 -18 -28 -46v-8t-2 -5q-3 -5 -8 -7.5t-8 -5.5q0 -8 -7.5 -20.5t-7.5 -22.5q-36 -56 -59 -80v-12q-41 -51 -69 -70q-3 -5 -13 -15q-5 3 -14 -2.5t-12 -5.5q-5 0 -12.5 5.5t-12.5 5.5 q-20 31 -31 48q0 26 -1 90z" />
<glyph unicode="w" horiz-adv-x="752" d="M52.5 443q-1.5 10 1 21.5t7.5 21.5q28 5 36 0q10 -5 16.5 -25.5t11.5 -25.5q8 -67 8 -71v-59l8 -23q0 -5 -1.5 -10.5t-1.5 -10.5t5 -16.5t3 -16.5q0 -3 -4 -8t-4 -10q-5 -20 -6 -64t-4 -59q0 -5 -4 -12.5t-4 -10.5q0 -5 4 -10t4 -8q3 -8 3 -28.5t5 -27.5q5 -3 11.5 3.5 t8.5 6.5q8 13 32 37t32 42q0 3 5 7t8 6.5t3 7.5t2 8q10 15 38.5 40.5t38.5 40.5q23 13 56 0q13 -13 13 -66q0 -8 6.5 -20.5t6.5 -20.5q-8 -26 -5 -31q0 -10 12 -15q5 0 11.5 5t9.5 5q5 10 18 25.5t18 25.5l41 41q-3 13 6 23.5t9 22.5q15 10 30.5 45t28.5 45q3 10 28 49 q3 5 4 19t1 16.5t5.5 9t5.5 8.5q0 13 10 32.5t5 31.5q-13 3 -27 -11t-24 -14q0 10 12 20q8 8 11 13q3 23 23 38q26 8 28 8q31 -3 51 -59q0 -8 -6.5 -15.5t-6.5 -12.5t-1 -19t-4 -22q-8 -8 -10 -13q-5 -26 -13 -33q3 -26 -15 -49q0 -18 -13 -30q0 -10 -18 -29q-3 -3 -2 -7v-5 q-31 -44 -41 -90l-16 -15q-5 -10 -5 -13q-10 -18 -35.5 -41t-36.5 -38q-8 -5 -21.5 -19.5t-19.5 -19.5q-3 0 -7.5 -5t-7.5 -5h-56q-5 5 -22 19t-24 22q0 5 -9 15t-9 16q-3 5 -0.5 26.5t-7.5 21.5q-8 -3 -11.5 -14t-8.5 -14q-3 -13 -17 -32t-17 -37q-20 -20 -38 -23 q-5 -10 -41 -44q-23 -13 -46 -15q-15 5 -33 27t-21 24q0 10 -10 31q-3 10 -3 120q0 5 -1 11.5t-1 9.5q0 8 2.5 18t2.5 15q0 10 -2.5 30.5t-0.5 33.5q13 26 13 36q0 8 -4 22t-4 19q-5 20 -5 74q0 5 1.5 13t1.5 10q0 10 -2.5 27t-4 27z" />
<glyph unicode="x" horiz-adv-x="614" d="M46 -15v51q36 41 56 59l16 15l7 13q5 5 11 5q3 3 2.5 8t2.5 7q8 10 27 23t21 16q10 3 22 9t14 9q8 10 0 38q-5 36 -13 44q-3 10 -2 30q0 5 -5 11q-5 5 -8 7q0 13 -10 33.5t-8 33.5q0 8 10.5 18t28.5 -3q28 -18 35 -28q18 -26 18 -59q5 -5 13 -28t21 -28q10 5 33 24t41 24 l15 16q5 0 31 13q10 0 13 2q38 28 61 28q3 0 10.5 5.5t12.5 7.5q5 0 13 -2.5t10.5 -2.5t7.5 2.5t8 0.5q8 -3 7 -34q-5 -10 -26.5 -19t-26.5 -17q-15 0 -31 -15q-13 3 -27 -7.5t-24 -10.5q-38 -23 -69 -54q-3 0 -34 -23q-3 -8 3 -28q41 -74 69 -92q3 -3 10.5 -15.5 t12.5 -17.5q3 -3 8 -5l5 -3q18 -15 28 -36l5 -10q8 -10 5 -18q-5 -15 -43 -8q-18 10 -49 31l-69 69q-8 3 -17 12l-11 11q-8 15 -16 23l-7 26q-8 0 -15.5 -4t-12.5 -4q-10 -8 -25.5 -24.5t-23.5 -21.5q-26 -20 -31 -25q-3 0 -5 -6l-3 -7q-3 -3 -5 -8l-5 -2q0 -3 -2.5 -7 t-2.5 -6q-3 -3 -8 -11q-13 -10 -15 -20q0 -5 3 -10q5 -5 5 -8q0 -10 -21 -26q-23 0 -51 29z" />
<glyph unicode="y" horiz-adv-x="535" d="M-84 -837q-2 20 -2 38q0 26 4 46q10 15 13 31q3 3 8 9t5 9q0 10 9 28t6 33q10 10 13 16q3 10 10.5 24t7.5 24q5 5 12.5 19.5t15.5 19.5q0 8 2 13q5 5 15.5 20t15.5 21l16 30q38 61 41 64v13q3 5 7.5 10t4.5 8q-3 13 11 26q3 5 5 7q3 5 2 13q3 3 9.5 10.5t6.5 15.5 q3 3 6.5 8t5.5 10q0 10 9 20t7 21l15 15v15q3 3 9 12t9 16q10 8 23 24q3 15 18 35q0 10 3 16l7 7q5 3 5 8v15q15 15 16 29q5 3 15 23q18 22 10 30q-8 0 -14 -5t-9 -5q-15 -3 -36 -18l-64 -7q-5 0 -19 3.5t-22 3.5q-31 15 -33 16q-15 15 -28 17l-38 47q3 13 -6.5 42t3.5 34 q3 10 3 29.5v32.5q3 3 14 15.5t24 9.5q5 0 21 -23q5 -3 1 -32t-4 -37q5 -49 18 -56q3 -5 11.5 -11.5t11.5 -9.5q13 3 29.5 -6t26.5 -9q5 0 19.5 9t29.5 6q5 5 14 13t15.5 13t15.5 11.5t16 9.5q20 18 53.5 61t54.5 61q5 20 25 39q38 5 49 -8q5 -17 5 -32q0 -27 -18 -47 q0 -3 -2.5 -10.5t-2.5 -10.5q-36 -56 -41 -64v-10q-10 -10 -21.5 -33t-21.5 -31q0 -10 -8 -21.5t-5 -24.5l-15 -23q-3 -3 -4.5 -8t-1.5 -7.5t-3.5 -6.5t-6.5 -9q-3 -3 -2 -7l-3 -6q-13 -28 -13 -33q-5 -5 -14 -18t-14 -18v-13q-15 -26 -31 -38q-3 -5 -13 -20.5t-15 -22.5 q-3 -5 -13 -29q0 -5 -18 -23v-15q-15 -13 -30 -54q-5 -8 -14 -20.5t-14 -17.5q0 -10 -9 -24.5t-7 -26.5q-10 -13 -30 -34q-3 -13 -29 -46q0 -8 -7.5 -18t-7.5 -12q-3 -3 -3 -7v-6q-20 -26 -28 -64q-15 -15 -15 -26q0 -3 -5 -6.5t-8 -8.5q0 -5 -1 -13t-1 -13 q-10 -5 -15.5 -26.5t-13.5 -27.5q0 -15 -12 -53v-16q-5 -13 -23 -11.5t-23 14.5z" />
<glyph unicode="z" horiz-adv-x="616" d="M46 10v26q46 51 87 84q31 38 59 62q15 20 47 49.5t43 42.5q3 10 27 32t24 47q0 8 14 19.5t6 24.5q-3 0 -9 -4t-9 -4q-8 -3 -41 -2q-18 -13 -61 -13q-10 0 -15 5q-22 -5 -40 -5t-32 5q-3 -3 -6.5 -10.5t-8.5 -10.5q-19 -10 -36 -10q-15 0 -28 8q-5 5 -18 28q8 20 35 49h13 q3 0 21 12h23q3 0 9 5.5t9 5.5q5 0 10 -3t8 -2q8 -1 19 -1q19 0 50 3q13 8 48.5 10.5t40.5 2.5q3 0 18 8q10 0 32 2.5t37 2.5t23 -8q2 -12 2.5 -29t-2.5 -40q0 -5 -5 -11.5t-5 -9v-7.5t-2 -5q-3 -3 -9.5 -14.5t-6.5 -19.5q-36 -41 -41 -46q-5 -13 -23 -29.5t-20 -18.5 q0 -8 -23 -44q-13 -3 -31 -15q-10 -5 -15 -10l-3 -8l-8 -8q-3 -5 -12 -10q-5 -10 -11 -18q-10 -15 -12.5 -17.5t-12.5 -8.5q-3 -3 -8 -6.5t-8 -5.5q-20 -23 -33 -26q0 -3 -9 -13t-9 -15q0 -3 39 -3h35q15 5 26 11q10 3 56 1.5t46 10.5q36 4 64 4q11 0 21 -1q26 18 74 18 q8 0 23 10q49 -10 54 -20q5 -23 -26 -36q-3 0 -13 -1.5t-15 -3.5q-3 0 -9 -5.5t-9 -5.5h-28q-5 -3 -13 -10l-7 -5q-15 3 -31 -13q-61 0 -100 -10q-23 -5 -33 -3q-26 0 -72 -5q-10 0 -38 -7.5t-46 -5.5q-31 15 -49 16q-18 10 -41 38z" />
<glyph unicode="{" horiz-adv-x="706" d="M44 18q3 3 15 28q5 8 13 13q0 3 2.5 8t2.5 10l5 7q8 13 31 36q28 28 38 31l77 69q28 8 43 23q-5 8 -16.5 9t-29.5 0t-25 -1q-5 0 -14 4t-14 4q-3 3 -9.5 5t-8.5 2h-13q-23 18 -23 26q-3 15 13 33q8 5 10 10q10 3 30.5 19.5t38.5 19.5q5 0 10 5t8 5q5 0 33 15q20 0 72 26 q3 0 6.5 1.5t6.5 3.5q3 0 7.5 5t10.5 8h12q15 0 18 8q-3 8 -51 7l-15 16q-8 3 -32.5 1.5t-36.5 0.5q-26 15 -49 13q-10 8 -54 33q-8 8 -14 15.5t-12.5 18t-11.5 15.5v5.5t-2.5 5t-8 8.5t-5.5 9q-5 74 0 102q0 5 5.5 15.5t8 15.5t2.5 13v13q15 31 15 33q13 13 15 23 q5 3 44 56l49 49q44 26 51 38q5 5 12.5 15.5t10.5 13.5l31 23l30 15q8 0 18 2.5t16 2.5q5 3 14 -2.5t14 -5.5q10 0 33 3t36 3q5 0 13 5q20 8 30.5 5t25.5 -26v-20q-26 -26 -49 -26q-5 -3 -12 -8q-15 -8 -29 -5q-5 0 -10 5.5t-10 7.5l-26 13q-8 -3 -16.5 -12t-19 -12.5 t-25.5 -3.5q-26 -13 -44 -51q-8 -5 -61 -52q-3 -3 -3 -2q-5 0 -5 -3q-8 -5 -20.5 -20.5t-17.5 -20.5q-26 -20 -26 -33q-10 -13 -23 -46v-28.5t-2 -25.5q-15 -26 -13 -33q0 -5 6.5 -11.5t6.5 -9.5q0 -8 2.5 -10t7.5 -12.5t10 -12.5q8 0 13 -3q3 0 9 -5t11 -5q3 -3 16 -3 q3 0 9 -5t9 -8q3 0 10.5 -1t9.5 -4q36 -10 59 -10h33q5 0 20.5 -7.5t23.5 -10.5h28q5 0 12.5 -6.5t10.5 -6.5q26 0 36 -2q20 -15 23 -34q0 -5 -6.5 -12.5t-6.5 -17.5q-5 -8 -20.5 -14.5t-20.5 -11.5q-8 -5 -24.5 -19t-29.5 -19q-5 -3 -16.5 -8t-16.5 -10q-44 0 -59 -13 q-28 0 -41 -3q-31 0 -33 -12q3 -10 31 -16q38 0 56 -2q8 -3 41 -51v-16l-9 -9l-11 -11q-5 -3 -34 -18q-3 0 -15 -13l-31 -15q-3 -10 -18 -21q-8 -5 -10 -8q-3 0 -5.5 -1t-4.5 -1q-10 -8 -31 -28h-15l-36 -36q-13 -26 -31 -44q-20 -31 -13 -74q5 -8 8 -24.5t5 -18.5 q3 -5 8 -11.5t5 -9.5q3 -5 2 -18q10 -15 11 -20v-12t2 -11q3 -8 14.5 -21t13.5 -18q0 -10 3 -12l15 -24q13 -13 21 -17q8 -3 18 -7t18 -6q36 -5 110 0q13 8 20 10q33 -3 57 15h35.5t30.5 2.5t13 8t10 5.5h16q3 0 6.5 6.5t8.5 8.5q18 0 25 3q3 0 13 5q44 20 57 2q3 -5 2 -20 q-8 -8 -28 -18t-26 -15q-10 0 -12 -3q-8 -8 -26 -14t-23 -12q-10 0 -24 -9t-20 -11q-59 -8 -71 -13q-5 -3 -10.5 -8t-7.5 -5q-15 -3 -41 -2.5t-41 0.5q-5 0 -19 -6.5t-22 -3.5q-5 0 -20.5 5t-25.5 5h-21q-5 3 -15 14t-15 14q-5 5 -18 11.5t-16 8.5q-5 10 -24 25.5t-24 26.5 q3 13 -8 28q-5 8 -8 13v9t-2 11q0 3 -13 21q-3 3 -31 104q0 3 -5 12t-7 12v38z" />
<glyph unicode="|" horiz-adv-x="358" d="M56 -384q5 15 11 77q15 92 15 97q0 8 -1.5 22t-1.5 19t1.5 15.5t1.5 12.5q3 18 2.5 59t5.5 62q0 8 5 21.5t5 18.5v47q5 15 5 20q3 5 3 20.5v20.5q0 8 2.5 27t2.5 37t-5 33q0 8 5 27t2 35q0 10 -3.5 26.5t-3.5 24.5q0 15 8.5 47t8.5 45v156l8 85v33q0 5 2.5 15.5t2.5 17.5 q0 13 -6.5 50t-0.5 58q3 5 5 15t5 16q5 20 5 58.5t2 61.5q0 8 6 28q3 10 2 15q3 10 8 38.5t10 43.5q10 110 3 172q0 8 -10.5 32t-12.5 37q0 23 35 72q37 -6 57 -29q31 0 30 -28q26 -38 26 -48q0 -5 -5 -18l-5 -11q-3 -13 -0.5 -35.5t0.5 -33.5q-15 -20 -16 -25 q-3 -5 -10 -26q-5 -8 -5 -28q3 -3 21 -14.5t20 -23.5q0 -18 -11.5 -26t-29.5 0q-5 -8 -7.5 -27t-7.5 -27q-10 -28 -10 -98.5v-85.5q0 -10 -5.5 -38.5t-5.5 -43.5t5.5 -44.5t5.5 -37.5q0 -41 -16 -74q0 -10 2.5 -36t2.5 -38q0 -5 -3.5 -18t-3.5 -21q0 -10 1 -25.5t1 -22.5 q0 -5 -1 -17t-1 -19v-36q0 -13 -6.5 -33.5t-6.5 -22.5q-3 -5 -0.5 -15.5t2.5 -13.5q-8 -59 -5 -66q0 -3 13 -46q0 -10 1.5 -29.5t1.5 -27.5q0 -3 -16 -48q-8 -33 -18 -46q-8 -115 -2 -364q0 -3 -1.5 -10.5t-1.5 -9.5q0 -5 6.5 -13t6.5 -13q-3 -5 -9 -3.5t-9 -1.5 q-5 -5 -18 -23t-25.5 -27t-28.5 -6q-13 0 -23 12.5t-12 15.5q0 5 -5.5 14t-5.5 14z" />
<glyph unicode="}" horiz-adv-x="698" d="M51 -210q-13 33 13 72q5 8 14 18t12 12q3 8 7 18q8 3 26 3t25 3q5 0 14.5 5t16.5 7q36 0 46 -25q-3 -10 -18 -11q-10 -3 -29 -14t-30 -14q-13 -13 -12 -23q31 -5 51 -2q5 3 11.5 8t8.5 5h18t21 2q3 0 10 5q8 5 13 8q3 3 10.5 4t9.5 1q5 0 10.5 5t10.5 5q23 5 33 13 q8 3 26 3q3 0 11.5 7.5t16.5 7.5q46 46 87 61q31 20 48 31q3 5 10.5 10t10.5 11q0 3 1.5 6.5t3.5 5.5q0 3 10 13q0 8 3 13q10 15 10 20q13 31 3 57q-3 3 -5 7q-13 13 -11 26q-33 26 -36 33q-10 0 -22.5 8t-20.5 10q-8 5 -18 16q-13 0 -28 9t-31 6q-3 3 -18 15.5t-25 15.5 q-5 5 -31 25q-8 0 -22 1.5t-24 1.5q-20 15 -21 31q3 8 10.5 15.5t10.5 12.5q10 3 29 15.5t32 14.5l31 24q5 15 8 17q31 10 43 18l10 3q13 0 15.5 5t-7.5 13t-10 10q-8 0 -13 3q-8 8 -32 19t-34 22q-13 0 -21 2q-5 5 -18 11.5t-18 9.5q-5 5 -7.5 19t2.5 22q23 20 62 28 q28 13 56 41q20 13 36 33q10 20 10 33q18 20 13 118q-23 26 -51 33q-3 0 -9.5 -1t-11.5 -1q-18 5 -54 38q-5 0 -19 5t-19 4t-21 -6h-58q-5 -3 -10.5 -9.5t-7.5 -6.5q-5 0 -15.5 8t-13.5 8h-30q-23 13 -21 33q3 5 23 26q23 -3 54 6t46 9q10 8 38.5 11.5t48.5 -3.5q3 0 10 -5 l8 -6q18 0 28 -2q8 -8 10 -8q3 -3 8 -4t8 -1q13 -13 23 -13l8 -8t7.5 -5t7.5 -1t8 -1q8 -8 30 -28q13 0 16 -8q3 0 7 -13q0 -3 5.5 -6.5t5.5 -6.5q3 -3 6.5 -13t8.5 -15q10 -41 -3 -77q-8 -10 -12 -61q0 -3 -6.5 -13t-6.5 -20q-18 -23 -18 -28q-5 -5 -28 -29.5t-36 -37.5 q-20 0 -23 -10q0 -5 20 -10q3 0 8 -5.5t8 -5.5h18q5 -3 12.5 -9t15.5 -9q8 -8 23 -20.5t23 -20.5q18 -5 20 -7q13 -36 -23 -67q-10 0 -21.5 -9t-19.5 -9q-8 -3 -18 -13h-12q-3 -3 -11 -7q-10 -10 -20 -8q-5 -3 -10 -8q-5 -3 -8 -5q-18 3 -21 -15q-5 -18 21 -18 q33 -28 74 -43l8 -8t10 -8l5 3q5 0 10 -3q3 0 7 -5t9 -8h13q5 -5 15 -14t18 -14q5 -10 23 -26.5t23 -27.5q3 -5 3 -10q3 -5 7.5 -11.5t7.5 -8.5v-72q-5 -5 -10 -16.5t-8 -16.5q0 -5 -6.5 -14t-6.5 -14q-46 -59 -100 -95q-5 0 -20 -5l-36 -31l-10 -10q-5 -3 -13 -3 q-5 -3 -12.5 -11.5t-13.5 -11.5q-26 -20 -51 -20q-5 -3 -24 -13t-27 -15q-10 0 -30.5 -9t-36.5 -9q-33 -13 -48 -13q-23 -18 -62 -18q-51 0 -56 2.5t-10 7.5q-5 3 -8 5z" />
<glyph unicode="~" horiz-adv-x="1003" d="M46 113q-3 13 15 28t18 18q18 10 59 56q0 8 21 33q10 5 30.5 23t33.5 26l8 8l7 7h10q3 8 16 13q3 3 7.5 8t10.5 7q3 3 10 3l25 13q8 10 26 12.5t46 2.5h36q18 -10 41 -38q15 -46 18 -72q-5 -5 -1.5 -35.5t3.5 -36.5q13 -26 16 -28h30q5 0 8 6.5t8 9.5q23 3 50 16.5 t42 16.5q5 0 10 5t8 5h13q8 5 43.5 36t58.5 41q8 5 32 28t42 31q64 77 69 87q3 0 9.5 6.5t11.5 8.5q5 5 15 0l5 -5v-56q-5 -8 -20 -24.5t-21 -26.5q-3 -3 -2 -6q-3 -5 -3 -7q-8 -3 -10 -10q-3 -3 -6.5 -9.5t-8.5 -11.5t-20.5 -16.5t-23.5 -19.5q-5 -5 -10 -15 q-13 3 -24.5 -6t-19.5 -9q-10 -10 -31.5 -28.5t-32.5 -28.5q-3 -3 -13 -9t-15 -11q-3 0 -6.5 -5.5t-8.5 -5.5l-31 -15q-8 0 -24.5 -9t-31.5 -6q-5 0 -9 -5t-9 -8q-10 0 -55 -4t-53 4q-5 0 -12.5 6.5t-12.5 6.5q-10 5 -21 23q0 8 -6 16.5t-9 14.5q-5 54 0 107q0 28 -3 31 q-38 5 -81 -28l-11 -3q-8 -5 -22 -14t-21 -14q-56 -46 -80 -72q-26 -38 -74 -74q-8 -3 -28 -3q-5 -3 -7.5 -9t-7.5 -6q-8 0 -17 9t-9 17z" />
<glyph unicode="&#xad;" d="M46 249.5q3 16.5 15 24.5q51 0 57 -3q5 0 11.5 5.5t8.5 5.5h64q5 0 18 -3t21 -3h53q33 -10 44 -7q10 0 31 5q15 5 47 3.5t50 1.5q5 0 11.5 4t11.5 6h3v3l92 -16q15 -5 12.5 -21.5t-15.5 -21.5q-13 0 -37 -7.5t-37 -7.5h-46q-5 -3 -13 -8t-10 -5q-8 -3 -46 -3h-226 q-38 15 -46 16q-3 -3 -9 -8t-11 -8q-10 -3 -21.5 7.5t-22.5 10.5q-13 13 -10 29.5z" />
<glyph unicode="&#x2000;" horiz-adv-x="717" />
<glyph unicode="&#x2001;" horiz-adv-x="1434" />
<glyph unicode="&#x2002;" horiz-adv-x="717" />
<glyph unicode="&#x2003;" horiz-adv-x="1434" />
<glyph unicode="&#x2004;" horiz-adv-x="478" />
<glyph unicode="&#x2005;" horiz-adv-x="358" />
<glyph unicode="&#x2006;" horiz-adv-x="239" />
<glyph unicode="&#x2007;" horiz-adv-x="239" />
<glyph unicode="&#x2008;" horiz-adv-x="179" />
<glyph unicode="&#x2009;" horiz-adv-x="286" />
<glyph unicode="&#x200a;" horiz-adv-x="79" />
<glyph unicode="&#x2010;" d="M46 249.5q3 16.5 15 24.5q51 0 57 -3q5 0 11.5 5.5t8.5 5.5h64q5 0 18 -3t21 -3h53q33 -10 44 -7q10 0 31 5q15 5 47 3.5t50 1.5q5 0 11.5 4t11.5 6h3v3l92 -16q15 -5 12.5 -21.5t-15.5 -21.5q-13 0 -37 -7.5t-37 -7.5h-46q-5 -3 -13 -8t-10 -5q-8 -3 -46 -3h-226 q-38 15 -46 16q-3 -3 -9 -8t-11 -8q-10 -3 -21.5 7.5t-22.5 10.5q-13 13 -10 29.5z" />
<glyph unicode="&#x2011;" d="M46 249.5q3 16.5 15 24.5q51 0 57 -3q5 0 11.5 5.5t8.5 5.5h64q5 0 18 -3t21 -3h53q33 -10 44 -7q10 0 31 5q15 5 47 3.5t50 1.5q5 0 11.5 4t11.5 6h3v3l92 -16q15 -5 12.5 -21.5t-15.5 -21.5q-13 0 -37 -7.5t-37 -7.5h-46q-5 -3 -13 -8t-10 -5q-8 -3 -46 -3h-226 q-38 15 -46 16q-3 -3 -9 -8t-11 -8q-10 -3 -21.5 7.5t-22.5 10.5q-13 13 -10 29.5z" />
<glyph unicode="&#x2012;" d="M46 249.5q3 16.5 15 24.5q51 0 57 -3q5 0 11.5 5.5t8.5 5.5h64q5 0 18 -3t21 -3h53q33 -10 44 -7q10 0 31 5q15 5 47 3.5t50 1.5q5 0 11.5 4t11.5 6h3v3l92 -16q15 -5 12.5 -21.5t-15.5 -21.5q-13 0 -37 -7.5t-37 -7.5h-46q-5 -3 -13 -8t-10 -5q-8 -3 -46 -3h-226 q-38 15 -46 16q-3 -3 -9 -8t-11 -8q-10 -3 -21.5 7.5t-22.5 10.5q-13 13 -10 29.5z" />
<glyph unicode="&#x2013;" horiz-adv-x="1099" d="M46 249.5q6 16.5 28 24.5q95 0 106 -3q9 0 21 5.5t16 5.5h119q9 0 33 -3t39 -3h99q61 -10 81 -7q19 0 58 5q28 5 87.5 3.5t92.5 1.5q9 0 21 4t22 6h5v3l171 -16q28 -5 23.5 -21.5t-28.5 -21.5q-25 0 -69.5 -7.5t-68.5 -7.5h-85q-10 -3 -24.5 -8t-18.5 -5q-15 -3 -85 -3 h-420q-71 15 -86 16q-5 -3 -16 -8t-21 -8q-18 -3 -39.5 7.5t-41.5 10.5q-25 13 -19 29.5z" />
<glyph unicode="&#x2014;" horiz-adv-x="2123" d="M47 249.5q11 16.5 56 24.5q189 0 212 -3q18 0 42 5.5t32 5.5h237q19 0 67.5 -3t77.5 -3h197q123 -10 164 -7q37 0 115 5q55 5 174 3.5t186 1.5q19 0 43 4t42 6h12v3l341 -16q56 -5 46.5 -21.5t-57.5 -21.5q-48 0 -137 -7.5t-138 -7.5h-171l-48 -8t-37 -5q-30 -3 -171 -3 h-839q-141 15 -171 16q-11 -3 -33.5 -8t-40.5 -8q-37 -3 -80 7.5t-84 10.5q-48 13 -37 29.5z" />
<glyph unicode="&#x202f;" horiz-adv-x="286" />
<glyph unicode="&#x205f;" horiz-adv-x="358" />
<glyph unicode="&#x25fc;" horiz-adv-x="422" d="M0 0v422h422v-422h-422z" />
</font>
</defs>
</svg>
